Kufam-Black.ufo
<glyph name="quotedbl" format="2">
  <advance width="452"/>
  <unicode hex="0022"/>
  <note>
quotedbl
</note>
  <outline>
    <contour>
      <point x="252" y="720" type="line"/>
      <point x="260" y="460" type="line"/>
      <point x="404" y="460" type="line"/>
      <point x="412" y="720" type="line"/>
    </contour>
    <contour>
      <point x="40" y="720" type="line"/>
      <point x="48" y="460" type="line"/>
      <point x="192" y="460" type="line"/>
      <point x="200" y="720" type="line"/>
    </contour>
  </outline>
</glyph>
<glyph name="ampersand" format="2">
  <advance width="704"/>
  <unicode hex="0026"/>
  <note>
ampersand
</note>
  <outline>
    <contour>
      <point x="356" y="-12" type="curve" smooth="yes"/>
      <point x="448" y="-12"/>
      <point x="548" y="8"/>
      <point x="604" y="28" type="curve"/>
      <point x="608" y="36" type="line"/>
      <point x="599" y="72"/>
      <point x="596" y="156"/>
      <point x="596" y="196" type="curve" smooth="yes"/>
      <point x="596" y="284" type="line"/>
      <point x="664" y="284" type="line"/>
      <point x="664" y="432" type="line"/>
      <point x="352" y="432" type="line" smooth="yes"/>
      <point x="292" y="432"/>
      <point x="244" y="444"/>
      <point x="244" y="496" type="curve" smooth="yes"/>
      <point x="244" y="540"/>
      <point x="284" y="564"/>
      <point x="372" y="564" type="curve" smooth="yes"/>
      <point x="452" y="564"/>
      <point x="524" y="544"/>
      <point x="568" y="524" type="curve"/>
      <point x="580" y="524" type="line"/>
      <point x="580" y="700" type="line"/>
      <point x="536" y="718"/>
      <point x="464" y="732"/>
      <point x="388" y="732" type="curve" smooth="yes"/>
      <point x="132" y="732"/>
      <point x="36" y="636"/>
      <point x="36" y="496" type="curve" smooth="yes"/>
      <point x="36" y="404"/>
      <point x="91" y="343"/>
      <point x="203" y="309" type="curve"/>
      <point x="207" y="365" type="line"/>
      <point x="94" y="338"/>
      <point x="46" y="286"/>
      <point x="46" y="200" type="curve" smooth="yes"/>
      <point x="46" y="40"/>
      <point x="176" y="-12"/>
    </contour>
    <contour>
      <point x="428" y="121" type="curve"/>
      <point x="450" y="163" type="line"/>
      <point x="428" y="155"/>
      <point x="399" y="144"/>
      <point x="348" y="144" type="curve" smooth="yes"/>
      <point x="296" y="144"/>
      <point x="248" y="160"/>
      <point x="248" y="216" type="curve" smooth="yes"/>
      <point x="248" y="261"/>
      <point x="276" y="284"/>
      <point x="334" y="284" type="curve" smooth="yes"/>
      <point x="406" y="284" type="line"/>
      <point x="406" y="236" type="line" smooth="yes"/>
      <point x="406" y="174"/>
      <point x="412" y="137"/>
    </contour>
  </outline>
</glyph>
<glyph name="parenleft" format="2">
  <advance width="392"/>
  <unicode hex="0028"/>
  <note>
parenleft
</note>
  <outline>
    <contour>
      <point x="176" y="-88" type="curve"/>
      <point x="384" y="-88" type="line"/>
      <point x="384" y="-84" type="line"/>
      <point x="296" y="20"/>
      <point x="240" y="160"/>
      <point x="240" y="336" type="curve" smooth="yes"/>
      <point x="240" y="512"/>
      <point x="296" y="652"/>
      <point x="384" y="756" type="curve"/>
      <point x="384" y="760" type="line"/>
      <point x="176" y="760" type="line"/>
      <point x="104" y="676"/>
      <point x="44" y="516"/>
      <point x="44" y="336" type="curve" smooth="yes"/>
      <point x="44" y="156"/>
      <point x="104" y="-4"/>
    </contour>
  </outline>
</glyph>
<glyph name="parenright" format="2">
  <advance width="392"/>
  <unicode hex="0029"/>
  <note>
parenright
</note>
  <outline>
    <contour>
      <point x="8" y="-84" type="curve"/>
      <point x="8" y="-88" type="line"/>
      <point x="216" y="-88" type="line"/>
      <point x="288" y="-4"/>
      <point x="348" y="156"/>
      <point x="348" y="336" type="curve" smooth="yes"/>
      <point x="348" y="516"/>
      <point x="288" y="676"/>
      <point x="216" y="760" type="curve"/>
      <point x="8" y="760" type="line"/>
      <point x="8" y="756" type="line"/>
      <point x="96" y="652"/>
      <point x="152" y="512"/>
      <point x="152" y="336" type="curve" smooth="yes"/>
      <point x="152" y="160"/>
      <point x="96" y="20"/>
    </contour>
  </outline>
</glyph>
<glyph name="comma" format="2">
  <advance width="284"/>
  <unicode hex="002C"/>
  <note>
comma
</note>
  <outline>
    <contour>
      <point x="93" y="6" type="curve"/>
      <point x="1" y="-153" type="line"/>
      <point x="1" y="-160" type="line"/>
      <point x="153" y="-160" type="line"/>
      <point x="207" y="-50" type="line" smooth="yes"/>
      <point x="224" y="-16"/>
      <point x="255" y="39"/>
      <point x="255" y="90" type="curve" smooth="yes"/>
      <point x="255" y="164"/>
      <point x="208" y="208"/>
      <point x="142" y="208" type="curve" smooth="yes"/>
      <point x="76" y="208"/>
      <point x="32" y="161"/>
      <point x="32" y="98" type="curve" smooth="yes"/>
      <point x="32" y="43"/>
      <point x="64" y="20"/>
    </contour>
  </outline>
</glyph>
<glyph name="period" format="2">
  <advance width="284"/>
  <unicode hex="002E"/>
  <note>
period
</note>
  <outline>
    <contour>
      <point x="142" y="-12" type="curve" smooth="yes"/>
      <point x="208" y="-12"/>
      <point x="252" y="32"/>
      <point x="252" y="98" type="curve" smooth="yes"/>
      <point x="252" y="164"/>
      <point x="208" y="208"/>
      <point x="142" y="208" type="curve" smooth="yes"/>
      <point x="76" y="208"/>
      <point x="32" y="164"/>
      <point x="32" y="98" type="curve" smooth="yes"/>
      <point x="32" y="32"/>
      <point x="76" y="-12"/>
    </contour>
  </outline>
</glyph>
<glyph name="two" format="2">
  <advance width="616"/>
  <unicode hex="0032"/>
  <note>
two
</note>
  <outline>
    <contour>
      <point x="48" y="0" type="curve"/>
      <point x="560" y="0" type="line"/>
      <point x="560" y="168" type="line"/>
      <point x="148" y="168" type="line"/>
      <point x="228" y="100" type="line"/>
      <point x="228" y="115"/>
      <point x="227" y="120"/>
      <point x="227" y="125" type="curve" smooth="yes"/>
      <point x="227" y="179"/>
      <point x="253" y="216"/>
      <point x="312" y="234" type="curve" smooth="yes"/>
      <point x="344" y="244" type="line" smooth="yes"/>
      <point x="490" y="290"/>
      <point x="556" y="360"/>
      <point x="556" y="484" type="curve" smooth="yes"/>
      <point x="556" y="620"/>
      <point x="468" y="732"/>
      <point x="264" y="732" type="curve" smooth="yes"/>
      <point x="188" y="732"/>
      <point x="108" y="716"/>
      <point x="68" y="696" type="curve"/>
      <point x="68" y="528" type="line"/>
      <point x="80" y="528" type="line"/>
      <point x="104" y="542"/>
      <point x="176" y="564"/>
      <point x="236" y="564" type="curve" smooth="yes"/>
      <point x="324" y="564"/>
      <point x="356" y="528"/>
      <point x="356" y="478" type="curve" smooth="yes"/>
      <point x="356" y="436"/>
      <point x="336" y="406"/>
      <point x="284" y="390" type="curve" smooth="yes"/>
      <point x="244" y="378" type="line" smooth="yes"/>
      <point x="92" y="332"/>
      <point x="32" y="232"/>
      <point x="32" y="108" type="curve" smooth="yes"/>
      <point x="32" y="72"/>
      <point x="36" y="24"/>
    </contour>
  </outline>
</glyph>
<glyph name="three" format="2">
  <advance width="616"/>
  <unicode hex="0033"/>
  <note>
three
</note>
  <outline>
    <contour>
      <point x="244" y="-12" type="curve" smooth="yes"/>
      <point x="468" y="-12"/>
      <point x="576" y="88"/>
      <point x="576" y="228" type="curve" smooth="yes"/>
      <point x="576" y="344"/>
      <point x="480" y="449"/>
      <point x="293" y="431" type="curve"/>
      <point x="315" y="367" type="line"/>
      <point x="512" y="584" type="line" smooth="yes"/>
      <point x="539" y="613"/>
      <point x="548" y="636"/>
      <point x="548" y="672" type="curve" smooth="yes"/>
      <point x="548" y="684"/>
      <point x="544" y="700"/>
      <point x="540" y="710" type="curve"/>
      <point x="528" y="720" type="line"/>
      <point x="56" y="720" type="line"/>
      <point x="56" y="556" type="line"/>
      <point x="372" y="556" type="line"/>
      <point x="340" y="624" type="line"/>
      <point x="140" y="372" type="line"/>
      <point x="172" y="300" type="line"/>
      <point x="268" y="300" type="line" smooth="yes"/>
      <point x="344" y="300"/>
      <point x="372" y="268"/>
      <point x="372" y="228" type="curve" smooth="yes"/>
      <point x="372" y="168"/>
      <point x="320" y="144"/>
      <point x="236" y="144" type="curve" smooth="yes"/>
      <point x="160" y="144"/>
      <point x="92" y="172"/>
      <point x="68" y="188" type="curve"/>
      <point x="56" y="188" type="line"/>
      <point x="56" y="20" type="line"/>
      <point x="92" y="4"/>
      <point x="162" y="-12"/>
    </contour>
  </outline>
</glyph>
<glyph name="six" format="2">
  <advance width="616"/>
  <unicode hex="0036"/>
  <note>
six
</note>
  <outline>
    <contour>
      <point x="320" y="-12" type="curve" smooth="yes"/>
      <point x="476" y="-12"/>
      <point x="588" y="72"/>
      <point x="588" y="244" type="curve" smooth="yes"/>
      <point x="588" y="368"/>
      <point x="524" y="472"/>
      <point x="352" y="472" type="curve" smooth="yes"/>
      <point x="292" y="472"/>
      <point x="248" y="452"/>
      <point x="223" y="440" type="curve"/>
      <point x="172" y="440" type="line"/>
      <point x="172" y="300" type="line"/>
      <point x="228" y="300" type="line"/>
      <point x="244" y="312"/>
      <point x="268" y="324"/>
      <point x="308" y="324" type="curve" smooth="yes"/>
      <point x="376" y="324"/>
      <point x="396" y="288"/>
      <point x="396" y="236" type="curve" smooth="yes"/>
      <point x="396" y="184"/>
      <point x="376" y="144"/>
      <point x="320" y="144" type="curve" smooth="yes"/>
      <point x="234" y="144"/>
      <point x="228" y="220"/>
      <point x="228" y="360" type="curve" smooth="yes"/>
      <point x="228" y="468"/>
      <point x="248" y="568"/>
      <point x="424" y="568" type="curve" smooth="yes"/>
      <point x="464" y="568"/>
      <point x="496" y="560"/>
      <point x="516" y="552" type="curve"/>
      <point x="528" y="552" type="line"/>
      <point x="528" y="720" type="line"/>
      <point x="496" y="728"/>
      <point x="460" y="732"/>
      <point x="416" y="732" type="curve" smooth="yes"/>
      <point x="128" y="732"/>
      <point x="28" y="552"/>
      <point x="28" y="344" type="curve" smooth="yes"/>
      <point x="28" y="156"/>
      <point x="76" y="-12"/>
    </contour>
  </outline>
</glyph>
<glyph name="seven" format="2">
  <advance width="616"/>
  <unicode hex="0037"/>
  <note>
seven
</note>
  <outline>
    <contour>
      <point x="56" y="720" type="line"/>
      <point x="56" y="548" type="line"/>
      <point x="462" y="548" type="line"/>
      <point x="414" y="626" type="line"/>
      <point x="112" y="12" type="line"/>
      <point x="112" y="0" type="line"/>
      <point x="336" y="0" type="line"/>
      <point x="556" y="556" type="line"/>
      <point x="572" y="592"/>
      <point x="584" y="628"/>
      <point x="584" y="666" type="curve" smooth="yes"/>
      <point x="584" y="678"/>
      <point x="582" y="696"/>
      <point x="580" y="710" type="curve"/>
      <point x="568" y="720" type="line"/>
    </contour>
  </outline>
</glyph>
<glyph name="eight" format="2">
  <advance width="616"/>
  <unicode hex="0038"/>
  <note>
eight
</note>
  <outline>
    <contour>
      <point x="304" y="-12" type="curve" smooth="yes"/>
      <point x="488" y="-12"/>
      <point x="592" y="76"/>
      <point x="592" y="208" type="curve" smooth="yes"/>
      <point x="592" y="313"/>
      <point x="512" y="375"/>
      <point x="404" y="408" type="curve" smooth="yes"/>
      <point x="352" y="424" type="line" smooth="yes"/>
      <point x="273" y="448"/>
      <point x="236" y="464"/>
      <point x="236" y="516" type="curve" smooth="yes"/>
      <point x="236" y="556"/>
      <point x="264" y="584"/>
      <point x="312" y="584" type="curve" smooth="yes"/>
      <point x="370" y="584"/>
      <point x="392" y="552"/>
      <point x="392" y="512" type="curve" smooth="yes"/>
      <point x="392" y="472"/>
      <point x="368" y="428"/>
      <point x="324" y="408" type="curve"/>
      <point x="456" y="352" type="line"/>
      <point x="532" y="388"/>
      <point x="580" y="451"/>
      <point x="580" y="532" type="curve" smooth="yes"/>
      <point x="580" y="656"/>
      <point x="480" y="732"/>
      <point x="320" y="732" type="curve" smooth="yes"/>
      <point x="120" y="732"/>
      <point x="40" y="632"/>
      <point x="40" y="512" type="curve" smooth="yes"/>
      <point x="40" y="412"/>
      <point x="102" y="343"/>
      <point x="204" y="312" type="curve" smooth="yes"/>
      <point x="244" y="300" type="line" smooth="yes"/>
      <point x="321" y="277"/>
      <point x="388" y="268"/>
      <point x="388" y="208" type="curve" smooth="yes"/>
      <point x="388" y="164"/>
      <point x="360" y="136"/>
      <point x="304" y="136" type="curve" smooth="yes"/>
      <point x="244" y="136"/>
      <point x="216" y="168"/>
      <point x="216" y="220" type="curve" smooth="yes"/>
      <point x="216" y="284"/>
      <point x="272" y="324"/>
      <point x="340" y="340" type="curve"/>
      <point x="184" y="376" type="line"/>
      <point x="96" y="356"/>
      <point x="24" y="287"/>
      <point x="24" y="188" type="curve" smooth="yes"/>
      <point x="24" y="68"/>
      <point x="108" y="-12"/>
    </contour>
  </outline>
</glyph>
<glyph name="colon" format="2">
  <advance width="284"/>
  <unicode hex="003A"/>
  <note>
colon
</note>
  <outline>
    <contour>
      <point x="142" y="-12" type="curve" smooth="yes"/>
      <point x="208" y="-12"/>
      <point x="252" y="32"/>
      <point x="252" y="98" type="curve" smooth="yes"/>
      <point x="252" y="164"/>
      <point x="208" y="208"/>
      <point x="142" y="208" type="curve" smooth="yes"/>
      <point x="76" y="208"/>
      <point x="32" y="164"/>
      <point x="32" y="98" type="curve" smooth="yes"/>
      <point x="32" y="32"/>
      <point x="76" y="-12"/>
    </contour>
    <contour>
      <point x="142" y="324" type="curve" smooth="yes"/>
      <point x="208" y="324"/>
      <point x="252" y="368"/>
      <point x="252" y="434" type="curve" smooth="yes"/>
      <point x="252" y="500"/>
      <point x="208" y="544"/>
      <point x="142" y="544" type="curve" smooth="yes"/>
      <point x="76" y="544"/>
      <point x="32" y="500"/>
      <point x="32" y="434" type="curve" smooth="yes"/>
      <point x="32" y="368"/>
      <point x="76" y="324"/>
    </contour>
  </outline>
</glyph>
<glyph name="less" format="2">
  <advance width="616"/>
  <unicode hex="003C"/>
  <note>
less
</note>
  <outline>
    <contour>
      <point x="84" y="280" type="line"/>
      <point x="524" y="60" type="line"/>
      <point x="532" y="60" type="line"/>
      <point x="532" y="200" type="line"/>
      <point x="272" y="320" type="line"/>
      <point x="532" y="444" type="line"/>
      <point x="532" y="580" type="line"/>
      <point x="524" y="580" type="line"/>
      <point x="84" y="360" type="line"/>
    </contour>
  </outline>
</glyph>
<glyph name="question" format="2">
  <advance width="508"/>
  <unicode hex="003F"/>
  <note>
question
</note>
  <outline>
    <contour>
      <point x="144" y="252" type="line"/>
      <point x="328" y="252" type="line"/>
      <point x="328" y="284" type="line" smooth="yes"/>
      <point x="328" y="320"/>
      <point x="334" y="339"/>
      <point x="364" y="360" type="curve" smooth="yes"/>
      <point x="392" y="380" type="line" smooth="yes"/>
      <point x="423" y="402"/>
      <point x="484" y="448"/>
      <point x="484" y="548" type="curve" smooth="yes"/>
      <point x="484" y="672"/>
      <point x="396" y="732"/>
      <point x="244" y="732" type="curve" smooth="yes"/>
      <point x="168" y="732"/>
      <point x="100" y="720"/>
      <point x="48" y="700" type="curve"/>
      <point x="48" y="540" type="line"/>
      <point x="60" y="540" type="line"/>
      <point x="96" y="560"/>
      <point x="152" y="576"/>
      <point x="196" y="576" type="curve" smooth="yes"/>
      <point x="256" y="576"/>
      <point x="280" y="556"/>
      <point x="280" y="520" type="curve" smooth="yes"/>
      <point x="280" y="488"/>
      <point x="270" y="475"/>
      <point x="232" y="448" type="curve" smooth="yes"/>
      <point x="204" y="428" type="line" smooth="yes"/>
      <point x="159" y="396"/>
      <point x="144" y="352"/>
      <point x="144" y="288" type="curve" smooth="yes"/>
    </contour>
    <contour>
      <point x="238" y="-12" type="curve" smooth="yes"/>
      <point x="304" y="-12"/>
      <point x="348" y="32"/>
      <point x="348" y="98" type="curve" smooth="yes"/>
      <point x="348" y="164"/>
      <point x="304" y="208"/>
      <point x="238" y="208" type="curve" smooth="yes"/>
      <point x="172" y="208"/>
      <point x="128" y="164"/>
      <point x="128" y="98" type="curve" smooth="yes"/>
      <point x="128" y="32"/>
      <point x="172" y="-12"/>
    </contour>
  </outline>
</glyph>
<glyph name="B" format="2">
  <advance width="704"/>
  <unicode hex="0042"/>
  <note>
B
</note>
  <anchor x="352" y="0" name="bottom"/>
  <anchor x="352" y="720" name="top"/>
  <outline>
    <contour>
      <point x="180" y="0" type="line"/>
      <point x="408" y="0" type="line" smooth="yes"/>
      <point x="568" y="0"/>
      <point x="664" y="64"/>
      <point x="664" y="192" type="curve" smooth="yes"/>
      <point x="664" y="281"/>
      <point x="601" y="350"/>
      <point x="485" y="356" type="curve"/>
      <point x="494" y="315" type="line"/>
      <point x="598" y="347"/>
      <point x="652" y="432"/>
      <point x="652" y="516" type="curve" smooth="yes"/>
      <point x="652" y="648"/>
      <point x="564" y="720"/>
      <point x="382" y="720" type="curve" smooth="yes"/>
      <point x="180" y="720" type="line"/>
      <point x="180" y="548" type="line"/>
      <point x="364" y="548" type="line" smooth="yes"/>
      <point x="404" y="548"/>
      <point x="440" y="536"/>
      <point x="440" y="484" type="curve" smooth="yes"/>
      <point x="440" y="440"/>
      <point x="412" y="404"/>
      <point x="356" y="404" type="curve" smooth="yes"/>
      <point x="180" y="404" type="line"/>
      <point x="180" y="256" type="line"/>
      <point x="400" y="256" type="line" smooth="yes"/>
      <point x="432" y="256"/>
      <point x="452" y="240"/>
      <point x="452" y="212" type="curve" smooth="yes"/>
      <point x="452" y="180"/>
      <point x="432" y="164"/>
      <point x="400" y="164" type="curve" smooth="yes"/>
      <point x="180" y="164" type="line"/>
    </contour>
    <contour>
      <point x="68" y="0" type="line"/>
      <point x="280" y="0" type="line"/>
      <point x="280" y="720" type="line"/>
      <point x="68" y="720" type="line"/>
    </contour>
  </outline>
</glyph>
<glyph name="D" format="2">
  <advance width="780"/>
  <unicode hex="0044"/>
  <note>
D
</note>
  <anchor x="390" y="0" name="bottom"/>
  <anchor x="182" y="366" name="center"/>
  <anchor x="390" y="720" name="top"/>
  <outline>
    <contour>
      <point x="180" y="0" type="line"/>
      <point x="328" y="0" type="line" smooth="yes"/>
      <point x="620" y="0"/>
      <point x="744" y="176"/>
      <point x="744" y="392" type="curve" smooth="yes"/>
      <point x="744" y="600"/>
      <point x="616" y="720"/>
      <point x="360" y="720" type="curve" smooth="yes"/>
      <point x="180" y="720" type="line"/>
      <point x="180" y="536" type="line"/>
      <point x="360" y="536" type="line" smooth="yes"/>
      <point x="484" y="536"/>
      <point x="528" y="480"/>
      <point x="528" y="388" type="curve" smooth="yes"/>
      <point x="528" y="264"/>
      <point x="464" y="184"/>
      <point x="340" y="184" type="curve" smooth="yes"/>
      <point x="180" y="184" type="line"/>
    </contour>
    <contour>
      <point x="68" y="0" type="line"/>
      <point x="280" y="0" type="line"/>
      <point x="280" y="720" type="line"/>
      <point x="68" y="720" type="line"/>
    </contour>
  </outline>
</glyph>
<glyph name="E" format="2">
  <advance width="612"/>
  <unicode hex="0045"/>
  <note>
E
</note>
  <anchor x="306" y="0" name="bottom"/>
  <anchor x="564" y="0" name="ogonek"/>
  <anchor x="306" y="720" name="top"/>
  <anchor x="20" y="720" name="topleft"/>
  <outline>
    <contour>
      <point x="68" y="0" type="line"/>
      <point x="280" y="0" type="line"/>
      <point x="280" y="720" type="line"/>
      <point x="68" y="720" type="line"/>
    </contour>
    <contour>
      <point x="180" y="0" type="line"/>
      <point x="564" y="0" type="line"/>
      <point x="564" y="184" type="line"/>
      <point x="180" y="184" type="line"/>
    </contour>
    <contour>
      <point x="180" y="268" type="line"/>
      <point x="508" y="268" type="line"/>
      <point x="508" y="440" type="line"/>
      <point x="180" y="440" type="line"/>
    </contour>
    <contour>
      <point x="180" y="536" type="line"/>
      <point x="556" y="536" type="line"/>
      <point x="556" y="720" type="line"/>
      <point x="180" y="720" type="line"/>
    </contour>
  </outline>
</glyph>
<glyph name="F" format="2">
  <advance width="588"/>
  <unicode hex="0046"/>
  <note>
F
</note>
  <anchor x="294" y="0" name="bottom"/>
  <anchor x="294" y="720" name="top"/>
  <outline>
    <contour>
      <point x="68" y="0" type="line"/>
      <point x="280" y="0" type="line"/>
      <point x="280" y="720" type="line"/>
      <point x="68" y="720" type="line"/>
    </contour>
    <contour>
      <point x="180" y="216" type="line"/>
      <point x="508" y="216" type="line"/>
      <point x="508" y="388" type="line"/>
      <point x="180" y="388" type="line"/>
    </contour>
    <contour>
      <point x="180" y="536" type="line"/>
      <point x="556" y="536" type="line"/>
      <point x="556" y="720" type="line"/>
      <point x="180" y="720" type="line"/>
    </contour>
  </outline>
</glyph>
<glyph name="G" format="2">
  <advance width="728"/>
  <unicode hex="0047"/>
  <note>
G
</note>
  <anchor x="364" y="0" name="bottom"/>
  <anchor x="364" y="720" name="top"/>
  <outline>
    <contour>
      <point x="36" y="356" type="curve" smooth="yes"/>
      <point x="36" y="136"/>
      <point x="168" y="-12"/>
      <point x="428" y="-12" type="curve" smooth="yes"/>
      <point x="526" y="-12"/>
      <point x="608" y="4"/>
      <point x="664" y="28" type="curve"/>
      <point x="664" y="370" type="line"/>
      <point x="472" y="370" type="line"/>
      <point x="472" y="78" type="line"/>
      <point x="510" y="192" type="line"/>
      <point x="492" y="166"/>
      <point x="471" y="160"/>
      <point x="432" y="160" type="curve" smooth="yes"/>
      <point x="322" y="160"/>
      <point x="252" y="240"/>
      <point x="252" y="352" type="curve" smooth="yes"/>
      <point x="252" y="480"/>
      <point x="320" y="556"/>
      <point x="476" y="556" type="curve" smooth="yes"/>
      <point x="534" y="556"/>
      <point x="592" y="544"/>
      <point x="620" y="530" type="curve"/>
      <point x="632" y="530" type="line"/>
      <point x="632" y="708" type="line"/>
      <point x="604" y="720"/>
      <point x="540" y="732"/>
      <point x="466" y="732" type="curve" smooth="yes"/>
      <point x="184" y="732"/>
      <point x="36" y="576"/>
    </contour>
  </outline>
</glyph>
<glyph name="I" format="2">
  <advance width="348"/>
  <unicode hex="0049"/>
  <note>
I
</note>
  <anchor x="174" y="0" name="bottom"/>
  <anchor x="280" y="0" name="ogonek"/>
  <anchor x="174" y="720" name="top"/>
  <anchor x="20" y="720" name="topleft"/>
  <outline>
    <contour>
      <point x="68" y="720" type="line"/>
      <point x="68" y="0" type="line"/>
      <point x="280" y="0" type="line"/>
      <point x="280" y="720" type="line"/>
    </contour>
  </outline>
</glyph>
<glyph name="L" format="2">
  <advance width="572"/>
  <unicode hex="004C"/>
  <note>
L
</note>
  <anchor x="286" y="0" name="bottom"/>
  <anchor x="232" y="394" name="center"/>
  <anchor x="420" y="432" name="periodCAT"/>
  <anchor x="286" y="720" name="top"/>
  <anchor x="552" y="720" name="topright"/>
  <outline>
    <contour>
      <point x="68" y="0" type="line"/>
      <point x="540" y="0" type="line"/>
      <point x="540" y="184" type="line"/>
      <point x="280" y="184" type="line"/>
      <point x="280" y="720" type="line"/>
      <point x="68" y="720" type="line"/>
    </contour>
  </outline>
</glyph>
<glyph name="M" format="2">
  <advance width="896"/>
  <unicode hex="004D"/>
  <note>
M
</note>
  <anchor x="448" y="0" name="bottom"/>
  <anchor x="448" y="720" name="top"/>
  <outline>
    <contour>
      <point x="68" y="0" type="line"/>
      <point x="280" y="0" type="line"/>
      <point x="280" y="418" type="line"/>
      <point x="236" y="406" type="line"/>
      <point x="404" y="124" type="line"/>
      <point x="492" y="124" type="line"/>
      <point x="659" y="412" type="line"/>
      <point x="616" y="423" type="line"/>
      <point x="616" y="0" type="line"/>
      <point x="828" y="0" type="line"/>
      <point x="828" y="720" type="line"/>
      <point x="648" y="720" type="line"/>
      <point x="407" y="304" type="line"/>
      <point x="494" y="305" type="line"/>
      <point x="248" y="720" type="line"/>
      <point x="68" y="720" type="line"/>
    </contour>
  </outline>
</glyph>
<glyph name="N" format="2">
  <advance width="784"/>
  <unicode hex="004E"/>
  <note>
N
</note>
  <anchor x="392" y="0" name="bottom"/>
  <anchor x="392" y="720" name="top"/>
  <outline>
    <contour>
      <point x="68" y="0" type="line"/>
      <point x="280" y="0" type="line"/>
      <point x="280" y="487" type="line"/>
      <point x="219" y="462" type="line"/>
      <point x="568" y="116" type="line"/>
      <point x="568" y="392" type="line"/>
      <point x="236" y="720" type="line"/>
      <point x="68" y="720" type="line"/>
    </contour>
    <contour>
      <point x="504" y="0" type="line"/>
      <point x="716" y="0" type="line"/>
      <point x="716" y="720" type="line"/>
      <point x="504" y="720" type="line"/>
    </contour>
  </outline>
</glyph>
<glyph name="P" format="2">
  <advance width="712"/>
  <unicode hex="0050"/>
  <note>
P
</note>
  <anchor x="356" y="0" name="bottom"/>
  <anchor x="356" y="720" name="top"/>
  <outline>
    <contour>
      <point x="180" y="160" type="line"/>
      <point x="356" y="160" type="line" smooth="yes"/>
      <point x="564" y="160"/>
      <point x="680" y="284"/>
      <point x="680" y="464" type="curve" smooth="yes"/>
      <point x="680" y="620"/>
      <point x="580" y="720"/>
      <point x="372" y="720" type="curve" smooth="yes"/>
      <point x="180" y="720" type="line"/>
      <point x="180" y="544" type="line"/>
      <point x="376" y="544" type="line" smooth="yes"/>
      <point x="432" y="544"/>
      <point x="472" y="516"/>
      <point x="472" y="456" type="curve" smooth="yes"/>
      <point x="472" y="388"/>
      <point x="440" y="328"/>
      <point x="348" y="328" type="curve" smooth="yes"/>
      <point x="180" y="328" type="line"/>
    </contour>
    <contour>
      <point x="68" y="0" type="line"/>
      <point x="280" y="0" type="line"/>
      <point x="280" y="720" type="line"/>
      <point x="68" y="720" type="line"/>
    </contour>
  </outline>
</glyph>
<glyph name="V" format="2">
  <advance width="708"/>
  <unicode hex="0056"/>
  <note>
V
</note>
  <anchor x="354" y="0" name="bottom"/>
  <anchor x="354" y="720" name="top"/>
  <outline>
    <contour>
      <point x="56" y="24" type="curve"/>
      <point x="60" y="12" type="line"/>
      <point x="115" y="0"/>
      <point x="177" y="-8"/>
      <point x="236" y="-8" type="curve" smooth="yes"/>
      <point x="432" y="-8"/>
      <point x="567" y="23"/>
      <point x="600" y="228" type="curve" smooth="yes"/>
      <point x="680" y="720" type="line"/>
      <point x="468" y="720" type="line"/>
      <point x="396" y="260" type="line" smooth="yes"/>
      <point x="386" y="197"/>
      <point x="360" y="168"/>
      <point x="284" y="168" type="curve" smooth="yes"/>
      <point x="271" y="168"/>
      <point x="256" y="170"/>
      <point x="244" y="172" type="curve"/>
      <point x="264" y="131" type="line"/>
      <point x="270" y="148"/>
      <point x="280" y="187"/>
      <point x="280" y="232" type="curve" smooth="yes"/>
      <point x="280" y="720" type="line"/>
      <point x="68" y="720" type="line"/>
      <point x="68" y="184" type="line" smooth="yes"/>
      <point x="68" y="144"/>
      <point x="64" y="60"/>
    </contour>
  </outline>
</glyph>
<glyph name="W" format="2">
  <advance width="1124"/>
  <unicode hex="0057"/>
  <note>
W
</note>
  <anchor x="562" y="0" name="bottom"/>
  <anchor x="562" y="720" name="top"/>
  <outline>
    <contour>
      <point x="692" y="-8" type="curve" smooth="yes"/>
      <point x="865" y="-8"/>
      <point x="1000" y="63"/>
      <point x="1028" y="240" type="curve" smooth="yes"/>
      <point x="1104" y="720" type="line"/>
      <point x="892" y="720" type="line"/>
      <point x="824" y="260" type="line" smooth="yes"/>
      <point x="815" y="198"/>
      <point x="770" y="168"/>
      <point x="690" y="168" type="curve" smooth="yes"/>
      <point x="669" y="168"/>
      <point x="645" y="170"/>
      <point x="619" y="174" type="curve"/>
      <point x="701" y="125" type="line"/>
      <point x="704" y="157"/>
      <point x="704" y="203"/>
      <point x="700" y="260" type="curve" smooth="yes"/>
      <point x="664" y="720" type="line"/>
      <point x="464" y="720" type="line"/>
      <point x="512" y="179" type="line" smooth="yes"/>
      <point x="515" y="123"/>
      <point x="516" y="75"/>
      <point x="512" y="24" type="curve"/>
      <point x="514" y="12" type="line"/>
      <point x="569" y="0"/>
      <point x="633" y="-8"/>
    </contour>
    <contour>
      <point x="220" y="-8" type="curve" smooth="yes"/>
      <point x="369" y="-8"/>
      <point x="485" y="58"/>
      <point x="533" y="170" type="curve" smooth="yes"/>
      <point x="561" y="235" type="line"/>
      <point x="525" y="573" type="line"/>
      <point x="420" y="272" type="line" smooth="yes"/>
      <point x="399" y="213"/>
      <point x="372" y="168"/>
      <point x="292" y="168" type="curve" smooth="yes"/>
      <point x="280" y="168"/>
      <point x="263" y="169"/>
      <point x="248" y="172" type="curve"/>
      <point x="288" y="125" type="line"/>
      <point x="286" y="157"/>
      <point x="289" y="203"/>
      <point x="284" y="260" type="curve" smooth="yes"/>
      <point x="248" y="720" type="line"/>
      <point x="36" y="720" type="line"/>
      <point x="80" y="184" type="line" smooth="yes"/>
      <point x="83" y="144"/>
      <point x="88" y="68"/>
      <point x="84" y="24" type="curve"/>
      <point x="88" y="12" type="line"/>
      <point x="137" y="-2"/>
      <point x="173" y="-8"/>
    </contour>
  </outline>
</glyph>
<glyph name="Z" format="2">
  <advance width="664"/>
  <unicode hex="005A"/>
  <note>
Z
</note>
  <anchor x="332" y="0" name="bottom"/>
  <anchor x="332" y="720" name="top"/>
  <outline>
    <contour>
      <point x="48" y="0" type="line"/>
      <point x="626" y="0" type="line"/>
      <point x="626" y="184" type="line"/>
      <point x="234" y="184" type="line"/>
      <point x="270" y="113" type="line"/>
      <point x="588" y="564" type="line" smooth="yes"/>
      <point x="610" y="596"/>
      <point x="624" y="624"/>
      <point x="624" y="664" type="curve" smooth="yes"/>
      <point x="624" y="676"/>
      <point x="621" y="696"/>
      <point x="618" y="708" type="curve"/>
      <point x="606" y="720" type="line"/>
      <point x="44" y="720" type="line"/>
      <point x="44" y="536" type="line"/>
      <point x="420" y="536" type="line"/>
      <point x="384" y="607" type="line"/>
      <point x="66" y="156" type="line" smooth="yes"/>
      <point x="44" y="124"/>
      <point x="30" y="96"/>
      <point x="30" y="56" type="curve" smooth="yes"/>
      <point x="30" y="44"/>
      <point x="32" y="26"/>
      <point x="36" y="12" type="curve"/>
    </contour>
  </outline>
</glyph>
<glyph name="bracketleft" format="2">
  <advance width="408"/>
  <unicode hex="005B"/>
  <note>
bracketleft
</note>
  <outline>
    <contour>
      <point x="56" y="760" type="line"/>
      <point x="56" y="-88" type="line"/>
      <point x="384" y="-88" type="line"/>
      <point x="384" y="60" type="line"/>
      <point x="236" y="60" type="line"/>
      <point x="236" y="612" type="line"/>
      <point x="384" y="612" type="line"/>
      <point x="384" y="760" type="line"/>
    </contour>
  </outline>
</glyph>
<glyph name="bracketright" format="2">
  <advance width="408"/>
  <unicode hex="005D"/>
  <note>
bracketright
</note>
  <outline>
    <contour>
      <point x="24" y="60" type="line"/>
      <point x="24" y="-88" type="line"/>
      <point x="352" y="-88" type="line"/>
      <point x="352" y="760" type="line"/>
      <point x="24" y="760" type="line"/>
      <point x="24" y="612" type="line"/>
      <point x="172" y="612" type="line"/>
      <point x="172" y="60" type="line"/>
    </contour>
  </outline>
</glyph>
<glyph name="b" format="2">
  <advance width="684"/>
  <unicode hex="0062"/>
  <note>
b
</note>
  <anchor x="342" y="0" name="bottom"/>
  <anchor x="342" y="760" name="top"/>
  <outline>
    <contour>
      <point x="276" y="-12" type="curve" smooth="yes"/>
      <point x="488" y="-12"/>
      <point x="644" y="64"/>
      <point x="644" y="280" type="curve" smooth="yes"/>
      <point x="644" y="456"/>
      <point x="551" y="564"/>
      <point x="380" y="564" type="curve" smooth="yes"/>
      <point x="337" y="564"/>
      <point x="297" y="556"/>
      <point x="248" y="536" type="curve"/>
      <point x="248" y="400" type="line"/>
      <point x="262" y="406"/>
      <point x="296" y="412"/>
      <point x="316" y="412" type="curve" smooth="yes"/>
      <point x="392" y="412"/>
      <point x="428" y="360"/>
      <point x="428" y="276" type="curve" smooth="yes"/>
      <point x="428" y="196"/>
      <point x="396" y="136"/>
      <point x="312" y="136" type="curve" smooth="yes"/>
      <point x="282" y="136"/>
      <point x="246" y="143"/>
      <point x="240" y="138" type="curve"/>
      <point x="276" y="94" type="line"/>
      <point x="276" y="118"/>
      <point x="280" y="151"/>
      <point x="280" y="192" type="curve" smooth="yes"/>
      <point x="280" y="760" type="line"/>
      <point x="60" y="760" type="line"/>
      <point x="56" y="752" type="line"/>
      <point x="65" y="716"/>
      <point x="68" y="576"/>
      <point x="68" y="536" type="curve" smooth="yes"/>
      <point x="68" y="188" type="line" smooth="yes"/>
      <point x="68" y="148"/>
      <point x="68" y="68"/>
      <point x="60" y="32" type="curve"/>
      <point x="64" y="24" type="line"/>
      <point x="120" y="4"/>
      <point x="201" y="-12"/>
    </contour>
  </outline>
</glyph>
<glyph name="e" format="2">
  <advance width="636"/>
  <unicode hex="0065"/>
  <note>
e
</note>
  <anchor x="318" y="0" name="bottom"/>
  <anchor x="560" y="12" name="ogonek"/>
  <anchor x="318" y="548" name="top"/>
  <outline>
    <contour>
      <point x="384" y="-12" type="curve" smooth="yes"/>
      <point x="461" y="-12"/>
      <point x="516" y="-4"/>
      <point x="560" y="12" type="curve"/>
      <point x="560" y="172" type="line"/>
      <point x="548" y="172" type="line"/>
      <point x="520" y="156"/>
      <point x="464" y="144"/>
      <point x="404" y="144" type="curve" smooth="yes"/>
      <point x="312" y="144"/>
      <point x="252" y="168"/>
      <point x="252" y="252" type="curve" smooth="yes"/>
      <point x="252" y="296" type="line" smooth="yes"/>
      <point x="252" y="392"/>
      <point x="275" y="424"/>
      <point x="328" y="424" type="curve" smooth="yes"/>
      <point x="379" y="424"/>
      <point x="400" y="392"/>
      <point x="400" y="340" type="curve" smooth="yes"/>
      <point x="400" y="336" type="line"/>
      <point x="168" y="336" type="line"/>
      <point x="168" y="220" type="line"/>
      <point x="598" y="220" type="line"/>
      <point x="600" y="260" type="line" smooth="yes"/>
      <point x="609" y="432"/>
      <point x="524" y="564"/>
      <point x="332" y="564" type="curve" smooth="yes"/>
      <point x="153" y="564"/>
      <point x="40" y="460"/>
      <point x="40" y="276" type="curve" smooth="yes"/>
      <point x="40" y="56"/>
      <point x="188" y="-12"/>
    </contour>
  </outline>
</glyph>
<glyph name="f" format="2">
  <advance width="464"/>
  <unicode hex="0066"/>
  <note>
f
</note>
  <anchor x="232" y="0" name="bottom"/>
  <anchor x="232" y="760" name="top"/>
  <outline>
    <contour>
      <point x="100" y="0" type="line"/>
      <point x="312" y="0" type="line"/>
      <point x="312" y="532" type="line" smooth="yes"/>
      <point x="312" y="600"/>
      <point x="348" y="624"/>
      <point x="404" y="624" type="curve" smooth="yes"/>
      <point x="428" y="624"/>
      <point x="448" y="618"/>
      <point x="460" y="612" type="curve"/>
      <point x="472" y="612" type="line"/>
      <point x="472" y="764" type="line"/>
      <point x="452" y="770"/>
      <point x="420" y="776"/>
      <point x="380" y="776" type="curve" smooth="yes"/>
      <point x="216" y="776"/>
      <point x="100" y="708"/>
      <point x="100" y="536" type="curve" smooth="yes"/>
    </contour>
    <contour>
      <point x="8" y="388" type="line"/>
      <point x="432" y="388" type="line"/>
      <point x="432" y="548" type="line"/>
      <point x="8" y="548" type="line"/>
    </contour>
  </outline>
</glyph>
<glyph name="h" format="2">
  <advance width="692"/>
  <unicode hex="0068"/>
  <note>
h
</note>
  <anchor x="346" y="0" name="bottom"/>
  <anchor x="191" y="650" name="center"/>
  <anchor x="170" y="760" name="top"/>
  <outline>
    <contour>
      <point x="68" y="0" type="line"/>
      <point x="280" y="0" type="line"/>
      <point x="280" y="482" type="line"/>
      <point x="241" y="393" type="line"/>
      <point x="243" y="388"/>
      <point x="293" y="400"/>
      <point x="320" y="400" type="curve" smooth="yes"/>
      <point x="378" y="400"/>
      <point x="416" y="376"/>
      <point x="416" y="308" type="curve" smooth="yes"/>
      <point x="416" y="0" type="line"/>
      <point x="628" y="0" type="line"/>
      <point x="628" y="308" type="line" smooth="yes"/>
      <point x="628" y="480"/>
      <point x="536" y="564"/>
      <point x="376" y="564" type="curve" smooth="yes"/>
      <point x="315" y="564"/>
      <point x="273" y="554"/>
      <point x="235" y="538" type="curve"/>
      <point x="280" y="467" type="line"/>
      <point x="280" y="760" type="line"/>
      <point x="60" y="760" type="line"/>
      <point x="56" y="752" type="line"/>
      <point x="65" y="716"/>
      <point x="68" y="636"/>
      <point x="68" y="596" type="curve" smooth="yes"/>
    </contour>
  </outline>
</glyph>
<glyph name="k" format="2">
  <advance width="668"/>
  <unicode hex="006B"/>
  <note>
k
</note>
  <anchor x="334" y="0" name="bottom"/>
  <anchor x="334" y="760" name="top"/>
  <outline>
    <contour>
      <point x="280" y="0" type="line"/>
      <point x="280" y="760" type="line"/>
      <point x="60" y="760" type="line"/>
      <point x="56" y="752" type="line"/>
      <point x="65" y="716"/>
      <point x="68" y="636"/>
      <point x="68" y="596" type="curve" smooth="yes"/>
      <point x="68" y="0" type="line"/>
    </contour>
    <contour>
      <point x="240" y="288" type="line"/>
      <point x="432" y="0" type="line"/>
      <point x="672" y="0" type="line"/>
      <point x="672" y="12" type="line"/>
      <point x="652" y="28"/>
      <point x="616" y="64"/>
      <point x="592" y="98" type="curve" smooth="yes"/>
      <point x="397" y="369" type="line"/>
      <point x="396" y="232" type="line"/>
      <point x="575" y="435" type="line" smooth="yes"/>
      <point x="603" y="467"/>
      <point x="643" y="520"/>
      <point x="664" y="536" type="curve"/>
      <point x="664" y="548" type="line"/>
      <point x="444" y="548" type="line"/>
    </contour>
  </outline>
</glyph>
<glyph name="l" format="2">
  <advance width="348"/>
  <unicode hex="006C"/>
  <note>
l
</note>
  <anchor x="174" y="0" name="bottom"/>
  <anchor x="174" y="370" name="center"/>
  <anchor x="412" y="356" name="periodCAT"/>
  <anchor x="174" y="760" name="top"/>
  <anchor x="410" y="548" name="topright"/>
  <outline>
    <contour>
      <point x="68" y="0" type="line"/>
      <point x="280" y="0" type="line"/>
      <point x="280" y="760" type="line"/>
      <point x="60" y="760" type="line"/>
      <point x="56" y="752" type="line"/>
      <point x="65" y="716"/>
      <point x="68" y="636"/>
      <point x="68" y="596" type="curve" smooth="yes"/>
    </contour>
  </outline>
</glyph>
<glyph name="n" format="2">
  <advance width="692"/>
  <unicode hex="006E"/>
  <note>
n
</note>
  <anchor x="346" y="0" name="bottom"/>
  <anchor x="346" y="548" name="top"/>
  <outline>
    <contour>
      <point x="68" y="0" type="line"/>
      <point x="280" y="0" type="line"/>
      <point x="280" y="316" type="line" smooth="yes"/>
      <point x="280" y="372"/>
      <point x="274" y="404"/>
      <point x="264" y="425" type="curve"/>
      <point x="236" y="380" type="line"/>
      <point x="260" y="388"/>
      <point x="288" y="400"/>
      <point x="324" y="400" type="curve" smooth="yes"/>
      <point x="376" y="400"/>
      <point x="416" y="380"/>
      <point x="416" y="304" type="curve" smooth="yes"/>
      <point x="416" y="0" type="line"/>
      <point x="628" y="0" type="line"/>
      <point x="628" y="308" type="line" smooth="yes"/>
      <point x="628" y="516"/>
      <point x="480" y="564"/>
      <point x="338" y="564" type="curve" smooth="yes"/>
      <point x="228" y="564"/>
      <point x="132" y="536"/>
      <point x="60" y="504" type="curve"/>
      <point x="56" y="496" type="line"/>
      <point x="65" y="460"/>
      <point x="68" y="376"/>
      <point x="68" y="336" type="curve" smooth="yes"/>
    </contour>
  </outline>
</glyph>
<glyph name="o" format="2">
  <advance width="672"/>
  <unicode hex="006F"/>
  <note>
o
</note>
  <anchor x="336" y="0" name="bottom"/>
  <anchor x="336" y="274" name="center"/>
  <anchor x="437" y="0" name="ogonek"/>
  <anchor x="336" y="548" name="top"/>
  <anchor x="447" y="548" name="topright"/>
  <outline>
    <contour>
      <point x="40" y="276" type="curve" smooth="yes"/>
      <point x="40" y="76"/>
      <point x="164" y="-12"/>
      <point x="336" y="-12" type="curve" smooth="yes"/>
      <point x="508" y="-12"/>
      <point x="632" y="76"/>
      <point x="632" y="276" type="curve" smooth="yes"/>
      <point x="632" y="476"/>
      <point x="508" y="564"/>
      <point x="336" y="564" type="curve" smooth="yes"/>
      <point x="164" y="564"/>
      <point x="40" y="476"/>
    </contour>
    <contour>
      <point x="256" y="276" type="curve" smooth="yes"/>
      <point x="256" y="368"/>
      <point x="280" y="416"/>
      <point x="336" y="416" type="curve" smooth="yes"/>
      <point x="392" y="416"/>
      <point x="416" y="368"/>
      <point x="416" y="276" type="curve" smooth="yes"/>
      <point x="416" y="184"/>
      <point x="392" y="136"/>
      <point x="336" y="136" type="curve" smooth="yes"/>
      <point x="280" y="136"/>
      <point x="256" y="184"/>
    </contour>
  </outline>
</glyph>
<glyph name="p" format="2">
  <advance width="684"/>
  <unicode hex="0070"/>
  <note>
p
</note>
  <anchor x="342" y="0" name="bottom"/>
  <anchor x="342" y="548" name="top"/>
  <outline>
    <contour>
      <point x="68" y="-232" type="line"/>
      <point x="280" y="-232" type="line"/>
      <point x="280" y="336" type="line" smooth="yes"/>
      <point x="280" y="391"/>
      <point x="277" y="419"/>
      <point x="258" y="439" type="curve"/>
      <point x="246" y="389" type="line"/>
      <point x="248" y="397"/>
      <point x="284" y="412"/>
      <point x="320" y="412" type="curve" smooth="yes"/>
      <point x="400" y="412"/>
      <point x="428" y="352"/>
      <point x="428" y="276" type="curve" smooth="yes"/>
      <point x="428" y="196"/>
      <point x="400" y="136"/>
      <point x="312" y="136" type="curve" smooth="yes"/>
      <point x="296" y="136"/>
      <point x="280" y="138"/>
      <point x="268" y="142" type="curve"/>
      <point x="258" y="-4" type="line"/>
      <point x="272" y="-8"/>
      <point x="312" y="-12"/>
      <point x="348" y="-12" type="curve" smooth="yes"/>
      <point x="568" y="-12"/>
      <point x="644" y="136"/>
      <point x="644" y="276" type="curve" smooth="yes"/>
      <point x="644" y="500"/>
      <point x="480" y="564"/>
      <point x="328" y="564" type="curve" smooth="yes"/>
      <point x="228" y="564"/>
      <point x="147" y="540"/>
      <point x="60" y="504" type="curve"/>
      <point x="56" y="496" type="line"/>
      <point x="65" y="460"/>
      <point x="68" y="380"/>
      <point x="68" y="340" type="curve" smooth="yes"/>
    </contour>
  </outline>
</glyph>
<glyph name="r" format="2">
  <advance width="444"/>
  <unicode hex="0072"/>
  <note>
r
</note>
  <anchor x="174" y="0" name="bottom"/>
  <anchor x="222" y="548" name="top"/>
  <outline>
    <contour>
      <point x="68" y="0" type="line"/>
      <point x="280" y="0" type="line"/>
      <point x="280" y="316" type="line" smooth="yes"/>
      <point x="280" y="377"/>
      <point x="274" y="412"/>
      <point x="258" y="426" type="curve"/>
      <point x="231" y="382" type="line"/>
      <point x="255" y="397"/>
      <point x="290" y="404"/>
      <point x="336" y="404" type="curve" smooth="yes"/>
      <point x="364" y="404"/>
      <point x="392" y="400"/>
      <point x="416" y="392" type="curve"/>
      <point x="428" y="392" type="line"/>
      <point x="428" y="556" type="line"/>
      <point x="378" y="563"/>
      <point x="335" y="564"/>
      <point x="320" y="564" type="curve" smooth="yes"/>
      <point x="192" y="564"/>
      <point x="120" y="544"/>
      <point x="60" y="524" type="curve"/>
      <point x="56" y="516" type="line"/>
      <point x="65" y="480"/>
      <point x="68" y="396"/>
      <point x="68" y="356" type="curve" smooth="yes"/>
    </contour>
  </outline>
</glyph>
<glyph name="s" format="2">
  <advance width="568"/>
  <unicode hex="0073"/>
  <note>
s
</note>
  <anchor x="284" y="0" name="bottom"/>
  <anchor x="284" y="548" name="top"/>
  <outline>
    <contour>
      <point x="52" y="184" type="line"/>
      <point x="52" y="20" type="line"/>
      <point x="108" y="4"/>
      <point x="184" y="-8"/>
      <point x="244" y="-8" type="curve" smooth="yes"/>
      <point x="437" y="-8"/>
      <point x="536" y="52"/>
      <point x="536" y="180" type="curve" smooth="yes"/>
      <point x="536" y="288"/>
      <point x="460" y="327"/>
      <point x="364" y="344" type="curve" smooth="yes"/>
      <point x="320" y="352" type="line" smooth="yes"/>
      <point x="273" y="361"/>
      <point x="252" y="364"/>
      <point x="252" y="382" type="curve" smooth="yes"/>
      <point x="252" y="402"/>
      <point x="280" y="408"/>
      <point x="328" y="408" type="curve" smooth="yes"/>
      <point x="372" y="408"/>
      <point x="432" y="401"/>
      <point x="492" y="376" type="curve"/>
      <point x="500" y="376" type="line"/>
      <point x="500" y="540" type="line"/>
      <point x="440" y="556"/>
      <point x="396" y="560"/>
      <point x="332" y="560" type="curve" smooth="yes"/>
      <point x="136" y="560"/>
      <point x="48" y="484"/>
      <point x="48" y="372" type="curve" smooth="yes"/>
      <point x="48" y="272"/>
      <point x="114" y="230"/>
      <point x="212" y="212" type="curve" smooth="yes"/>
      <point x="256" y="204" type="line" smooth="yes"/>
      <point x="314" y="193"/>
      <point x="328" y="191"/>
      <point x="328" y="170" type="curve" smooth="yes"/>
      <point x="328" y="150"/>
      <point x="316" y="144"/>
      <point x="256" y="144" type="curve" smooth="yes"/>
      <point x="184" y="144"/>
      <point x="108" y="164"/>
      <point x="60" y="184" type="curve"/>
    </contour>
  </outline>
</glyph>
<glyph name="w" format="2">
  <advance width="964"/>
  <unicode hex="0077"/>
  <note>
w
</note>
  <anchor x="482" y="0" name="bottom"/>
  <anchor x="482" y="548" name="top"/>
  <outline>
    <contour>
      <point x="164" y="0" type="line"/>
      <point x="396" y="0" type="line"/>
      <point x="499" y="354" type="line"/>
      <point x="450" y="354" type="line"/>
      <point x="556" y="0" type="line"/>
      <point x="792" y="0" type="line"/>
      <point x="960" y="536" type="line"/>
      <point x="960" y="548" type="line"/>
      <point x="732" y="548" type="line"/>
      <point x="638" y="125" type="line"/>
      <point x="682" y="126" type="line"/>
      <point x="556" y="548" type="line"/>
      <point x="404" y="548" type="line"/>
      <point x="282" y="129" type="line"/>
      <point x="325" y="128" type="line"/>
      <point x="232" y="548" type="line"/>
      <point x="4" y="548" type="line"/>
      <point x="4" y="536" type="line"/>
    </contour>
  </outline>
</glyph>
<glyph name="x" format="2">
  <advance width="660"/>
  <unicode hex="0078"/>
  <note>
x
</note>
  <anchor x="330" y="0" name="bottom"/>
  <anchor x="330" y="548" name="top"/>
  <outline>
    <contour>
      <point x="416" y="0" type="line"/>
      <point x="652" y="0" type="line"/>
      <point x="652" y="12" type="line"/>
      <point x="380" y="352" type="line"/>
      <point x="244" y="548" type="line"/>
      <point x="8" y="548" type="line"/>
      <point x="8" y="536" type="line"/>
      <point x="280" y="196" type="line"/>
    </contour>
    <contour>
      <point x="8" y="0" type="line"/>
      <point x="236" y="0" type="line"/>
      <point x="376" y="204" type="line"/>
      <point x="652" y="536" type="line"/>
      <point x="652" y="548" type="line"/>
      <point x="424" y="548" type="line"/>
      <point x="284" y="344" type="line"/>
      <point x="8" y="12" type="line"/>
    </contour>
  </outline>
</glyph>
<glyph name="braceright" format="2">
  <advance width="488"/>
  <unicode hex="007D"/>
  <note>
braceright
</note>
  <outline>
    <contour>
      <point x="96" y="56" type="curve" smooth="yes"/>
      <point x="24" y="56" type="line"/>
      <point x="24" y="-88" type="line"/>
      <point x="140" y="-88" type="line" smooth="yes"/>
      <point x="268" y="-88"/>
      <point x="352" y="-44"/>
      <point x="352" y="104" type="curve" smooth="yes"/>
      <point x="352" y="184" type="line" smooth="yes"/>
      <point x="352" y="224"/>
      <point x="372" y="256"/>
      <point x="420" y="256" type="curve" smooth="yes"/>
      <point x="468" y="256" type="line"/>
      <point x="468" y="416" type="line"/>
      <point x="420" y="416" type="line" smooth="yes"/>
      <point x="372" y="416"/>
      <point x="352" y="448"/>
      <point x="352" y="488" type="curve" smooth="yes"/>
      <point x="352" y="568" type="line" smooth="yes"/>
      <point x="352" y="716"/>
      <point x="268" y="760"/>
      <point x="140" y="760" type="curve" smooth="yes"/>
      <point x="24" y="760" type="line"/>
      <point x="24" y="616" type="line"/>
      <point x="96" y="616" type="line" smooth="yes"/>
      <point x="140" y="616"/>
      <point x="160" y="596"/>
      <point x="160" y="548" type="curve" smooth="yes"/>
      <point x="160" y="468" type="line" smooth="yes"/>
      <point x="160" y="396"/>
      <point x="204" y="344"/>
      <point x="276" y="337" type="curve"/>
      <point x="276" y="335" type="line"/>
      <point x="204" y="328"/>
      <point x="160" y="276"/>
      <point x="160" y="204" type="curve" smooth="yes"/>
      <point x="160" y="124" type="line" smooth="yes"/>
      <point x="160" y="76"/>
      <point x="140" y="56"/>
    </contour>
  </outline>
</glyph>
<glyph name="asciitilde" format="2">
  <advance width="616"/>
  <unicode hex="007E"/>
  <note>
asciitilde
</note>
  <outline>
    <contour>
      <point x="555" y="426" type="curve"/>
      <point x="432" y="426" type="line"/>
      <point x="432" y="378"/>
      <point x="428" y="340"/>
      <point x="398" y="340" type="curve" smooth="yes"/>
      <point x="369" y="340"/>
      <point x="353" y="364"/>
      <point x="328" y="387" type="curve" smooth="yes"/>
      <point x="306" y="407"/>
      <point x="276" y="426"/>
      <point x="223" y="426" type="curve" smooth="yes"/>
      <point x="114" y="426"/>
      <point x="63" y="340"/>
      <point x="63" y="210" type="curve"/>
      <point x="186" y="210" type="line"/>
      <point x="186" y="258"/>
      <point x="190" y="296"/>
      <point x="220" y="296" type="curve" smooth="yes"/>
      <point x="249" y="296"/>
      <point x="265" y="272"/>
      <point x="290" y="249" type="curve" smooth="yes"/>
      <point x="312" y="229"/>
      <point x="342" y="210"/>
      <point x="395" y="210" type="curve" smooth="yes"/>
      <point x="504" y="210"/>
      <point x="555" y="296"/>
    </contour>
  </outline>
</glyph>
<glyph name="currency" format="2">
  <advance width="616"/>
  <unicode hex="00A4"/>
  <note>
currency
</note>
  <outline>
    <contour>
      <point x="82" y="199" type="line"/>
      <point x="147" y="134" type="line"/>
      <point x="198" y="186" type="line"/>
      <point x="228" y="169"/>
      <point x="263" y="160"/>
      <point x="304" y="160" type="curve" smooth="yes"/>
      <point x="347" y="160"/>
      <point x="384" y="170"/>
      <point x="414" y="189" type="curve"/>
      <point x="469" y="134" type="line"/>
      <point x="533" y="199" type="line"/>
      <point x="477" y="254" type="line"/>
      <point x="493" y="284"/>
      <point x="503" y="321"/>
      <point x="503" y="360" type="curve" smooth="yes"/>
      <point x="503" y="399"/>
      <point x="493" y="434"/>
      <point x="477" y="464" type="curve"/>
      <point x="533" y="521" type="line"/>
      <point x="469" y="585" type="line"/>
      <point x="414" y="531" type="line"/>
      <point x="384" y="548"/>
      <point x="347" y="559"/>
      <point x="304" y="559" type="curve" smooth="yes"/>
      <point x="263" y="559"/>
      <point x="228" y="549"/>
      <point x="198" y="533" type="curve"/>
      <point x="147" y="585" type="line"/>
      <point x="82" y="521" type="line"/>
      <point x="133" y="469" type="line"/>
      <point x="114" y="438"/>
      <point x="105" y="401"/>
      <point x="105" y="360" type="curve" smooth="yes"/>
      <point x="105" y="319"/>
      <point x="114" y="281"/>
      <point x="133" y="249" type="curve"/>
    </contour>
    <contour>
      <point x="304" y="254" type="curve" smooth="yes"/>
      <point x="245" y="254"/>
      <point x="210" y="297"/>
      <point x="210" y="360" type="curve" smooth="yes"/>
      <point x="210" y="422"/>
      <point x="245" y="465"/>
      <point x="304" y="465" type="curve" smooth="yes"/>
      <point x="362" y="465"/>
      <point x="398" y="422"/>
      <point x="398" y="360" type="curve" smooth="yes"/>
      <point x="398" y="297"/>
      <point x="362" y="254"/>
    </contour>
  </outline>
</glyph>
<glyph name="yen" format="2">
  <advance width="616"/>
  <unicode hex="00A5"/>
  <note>
yen
</note>
  <outline>
    <contour>
      <point x="76" y="136" type="line"/>
      <point x="536" y="136" type="line"/>
      <point x="536" y="252" type="line"/>
      <point x="76" y="252" type="line"/>
    </contour>
    <contour>
      <point x="76" y="308" type="line"/>
      <point x="536" y="308" type="line"/>
      <point x="536" y="424" type="line"/>
      <point x="76" y="424" type="line"/>
    </contour>
    <contour>
      <point x="620" y="720" type="line"/>
      <point x="424" y="720" type="line"/>
      <point x="276" y="414" type="line"/>
      <point x="353" y="415" type="line"/>
      <point x="200" y="720" type="line"/>
      <point x="0" y="720" type="line"/>
      <point x="0" y="708" type="line"/>
      <point x="251" y="274" type="line"/>
      <point x="208" y="435" type="line"/>
      <point x="208" y="0" type="line"/>
      <point x="404" y="0" type="line"/>
      <point x="404" y="436" type="line"/>
      <point x="359" y="276" type="line"/>
      <point x="620" y="708" type="line"/>
    </contour>
  </outline>
</glyph>
<glyph name="section" format="2">
  <advance width="616"/>
  <unicode hex="00A7"/>
  <note>
section
</note>
  <outline>
    <contour>
      <point x="268" y="68" type="line"/>
      <point x="428" y="56" type="line" name="hr00"/>
      <point x="504" y="104"/>
      <point x="576" y="160"/>
      <point x="576" y="256" type="curve" smooth="yes"/>
      <point x="576" y="372"/>
      <point x="497" y="408"/>
      <point x="400" y="440" type="curve" smooth="yes"/>
      <point x="352" y="456" type="line" smooth="yes"/>
      <point x="308" y="471"/>
      <point x="280" y="488"/>
      <point x="280" y="528" type="curve" smooth="yes"/>
      <point x="280" y="564"/>
      <point x="320" y="584"/>
      <point x="380" y="584" type="curve" smooth="yes"/>
      <point x="436" y="584"/>
      <point x="476" y="572"/>
      <point x="504" y="556" type="curve"/>
      <point x="516" y="556" type="line"/>
      <point x="516" y="712" type="line"/>
      <point x="480" y="724"/>
      <point x="432" y="732"/>
      <point x="376" y="732" type="curve" smooth="yes"/>
      <point x="192" y="732"/>
      <point x="80" y="660"/>
      <point x="80" y="524" type="curve" smooth="yes"/>
      <point x="80" y="408"/>
      <point x="161" y="354"/>
      <point x="276" y="316" type="curve" smooth="yes"/>
      <point x="300" y="308" type="line" smooth="yes"/>
      <point x="370" y="285"/>
      <point x="388" y="264"/>
      <point x="388" y="228" type="curve" smooth="yes"/>
      <point x="388" y="172"/>
      <point x="320" y="144"/>
      <point x="268" y="124" type="curve"/>
    </contour>
    <contour>
      <point x="240" y="-232" type="curve" smooth="yes"/>
      <point x="424" y="-232"/>
      <point x="536" y="-160"/>
      <point x="536" y="-24" type="curve" smooth="yes"/>
      <point x="536" y="92"/>
      <point x="455" y="146"/>
      <point x="340" y="184" type="curve" smooth="yes"/>
      <point x="316" y="192" type="line" smooth="yes"/>
      <point x="246" y="215"/>
      <point x="228" y="236"/>
      <point x="228" y="272" type="curve" smooth="yes"/>
      <point x="228" y="328"/>
      <point x="296" y="356"/>
      <point x="348" y="376" type="curve"/>
      <point x="348" y="432" type="line"/>
      <point x="188" y="444" type="line"/>
      <point x="112" y="396"/>
      <point x="40" y="340"/>
      <point x="40" y="244" type="curve" smooth="yes"/>
      <point x="40" y="128"/>
      <point x="119" y="92"/>
      <point x="216" y="60" type="curve" smooth="yes"/>
      <point x="264" y="44" type="line" smooth="yes"/>
      <point x="308" y="29"/>
      <point x="336" y="12"/>
      <point x="336" y="-28" type="curve" smooth="yes"/>
      <point x="336" y="-64"/>
      <point x="296" y="-84"/>
      <point x="236" y="-84" type="curve" smooth="yes"/>
      <point x="180" y="-84"/>
      <point x="140" y="-72"/>
      <point x="112" y="-56" type="curve"/>
      <point x="100" y="-56" type="line"/>
      <point x="100" y="-212" type="line"/>
      <point x="136" y="-224"/>
      <point x="184" y="-232"/>
    </contour>
  </outline>
</glyph>
<glyph name="copyright" format="2">
  <advance width="872"/>
  <unicode hex="00A9"/>
  <note>
copyright
</note>
  <outline>
    <contour>
      <point x="32" y="360" type="curve" smooth="yes"/>
      <point x="32" y="112"/>
      <point x="188" y="-28"/>
      <point x="436" y="-28" type="curve" smooth="yes"/>
      <point x="684" y="-28"/>
      <point x="840" y="112"/>
      <point x="840" y="360" type="curve" smooth="yes"/>
      <point x="840" y="608"/>
      <point x="684" y="748"/>
      <point x="436" y="748" type="curve" smooth="yes"/>
      <point x="188" y="748"/>
      <point x="32" y="608"/>
    </contour>
    <contour>
      <point x="132" y="360" type="curve" smooth="yes"/>
      <point x="132" y="568"/>
      <point x="252" y="660"/>
      <point x="436" y="660" type="curve" smooth="yes"/>
      <point x="620" y="660"/>
      <point x="740" y="568"/>
      <point x="740" y="360" type="curve" smooth="yes"/>
      <point x="740" y="152"/>
      <point x="620" y="60"/>
      <point x="436" y="60" type="curve" smooth="yes"/>
      <point x="252" y="60"/>
      <point x="132" y="152"/>
    </contour>
    <contour>
      <point x="232" y="360" type="curve" smooth="yes"/>
      <point x="232" y="235"/>
      <point x="313" y="156"/>
      <point x="488" y="156" type="curve" smooth="yes"/>
      <point x="514" y="156"/>
      <point x="552" y="158"/>
      <point x="576" y="164" type="curve"/>
      <point x="576" y="272" type="line"/>
      <point x="568" y="272" type="line"/>
      <point x="551" y="266"/>
      <point x="520" y="260"/>
      <point x="496" y="260" type="curve" smooth="yes"/>
      <point x="397" y="260"/>
      <point x="372" y="298"/>
      <point x="372" y="360" type="curve" smooth="yes"/>
      <point x="372" y="416"/>
      <point x="404" y="460"/>
      <point x="496" y="460" type="curve" smooth="yes"/>
      <point x="520" y="460"/>
      <point x="551" y="454"/>
      <point x="568" y="448" type="curve"/>
      <point x="576" y="448" type="line"/>
      <point x="576" y="556" type="line"/>
      <point x="552" y="562"/>
      <point x="514" y="564"/>
      <point x="488" y="564" type="curve" smooth="yes"/>
      <point x="320" y="564"/>
      <point x="232" y="484"/>
    </contour>
  </outline>
</glyph>
<glyph name="ordfeminine" format="2">
  <advance width="463"/>
  <unicode hex="00AA"/>
  <note>
ordfeminine
</note>
  <outline>
    <contour>
      <point x="238" y="307" type="curve" smooth="yes"/>
      <point x="311" y="307"/>
      <point x="375" y="318"/>
      <point x="421" y="329" type="curve"/>
      <point x="424" y="335" type="line"/>
      <point x="417" y="361"/>
      <point x="415" y="419"/>
      <point x="415" y="452" type="curve" smooth="yes"/>
      <point x="415" y="544" type="line" smooth="yes"/>
      <point x="415" y="688"/>
      <point x="328" y="728"/>
      <point x="193" y="728" type="curve" smooth="yes"/>
      <point x="139" y="728"/>
      <point x="95" y="722"/>
      <point x="60" y="715" type="curve"/>
      <point x="60" y="593" type="line"/>
      <point x="70" y="593" type="line"/>
      <point x="93" y="603"/>
      <point x="130" y="609"/>
      <point x="175" y="609" type="curve" smooth="yes"/>
      <point x="227" y="609"/>
      <point x="255" y="599"/>
      <point x="255" y="558" type="curve"/>
      <point x="242" y="559"/>
      <point x="224" y="561"/>
      <point x="205" y="561" type="curve" smooth="yes"/>
      <point x="106" y="561"/>
      <point x="29" y="527"/>
      <point x="29" y="435" type="curve" smooth="yes"/>
      <point x="29" y="338"/>
      <point x="101" y="307"/>
    </contour>
    <contour>
      <point x="227" y="409" type="curve" smooth="yes"/>
      <point x="197" y="409"/>
      <point x="179" y="416"/>
      <point x="179" y="439" type="curve" smooth="yes"/>
      <point x="179" y="461"/>
      <point x="193" y="472"/>
      <point x="229" y="472" type="curve" smooth="yes"/>
      <point x="242" y="472"/>
      <point x="250" y="472"/>
      <point x="255" y="471" type="curve"/>
      <point x="256" y="447"/>
      <point x="260" y="427"/>
      <point x="264" y="413" type="curve"/>
      <point x="253" y="410"/>
      <point x="239" y="409"/>
    </contour>
    <contour>
      <point x="42" y="254" type="line"/>
      <point x="42" y="140" type="line"/>
      <point x="418" y="140" type="line"/>
      <point x="418" y="254" type="line"/>
    </contour>
  </outline>
</glyph>
<glyph name="guillemetleft" format="2">
  <advance width="668"/>
  <unicode hex="00AB"/>
  <note>
guillemotleft
</note>
  <outline>
    <contour>
      <point x="604" y="36" type="line"/>
      <point x="612" y="36" type="line"/>
      <point x="612" y="224" type="line"/>
      <point x="504" y="308" type="line"/>
      <point x="612" y="392" type="line"/>
      <point x="612" y="580" type="line"/>
      <point x="604" y="580" type="line"/>
      <point x="352" y="360" type="line"/>
      <point x="352" y="256" type="line"/>
    </contour>
    <contour>
      <point x="288" y="36" type="line"/>
      <point x="296" y="36" type="line"/>
      <point x="296" y="224" type="line"/>
      <point x="188" y="308" type="line"/>
      <point x="296" y="392" type="line"/>
      <point x="296" y="580" type="line"/>
      <point x="288" y="580" type="line"/>
      <point x="36" y="360" type="line"/>
      <point x="36" y="256" type="line"/>
    </contour>
  </outline>
</glyph>
<glyph name="registered" format="2">
  <advance width="872"/>
  <unicode hex="00AE"/>
  <note>
registered
</note>
  <outline>
    <contour>
      <point x="436" y="-28" type="curve" smooth="yes"/>
      <point x="684" y="-28"/>
      <point x="840" y="112"/>
      <point x="840" y="360" type="curve" smooth="yes"/>
      <point x="840" y="608"/>
      <point x="684" y="748"/>
      <point x="436" y="748" type="curve" smooth="yes"/>
      <point x="188" y="748"/>
      <point x="32" y="608"/>
      <point x="32" y="360" type="curve" smooth="yes"/>
      <point x="32" y="112"/>
      <point x="188" y="-28"/>
    </contour>
    <contour>
      <point x="252" y="168" type="line"/>
      <point x="388" y="168" type="line"/>
      <point x="388" y="560" type="line"/>
      <point x="252" y="560" type="line"/>
      <point x="252" y="472" type="line"/>
    </contour>
    <contour>
      <point x="492" y="168" type="line"/>
      <point x="640" y="168" type="line"/>
      <point x="640" y="176" type="line"/>
      <point x="508" y="344" type="line"/>
      <point x="384" y="324" type="line"/>
    </contour>
    <contour>
      <point x="436" y="60" type="curve" smooth="yes"/>
      <point x="252" y="60"/>
      <point x="132" y="152"/>
      <point x="132" y="360" type="curve" smooth="yes"/>
      <point x="132" y="568"/>
      <point x="252" y="660"/>
      <point x="436" y="660" type="curve" smooth="yes"/>
      <point x="620" y="660"/>
      <point x="740" y="568"/>
      <point x="740" y="360" type="curve" smooth="yes"/>
      <point x="740" y="152"/>
      <point x="620" y="60"/>
    </contour>
    <contour>
      <point x="336" y="248" type="line"/>
      <point x="412" y="248" type="line" smooth="yes"/>
      <point x="540" y="248"/>
      <point x="620" y="319"/>
      <point x="620" y="416" type="curve" smooth="yes"/>
      <point x="620" y="508"/>
      <point x="568" y="560"/>
      <point x="436" y="560" type="curve" smooth="yes"/>
      <point x="336" y="560" type="line"/>
      <point x="336" y="460" type="line"/>
      <point x="424" y="460" type="line" smooth="yes"/>
      <point x="461" y="460"/>
      <point x="484" y="448"/>
      <point x="484" y="415" type="curve" smooth="yes"/>
      <point x="484" y="376"/>
      <point x="468" y="344"/>
      <point x="408" y="344" type="curve" smooth="yes"/>
      <point x="336" y="344" type="line"/>
    </contour>
  </outline>
</glyph>
<glyph name="plusminus" format="2">
  <advance width="616"/>
  <unicode hex="00B1"/>
  <note>
plusminus
</note>
  <outline>
    <contour>
      <point x="64" y="384" type="line"/>
      <point x="552" y="384" type="line"/>
      <point x="552" y="512" type="line"/>
      <point x="64" y="512" type="line"/>
    </contour>
    <contour>
      <point x="64" y="0" type="line"/>
      <point x="552" y="0" type="line"/>
      <point x="552" y="128" type="line"/>
      <point x="64" y="128" type="line"/>
    </contour>
    <contour>
      <point x="244" y="204" type="line"/>
      <point x="372" y="204" type="line"/>
      <point x="372" y="692" type="line"/>
      <point x="244" y="692" type="line"/>
    </contour>
  </outline>
</glyph>
<glyph name="periodcentered" format="2">
  <advance width="284"/>
  <unicode hex="00B7"/>
  <note>
periodcentered
</note>
  <outline>
    <contour>
      <point x="142" y="258" type="curve" smooth="yes"/>
      <point x="208" y="258"/>
      <point x="252" y="302"/>
      <point x="252" y="368" type="curve" smooth="yes"/>
      <point x="252" y="434"/>
      <point x="208" y="478"/>
      <point x="142" y="478" type="curve" smooth="yes"/>
      <point x="76" y="478"/>
      <point x="32" y="434"/>
      <point x="32" y="368" type="curve" smooth="yes"/>
      <point x="32" y="302"/>
      <point x="76" y="258"/>
    </contour>
  </outline>
</glyph>
<glyph name="guillemetright" format="2">
  <advance width="668"/>
  <unicode hex="00BB"/>
  <note>
guillemotright
</note>
  <outline>
    <contour>
      <point x="372" y="36" type="line"/>
      <point x="380" y="36" type="line"/>
      <point x="632" y="256" type="line"/>
      <point x="632" y="360" type="line"/>
      <point x="380" y="580" type="line"/>
      <point x="372" y="580" type="line"/>
      <point x="372" y="392" type="line"/>
      <point x="480" y="308" type="line"/>
      <point x="372" y="224" type="line"/>
    </contour>
    <contour>
      <point x="56" y="36" type="line"/>
      <point x="64" y="36" type="line"/>
      <point x="316" y="256" type="line"/>
      <point x="316" y="360" type="line"/>
      <point x="64" y="580" type="line"/>
      <point x="56" y="580" type="line"/>
      <point x="56" y="392" type="line"/>
      <point x="164" y="308" type="line"/>
      <point x="56" y="224" type="line"/>
    </contour>
  </outline>
</glyph>
<glyph name="multiply" format="2">
  <advance width="616"/>
  <unicode hex="00D7"/>
  <note>
multiply
</note>
  <outline>
    <contour>
      <point x="444" y="90" type="line"/>
      <point x="534" y="180" type="line"/>
      <point x="172" y="542" type="line"/>
      <point x="82" y="452" type="line"/>
    </contour>
    <contour>
      <point x="172" y="90" type="line"/>
      <point x="534" y="452" type="line"/>
      <point x="444" y="542" type="line"/>
      <point x="82" y="180" type="line"/>
    </contour>
  </outline>
</glyph>
<glyph name="germandbls" format="2">
  <advance width="720"/>
  <unicode hex="00DF"/>
  <note>
germandbls
</note>
  <outline>
    <contour>
      <point x="476" y="-8" type="curve" smooth="yes"/>
      <point x="596" y="-8"/>
      <point x="696" y="56"/>
      <point x="696" y="175" type="curve" smooth="yes"/>
      <point x="696" y="233"/>
      <point x="673" y="279"/>
      <point x="636" y="316" type="curve" smooth="yes"/>
      <point x="628" y="324" type="line" smooth="yes"/>
      <point x="602" y="350"/>
      <point x="584" y="364"/>
      <point x="584" y="392" type="curve" smooth="yes"/>
      <point x="584" y="448"/>
      <point x="636" y="464"/>
      <point x="636" y="572" type="curve" smooth="yes"/>
      <point x="636" y="708"/>
      <point x="532" y="776"/>
      <point x="380" y="776" type="curve" smooth="yes"/>
      <point x="209" y="776"/>
      <point x="100" y="712"/>
      <point x="100" y="508" type="curve" smooth="yes"/>
      <point x="100" y="0" type="line"/>
      <point x="312" y="0" type="line"/>
      <point x="312" y="532" type="line" smooth="yes"/>
      <point x="312" y="584"/>
      <point x="324" y="624"/>
      <point x="376" y="624" type="curve" smooth="yes"/>
      <point x="424" y="624"/>
      <point x="440" y="588"/>
      <point x="440" y="556" type="curve" smooth="yes"/>
      <point x="440" y="484"/>
      <point x="392" y="468"/>
      <point x="392" y="384" type="curve" smooth="yes"/>
      <point x="392" y="320"/>
      <point x="427" y="289"/>
      <point x="460" y="256" type="curve" smooth="yes"/>
      <point x="468" y="248" type="line" smooth="yes"/>
      <point x="485" y="231"/>
      <point x="500" y="220"/>
      <point x="500" y="196" type="curve" smooth="yes"/>
      <point x="500" y="172"/>
      <point x="484" y="148"/>
      <point x="444" y="148" type="curve" smooth="yes"/>
      <point x="424" y="148"/>
      <point x="404" y="152"/>
      <point x="384" y="160" type="curve"/>
      <point x="376" y="160" type="line"/>
      <point x="376" y="4" type="line"/>
      <point x="410" y="-5"/>
      <point x="428" y="-8"/>
    </contour>
    <contour>
      <point x="8" y="388" type="line"/>
      <point x="180" y="388" type="line"/>
      <point x="180" y="548" type="line"/>
      <point x="8" y="548" type="line"/>
    </contour>
  </outline>
</glyph>
<glyph name="ae" format="2">
  <advance width="940"/>
  <unicode hex="00E6"/>
  <note>
ae
</note>
  <anchor x="470" y="0" name="bottom"/>
  <anchor x="470" y="548" name="top"/>
  <outline>
    <contour>
      <point x="698" y="-12" type="curve" smooth="yes"/>
      <point x="775" y="-12"/>
      <point x="820" y="-4"/>
      <point x="864" y="12" type="curve"/>
      <point x="864" y="172" type="line"/>
      <point x="852" y="172" type="line"/>
      <point x="824" y="156"/>
      <point x="768" y="144"/>
      <point x="708" y="144" type="curve" smooth="yes"/>
      <point x="596" y="144"/>
      <point x="556" y="184"/>
      <point x="556" y="256" type="curve" smooth="yes"/>
      <point x="556" y="302" type="line" smooth="yes"/>
      <point x="556" y="374"/>
      <point x="576" y="424"/>
      <point x="632" y="424" type="curve" smooth="yes"/>
      <point x="683" y="424"/>
      <point x="704" y="392"/>
      <point x="704" y="340" type="curve" smooth="yes"/>
      <point x="704" y="332" type="line"/>
      <point x="452" y="332" type="line"/>
      <point x="452" y="220" type="line"/>
      <point x="902" y="220" type="line"/>
      <point x="904" y="260" type="line" smooth="yes"/>
      <point x="913" y="432"/>
      <point x="848" y="564"/>
      <point x="656" y="564" type="curve" smooth="yes"/>
      <point x="477" y="564"/>
      <point x="364" y="460"/>
      <point x="364" y="276" type="curve" smooth="yes"/>
      <point x="364" y="56"/>
      <point x="502" y="-12"/>
    </contour>
    <contour>
      <point x="304" y="-12" type="curve" smooth="yes"/>
      <point x="404" y="-12"/>
      <point x="480" y="16"/>
      <point x="540" y="44" type="curve"/>
      <point x="464" y="140" type="line"/>
      <point x="404" y="140" type="line"/>
      <point x="380" y="128"/>
      <point x="348" y="120"/>
      <point x="304" y="120" type="curve" smooth="yes"/>
      <point x="256" y="120"/>
      <point x="228" y="132"/>
      <point x="228" y="168" type="curve" smooth="yes"/>
      <point x="228" y="204"/>
      <point x="252" y="220"/>
      <point x="308" y="220" type="curve" smooth="yes"/>
      <point x="348" y="220"/>
      <point x="360" y="212"/>
      <point x="372" y="208" type="curve"/>
      <point x="436" y="208" type="line"/>
      <point x="436" y="328" type="line"/>
      <point x="372" y="328" type="line" smooth="yes"/>
      <point x="368" y="328"/>
      <point x="323" y="336"/>
      <point x="276" y="336" type="curve" smooth="yes"/>
      <point x="140" y="336"/>
      <point x="36" y="288"/>
      <point x="36" y="164" type="curve" smooth="yes"/>
      <point x="36" y="32"/>
      <point x="132" y="-12"/>
    </contour>
    <contour>
      <point x="362" y="232" type="line"/>
      <point x="548" y="232" type="line"/>
      <point x="548" y="316" type="line" smooth="yes"/>
      <point x="548" y="484"/>
      <point x="447" y="564"/>
      <point x="270" y="564" type="curve" smooth="yes"/>
      <point x="198" y="564"/>
      <point x="138" y="554"/>
      <point x="90" y="540" type="curve"/>
      <point x="90" y="384" type="line"/>
      <point x="102" y="384" type="line"/>
      <point x="134" y="398"/>
      <point x="186" y="412"/>
      <point x="246" y="412" type="curve" smooth="yes"/>
      <point x="322" y="412"/>
      <point x="362" y="396"/>
      <point x="362" y="332" type="curve" smooth="yes"/>
    </contour>
  </outline>
</glyph>
<glyph name="thorn" format="2">
  <advance width="684"/>
  <unicode hex="00FE"/>
  <note>
thorn
</note>
  <outline>
    <contour>
      <point x="348" y="-12" type="curve" smooth="yes"/>
      <point x="568" y="-12"/>
      <point x="644" y="136"/>
      <point x="644" y="276" type="curve" smooth="yes"/>
      <point x="644" y="480"/>
      <point x="500" y="564"/>
      <point x="364" y="564" type="curve" smooth="yes"/>
      <point x="264" y="564"/>
      <point x="188" y="528"/>
      <point x="148" y="500" type="curve"/>
      <point x="192" y="392" type="line"/>
      <point x="244" y="392" type="line"/>
      <point x="256" y="400"/>
      <point x="288" y="412"/>
      <point x="320" y="412" type="curve" smooth="yes"/>
      <point x="400" y="412"/>
      <point x="428" y="352"/>
      <point x="428" y="276" type="curve" smooth="yes"/>
      <point x="428" y="196"/>
      <point x="400" y="136"/>
      <point x="312" y="136" type="curve" smooth="yes"/>
      <point x="296" y="136"/>
      <point x="283" y="139"/>
      <point x="276" y="140" type="curve"/>
      <point x="192" y="140" type="line"/>
      <point x="192" y="-4" type="line"/>
      <point x="252" y="-4" type="line"/>
      <point x="256" y="-5"/>
      <point x="304" y="-12"/>
    </contour>
    <contour>
      <point x="68" y="-232" type="line"/>
      <point x="280" y="-232" type="line"/>
      <point x="280" y="760" type="line"/>
      <point x="60" y="760" type="line"/>
      <point x="56" y="752" type="line"/>
      <point x="65" y="716"/>
      <point x="68" y="636"/>
      <point x="68" y="596" type="curve" smooth="yes"/>
    </contour>
  </outline>
</glyph>
<glyph name="idotless" format="2">
  <advance width="348"/>
  <unicode hex="0131"/>
  <note>
dotlessi
</note>
  <anchor x="174" y="0" name="bottom"/>
  <anchor x="280" y="0" name="ogonek"/>
  <anchor x="174" y="548" name="top"/>
  <outline>
    <contour>
      <point x="68" y="0" type="line"/>
      <point x="280" y="0" type="line"/>
      <point x="280" y="548" type="line"/>
      <point x="60" y="548" type="line"/>
      <point x="56" y="540" type="line"/>
      <point x="65" y="504"/>
      <point x="68" y="424"/>
      <point x="68" y="384" type="curve" smooth="yes"/>
    </contour>
  </outline>
</glyph>
<glyph name="ij" format="2">
  <advance width="692"/>
  <unicode hex="0133"/>
  <note>
ij
</note>
  <anchor x="174" y="548" name="_top"/>
  <anchor x="174" y="0" name="bottom"/>
  <anchor x="280" y="0" name="ogonek"/>
  <anchor x="174" y="548" name="top"/>
  <outline>
    <contour>
      <point x="68" y="0" type="line"/>
      <point x="280" y="0" type="line"/>
      <point x="280" y="548" type="line"/>
      <point x="60" y="548" type="line"/>
      <point x="56" y="540" type="line"/>
      <point x="65" y="504"/>
      <point x="68" y="424"/>
      <point x="68" y="384" type="curve" smooth="yes"/>
    </contour>
    <contour>
      <point x="174" y="620" type="curve" smooth="yes"/>
      <point x="238" y="620"/>
      <point x="282" y="656"/>
      <point x="282" y="724" type="curve" smooth="yes"/>
      <point x="282" y="792"/>
      <point x="238" y="828"/>
      <point x="174" y="828" type="curve" smooth="yes"/>
      <point x="110" y="828"/>
      <point x="66" y="792"/>
      <point x="66" y="724" type="curve" smooth="yes"/>
      <point x="66" y="656"/>
      <point x="110" y="620"/>
    </contour>
    <contour>
      <point x="363" y="-240" type="curve" smooth="yes"/>
      <point x="515" y="-240"/>
      <point x="627" y="-168"/>
      <point x="627" y="20" type="curve" smooth="yes"/>
      <point x="627" y="548" type="line"/>
      <point x="407" y="548" type="line"/>
      <point x="403" y="540" type="line"/>
      <point x="412" y="504"/>
      <point x="415" y="424"/>
      <point x="415" y="384" type="curve" smooth="yes"/>
      <point x="415" y="6" type="line" smooth="yes"/>
      <point x="415" y="-52"/>
      <point x="387" y="-76"/>
      <point x="331" y="-76" type="curve" smooth="yes"/>
      <point x="300" y="-76"/>
      <point x="287" y="-72"/>
      <point x="267" y="-64" type="curve"/>
      <point x="255" y="-64" type="line"/>
      <point x="255" y="-228" type="line"/>
      <point x="283" y="-236"/>
      <point x="319" y="-240"/>
    </contour>
    <contour>
      <point x="519" y="620" type="curve" smooth="yes"/>
      <point x="583" y="620"/>
      <point x="627" y="656"/>
      <point x="627" y="724" type="curve" smooth="yes"/>
      <point x="627" y="792"/>
      <point x="583" y="828"/>
      <point x="519" y="828" type="curve" smooth="yes"/>
      <point x="455" y="828"/>
      <point x="411" y="792"/>
      <point x="411" y="724" type="curve" smooth="yes"/>
      <point x="411" y="656"/>
      <point x="455" y="620"/>
    </contour>
  </outline>
</glyph>
<glyph name="kgreenlandic" format="2">
  <advance width="656"/>
  <unicode hex="0138"/>
  <outline>
    <contour>
      <point x="420" y="0" type="line"/>
      <point x="660" y="0" type="line"/>
      <point x="660" y="12" type="line"/>
      <point x="640" y="28"/>
      <point x="604" y="65"/>
      <point x="580" y="98" type="curve" smooth="yes"/>
      <point x="389" y="369" type="line"/>
      <point x="388" y="232" type="line"/>
      <point x="555" y="435" type="line" smooth="yes"/>
      <point x="582" y="467"/>
      <point x="631" y="520"/>
      <point x="652" y="536" type="curve"/>
      <point x="652" y="548" type="line"/>
      <point x="432" y="548" type="line"/>
      <point x="240" y="288" type="line"/>
    </contour>
    <contour>
      <point x="68" y="0" type="line"/>
      <point x="280" y="0" type="line"/>
      <point x="280" y="548" type="line"/>
      <point x="60" y="548" type="line"/>
      <point x="56" y="540" type="line"/>
      <point x="65" y="504"/>
      <point x="68" y="424"/>
      <point x="68" y="384" type="curve" smooth="yes"/>
    </contour>
  </outline>
</glyph>
<glyph name="Eng" format="2">
  <advance width="788"/>
  <unicode hex="014A"/>
  <note>
Eng
</note>
  <outline>
    <contour>
      <point x="68" y="0" type="line"/>
      <point x="280" y="0" type="line"/>
      <point x="280" y="487" type="line"/>
      <point x="219" y="462" type="line"/>
      <point x="568" y="116" type="line"/>
      <point x="568" y="392" type="line"/>
      <point x="236" y="720" type="line"/>
      <point x="68" y="720" type="line"/>
    </contour>
    <contour>
      <point x="436" y="-240" type="curve" smooth="yes"/>
      <point x="592" y="-240"/>
      <point x="720" y="-172"/>
      <point x="720" y="16" type="curve" smooth="yes"/>
      <point x="720" y="720" type="line"/>
      <point x="508" y="720" type="line"/>
      <point x="508" y="32" type="line" smooth="yes"/>
      <point x="508" y="-40"/>
      <point x="472" y="-68"/>
      <point x="400" y="-68" type="curve" smooth="yes"/>
      <point x="372" y="-68"/>
      <point x="356" y="-64"/>
      <point x="336" y="-56" type="curve"/>
      <point x="324" y="-56" type="line"/>
      <point x="324" y="-228" type="line"/>
      <point x="352" y="-236"/>
      <point x="396" y="-240"/>
    </contour>
  </outline>
</glyph>
<glyph name="eng" format="2">
  <advance width="692"/>
  <unicode hex="014B"/>
  <note>
eng
</note>
  <anchor x="346" y="0" name="bottom"/>
  <anchor x="346" y="548" name="top"/>
  <outline>
    <contour>
      <point x="394" y="-240" type="curve" smooth="yes"/>
      <point x="516" y="-240"/>
      <point x="628" y="-156"/>
      <point x="628" y="20" type="curve" smooth="yes"/>
      <point x="628" y="184" type="line"/>
      <point x="416" y="184" type="line"/>
      <point x="416" y="6" type="line" smooth="yes"/>
      <point x="416" y="-52"/>
      <point x="408" y="-76"/>
      <point x="352" y="-76" type="curve" smooth="yes"/>
      <point x="343" y="-76"/>
      <point x="330" y="-76"/>
      <point x="310" y="-72" type="curve"/>
      <point x="298" y="-72" type="line"/>
      <point x="298" y="-228" type="line"/>
      <point x="326" y="-236"/>
      <point x="362" y="-240"/>
    </contour>
    <component base="n"/>
  </outline>
</glyph>
<glyph name="OE" format="2">
  <advance width="1128"/>
  <unicode hex="0152"/>
  <note>
OE
</note>
  <outline>
    <contour>
      <point x="416" y="-12" type="curve" smooth="yes"/>
      <point x="660" y="-12"/>
      <point x="796" y="140"/>
      <point x="796" y="360" type="curve" smooth="yes"/>
      <point x="796" y="580"/>
      <point x="660" y="732"/>
      <point x="416" y="732" type="curve" smooth="yes"/>
      <point x="172" y="732"/>
      <point x="36" y="580"/>
      <point x="36" y="360" type="curve" smooth="yes"/>
      <point x="36" y="136"/>
      <point x="172" y="-12"/>
    </contour>
    <contour>
      <point x="416" y="164" type="curve" smooth="yes"/>
      <point x="300" y="164"/>
      <point x="252" y="252"/>
      <point x="252" y="360" type="curve" smooth="yes"/>
      <point x="252" y="468"/>
      <point x="300" y="556"/>
      <point x="416" y="556" type="curve" smooth="yes"/>
      <point x="532" y="556"/>
      <point x="580" y="468"/>
      <point x="580" y="360" type="curve" smooth="yes"/>
      <point x="580" y="252"/>
      <point x="532" y="164"/>
    </contour>
    <contour>
      <point x="512" y="0" type="line"/>
      <point x="1080" y="0" type="line"/>
      <point x="1080" y="184" type="line"/>
      <point x="512" y="184" type="line"/>
    </contour>
    <contour>
      <point x="696" y="268" type="line"/>
      <point x="1024" y="268" type="line"/>
      <point x="1024" y="440" type="line"/>
      <point x="696" y="440" type="line"/>
    </contour>
    <contour>
      <point x="508" y="536" type="line"/>
      <point x="1072" y="536" type="line"/>
      <point x="1072" y="720" type="line"/>
      <point x="508" y="720" type="line"/>
    </contour>
  </outline>
</glyph>
<glyph name="Tbar" format="2">
  <advance width="652"/>
  <unicode hex="0166"/>
  <note>
Tbar
</note>
  <anchor x="326" y="0" name="bottom"/>
  <anchor x="326" y="360" name="center"/>
  <anchor x="326" y="720" name="top"/>
  <outline>
    <contour>
      <point x="88" y="260" type="line"/>
      <point x="572" y="260" type="line"/>
      <point x="572" y="396" type="line"/>
      <point x="88" y="396" type="line"/>
    </contour>
    <component base="T"/>
  </outline>
</glyph>
<glyph name="tbar" format="2">
  <advance width="500"/>
  <unicode hex="0167"/>
  <note>
tbar
</note>
  <anchor x="250" y="0" name="bottom"/>
  <anchor x="250" y="274" name="center"/>
  <anchor x="206" y="680" name="top"/>
  <anchor x="431" y="616" name="topright"/>
  <outline>
    <contour>
      <point x="450" y="324" type="line"/>
      <point x="8" y="324" type="line"/>
      <point x="8" y="224" type="line"/>
      <point x="450" y="224" type="line"/>
    </contour>
    <component base="t"/>
  </outline>
</glyph>
<glyph name="longs" format="2">
  <advance width="392"/>
  <unicode hex="017F"/>
  <note>
longs
</note>
  <outline>
    <contour>
      <point x="8" y="548" type="line"/>
      <point x="8" y="388" type="line"/>
      <point x="100" y="388" type="line"/>
      <point x="100" y="0" type="line"/>
      <point x="312" y="0" type="line"/>
      <point x="312" y="536" type="line" smooth="yes"/>
      <point x="312" y="596"/>
      <point x="344" y="624"/>
      <point x="404" y="624" type="curve" smooth="yes"/>
      <point x="428" y="624"/>
      <point x="448" y="618"/>
      <point x="460" y="612" type="curve"/>
      <point x="472" y="612" type="line"/>
      <point x="472" y="764" type="line"/>
      <point x="452" y="770"/>
      <point x="420" y="776"/>
      <point x="380" y="776" type="curve" smooth="yes"/>
      <point x="216" y="776"/>
      <point x="108" y="713"/>
      <point x="100" y="548" type="curve"/>
    </contour>
  </outline>
</glyph>
<glyph name="Lj" format="2">
  <advance width="916"/>
  <unicode hex="01C8"/>
  <anchor x="744" y="548" name="_top"/>
  <anchor x="286" y="0" name="bottom"/>
  <anchor x="232" y="394" name="center"/>
  <anchor x="420" y="432" name="periodCAT"/>
  <anchor x="286" y="720" name="top"/>
  <anchor x="552" y="720" name="topright"/>
  <outline>
    <contour>
      <point x="68" y="0" type="line"/>
      <point x="540" y="0" type="line"/>
      <point x="540" y="184" type="line"/>
      <point x="280" y="184" type="line"/>
      <point x="280" y="720" type="line"/>
      <point x="68" y="720" type="line"/>
    </contour>
    <contour>
      <point x="588" y="-240" type="curve" smooth="yes"/>
      <point x="740" y="-240"/>
      <point x="852" y="-168"/>
      <point x="852" y="20" type="curve" smooth="yes"/>
      <point x="852" y="548" type="line"/>
      <point x="632" y="548" type="line"/>
      <point x="628" y="540" type="line"/>
      <point x="637" y="504"/>
      <point x="640" y="424"/>
      <point x="640" y="384" type="curve" smooth="yes"/>
      <point x="640" y="6" type="line" smooth="yes"/>
      <point x="640" y="-52"/>
      <point x="612" y="-76"/>
      <point x="556" y="-76" type="curve" smooth="yes"/>
      <point x="525" y="-76"/>
      <point x="512" y="-72"/>
      <point x="492" y="-64" type="curve"/>
      <point x="480" y="-64" type="line"/>
      <point x="480" y="-228" type="line"/>
      <point x="508" y="-236"/>
      <point x="544" y="-240"/>
    </contour>
    <contour>
      <point x="744" y="620" type="curve" smooth="yes"/>
      <point x="808" y="620"/>
      <point x="852" y="656"/>
      <point x="852" y="724" type="curve" smooth="yes"/>
      <point x="852" y="792"/>
      <point x="808" y="828"/>
      <point x="744" y="828" type="curve" smooth="yes"/>
      <point x="680" y="828"/>
      <point x="636" y="792"/>
      <point x="636" y="724" type="curve" smooth="yes"/>
      <point x="636" y="656"/>
      <point x="680" y="620"/>
    </contour>
  </outline>
</glyph>
<glyph name="nj" format="2">
  <advance width="1036"/>
  <unicode hex="01CC"/>
  <anchor x="864" y="548" name="_top"/>
  <anchor x="346" y="0" name="bottom"/>
  <anchor x="346" y="548" name="top"/>
  <outline>
    <contour>
      <point x="68" y="0" type="line"/>
      <point x="280" y="0" type="line"/>
      <point x="280" y="316" type="line" smooth="yes"/>
      <point x="280" y="372"/>
      <point x="274" y="404"/>
      <point x="264" y="425" type="curve"/>
      <point x="236" y="380" type="line"/>
      <point x="260" y="388"/>
      <point x="288" y="400"/>
      <point x="324" y="400" type="curve" smooth="yes"/>
      <point x="376" y="400"/>
      <point x="416" y="380"/>
      <point x="416" y="304" type="curve" smooth="yes"/>
      <point x="416" y="0" type="line"/>
      <point x="628" y="0" type="line"/>
      <point x="628" y="308" type="line" smooth="yes"/>
      <point x="628" y="516"/>
      <point x="480" y="564"/>
      <point x="338" y="564" type="curve" smooth="yes"/>
      <point x="228" y="564"/>
      <point x="132" y="536"/>
      <point x="60" y="504" type="curve"/>
      <point x="56" y="496" type="line"/>
      <point x="65" y="460"/>
      <point x="68" y="376"/>
      <point x="68" y="336" type="curve" smooth="yes"/>
    </contour>
    <contour>
      <point x="708" y="-240" type="curve" smooth="yes"/>
      <point x="860" y="-240"/>
      <point x="972" y="-168"/>
      <point x="972" y="20" type="curve" smooth="yes"/>
      <point x="972" y="548" type="line"/>
      <point x="752" y="548" type="line"/>
      <point x="748" y="540" type="line"/>
      <point x="757" y="504"/>
      <point x="760" y="424"/>
      <point x="760" y="384" type="curve" smooth="yes"/>
      <point x="760" y="6" type="line" smooth="yes"/>
      <point x="760" y="-52"/>
      <point x="732" y="-76"/>
      <point x="676" y="-76" type="curve" smooth="yes"/>
      <point x="645" y="-76"/>
      <point x="632" y="-72"/>
      <point x="612" y="-64" type="curve"/>
      <point x="600" y="-64" type="line"/>
      <point x="600" y="-228" type="line"/>
      <point x="628" y="-236"/>
      <point x="664" y="-240"/>
    </contour>
    <contour>
      <point x="864" y="620" type="curve" smooth="yes"/>
      <point x="928" y="620"/>
      <point x="972" y="656"/>
      <point x="972" y="724" type="curve" smooth="yes"/>
      <point x="972" y="792"/>
      <point x="928" y="828"/>
      <point x="864" y="828" type="curve" smooth="yes"/>
      <point x="800" y="828"/>
      <point x="756" y="792"/>
      <point x="756" y="724" type="curve" smooth="yes"/>
      <point x="756" y="656"/>
      <point x="800" y="620"/>
    </contour>
  </outline>
</glyph>
<glyph name="schwa" format="2">
  <advance width="641"/>
  <unicode hex="0259"/>
  <note>
e
</note>
  <anchor x="323" y="552" name="bottom"/>
  <anchor x="81" y="540" name="ogonek"/>
  <anchor x="323" y="4" name="top"/>
  <outline>
    <contour>
      <point x="257" y="564" type="curve" smooth="yes"/>
      <point x="180" y="564"/>
      <point x="125" y="556"/>
      <point x="81" y="540" type="curve"/>
      <point x="81" y="380" type="line"/>
      <point x="93" y="380" type="line"/>
      <point x="121" y="396"/>
      <point x="177" y="408"/>
      <point x="237" y="408" type="curve" smooth="yes"/>
      <point x="329" y="408"/>
      <point x="389" y="384"/>
      <point x="389" y="300" type="curve" smooth="yes"/>
      <point x="389" y="256" type="line" smooth="yes"/>
      <point x="389" y="160"/>
      <point x="366" y="128"/>
      <point x="313" y="128" type="curve" smooth="yes"/>
      <point x="262" y="128"/>
      <point x="241" y="160"/>
      <point x="241" y="212" type="curve" smooth="yes"/>
      <point x="241" y="216" type="line"/>
      <point x="473" y="216" type="line"/>
      <point x="473" y="332" type="line"/>
      <point x="43" y="332" type="line"/>
      <point x="41" y="292" type="line" smooth="yes"/>
      <point x="32" y="120"/>
      <point x="117" y="-12"/>
      <point x="309" y="-12" type="curve" smooth="yes"/>
      <point x="488" y="-12"/>
      <point x="601" y="92"/>
      <point x="601" y="276" type="curve" smooth="yes"/>
      <point x="601" y="496"/>
      <point x="453" y="564"/>
    </contour>
  </outline>
</glyph>
<glyph name="acutecomb" format="2">
  <unicode hex="0301"/>
  <note>
acute
</note>
  <anchor x="360" y="548" name="_top"/>
  <anchor x="360" y="760" name="top"/>
  <outline>
    <contour>
      <point x="254" y="604" type="line"/>
      <point x="382" y="604" type="line"/>
      <point x="505" y="756" type="line"/>
      <point x="505" y="760" type="line"/>
      <point x="337" y="760" type="line"/>
      <point x="254" y="608" type="line"/>
    </contour>
  </outline>
</glyph>
<glyph name="circumflexcomb" format="2">
  <unicode hex="0302"/>
  <note>
circumflex
</note>
  <anchor x="336" y="548" name="_top"/>
  <anchor x="336" y="760" name="top"/>
  <outline>
    <contour>
      <point x="166" y="604" type="line"/>
      <point x="278" y="604" type="line"/>
      <point x="336" y="677" type="line"/>
      <point x="394" y="604" type="line"/>
      <point x="506" y="604" type="line"/>
      <point x="506" y="608" type="line"/>
      <point x="406" y="760" type="line"/>
      <point x="266" y="760" type="line"/>
      <point x="166" y="608" type="line"/>
    </contour>
  </outline>
</glyph>
<glyph name="tildecomb" format="2">
  <unicode hex="0303"/>
  <note>
tilde
</note>
  <anchor x="336" y="548" name="_top"/>
  <anchor x="336" y="760" name="top"/>
  <outline>
    <contour>
      <point x="134" y="596" type="curve"/>
      <point x="230" y="596" type="line"/>
      <point x="230" y="636"/>
      <point x="234" y="664"/>
      <point x="266" y="664" type="curve" smooth="yes"/>
      <point x="289" y="664"/>
      <point x="306" y="644"/>
      <point x="326" y="628" type="curve" smooth="yes"/>
      <point x="348" y="610"/>
      <point x="376" y="596"/>
      <point x="414" y="596" type="curve" smooth="yes"/>
      <point x="506" y="596"/>
      <point x="538" y="676"/>
      <point x="538" y="760" type="curve"/>
      <point x="442" y="760" type="line"/>
      <point x="442" y="720"/>
      <point x="437" y="692"/>
      <point x="405" y="692" type="curve" smooth="yes"/>
      <point x="384" y="692"/>
      <point x="367" y="709"/>
      <point x="349" y="724" type="curve" smooth="yes"/>
      <point x="326" y="743"/>
      <point x="298" y="760"/>
      <point x="258" y="760" type="curve" smooth="yes"/>
      <point x="166" y="760"/>
      <point x="134" y="680"/>
    </contour>
  </outline>
</glyph>
<glyph name="ringcomb" format="2">
  <unicode hex="030A"/>
  <note>
ring
</note>
  <anchor x="336" y="548" name="_top"/>
  <anchor x="336" y="838" name="top"/>
  <outline>
    <contour>
      <point x="336" y="602" type="curve" smooth="yes"/>
      <point x="402" y="602"/>
      <point x="458" y="644"/>
      <point x="458" y="720" type="curve" smooth="yes"/>
      <point x="458" y="796"/>
      <point x="402" y="838"/>
      <point x="336" y="838" type="curve" smooth="yes"/>
      <point x="270" y="838"/>
      <point x="214" y="796"/>
      <point x="214" y="720" type="curve" smooth="yes"/>
      <point x="214" y="644"/>
      <point x="270" y="602"/>
    </contour>
    <contour>
      <point x="336" y="664" type="curve" smooth="yes"/>
      <point x="304" y="664"/>
      <point x="282" y="686"/>
      <point x="282" y="720" type="curve" smooth="yes"/>
      <point x="282" y="754"/>
      <point x="304" y="776"/>
      <point x="336" y="776" type="curve" smooth="yes"/>
      <point x="368" y="776"/>
      <point x="390" y="754"/>
      <point x="390" y="720" type="curve" smooth="yes"/>
      <point x="390" y="686"/>
      <point x="368" y="664"/>
    </contour>
  </outline>
</glyph>
<glyph name="hungarumlautcomb" format="2">
  <unicode hex="030B"/>
  <note>
hungarumlaut
</note>
  <anchor x="376" y="548" name="_top"/>
  <anchor x="376" y="760" name="top"/>
  <outline>
    <contour>
      <point x="358" y="604" type="line"/>
      <point x="478" y="604" type="line"/>
      <point x="601" y="756" type="line"/>
      <point x="601" y="760" type="line"/>
      <point x="441" y="760" type="line"/>
      <point x="358" y="608" type="line"/>
    </contour>
    <contour>
      <point x="150" y="604" type="line"/>
      <point x="270" y="604" type="line"/>
      <point x="393" y="756" type="line"/>
      <point x="393" y="760" type="line"/>
      <point x="233" y="760" type="line"/>
      <point x="150" y="608" type="line"/>
    </contour>
  </outline>
</glyph>
<glyph name="dblgravecomb" format="2">
  <unicode hex="030F"/>
  <anchor x="386" y="548" name="_top"/>
  <anchor x="336" y="760" name="top"/>
  <outline>
    <contour>
      <point x="233" y="604" type="line"/>
      <point x="361" y="604" type="line"/>
      <point x="361" y="608" type="line"/>
      <point x="278" y="760" type="line"/>
      <point x="109" y="760" type="line"/>
      <point x="109" y="756" type="line"/>
    </contour>
    <contour>
      <point x="435" y="604" type="line"/>
      <point x="563" y="604" type="line"/>
      <point x="563" y="608" type="line"/>
      <point x="480" y="760" type="line"/>
      <point x="311" y="760" type="line"/>
      <point x="311" y="756" type="line"/>
    </contour>
  </outline>
</glyph>
<glyph name="horncomb" format="2">
  <unicode hex="031B"/>
  <anchor x="233" y="548" name="_topright"/>
  <anchor x="336" y="548" name="topright"/>
  <outline>
    <contour>
      <point x="235" y="429" type="line"/>
      <point x="370" y="429"/>
      <point x="436" y="540"/>
      <point x="440" y="620" type="curve"/>
      <point x="309" y="620" type="line"/>
      <point x="307" y="572"/>
      <point x="285" y="548"/>
      <point x="233" y="548" type="curve"/>
    </contour>
  </outline>
</glyph>
<glyph name="dotbelowcomb" format="2">
  <unicode hex="0323"/>
  <anchor x="336" y="0" name="_bottom"/>
  <anchor x="336" y="-212" name="bottom"/>
  <outline>
    <contour>
      <point x="336" y="-212" type="curve" smooth="yes"/>
      <point x="379" y="-212"/>
      <point x="412" y="-184"/>
      <point x="412" y="-136" type="curve" smooth="yes"/>
      <point x="412" y="-90"/>
      <point x="379" y="-60"/>
      <point x="336" y="-60" type="curve" smooth="yes"/>
      <point x="293" y="-60"/>
      <point x="260" y="-90"/>
      <point x="260" y="-136" type="curve" smooth="yes"/>
      <point x="260" y="-184"/>
      <point x="293" y="-212"/>
    </contour>
  </outline>
</glyph>
<glyph name="dieresisbelowcomb" format="2">
  <unicode hex="0324"/>
  <anchor x="336" y="0" name="_bottom"/>
  <anchor x="336" y="-208" name="bottom"/>
  <outline>
    <contour>
      <point x="434" y="-208" type="curve" smooth="yes"/>
      <point x="475" y="-208"/>
      <point x="506" y="-182"/>
      <point x="506" y="-136" type="curve" smooth="yes"/>
      <point x="506" y="-92"/>
      <point x="475" y="-64"/>
      <point x="434" y="-64" type="curve" smooth="yes"/>
      <point x="393" y="-64"/>
      <point x="362" y="-92"/>
      <point x="362" y="-136" type="curve" smooth="yes"/>
      <point x="362" y="-182"/>
      <point x="393" y="-208"/>
    </contour>
    <contour>
      <point x="238" y="-208" type="curve" smooth="yes"/>
      <point x="279" y="-208"/>
      <point x="310" y="-182"/>
      <point x="310" y="-136" type="curve" smooth="yes"/>
      <point x="310" y="-92"/>
      <point x="279" y="-64"/>
      <point x="238" y="-64" type="curve" smooth="yes"/>
      <point x="197" y="-64"/>
      <point x="166" y="-92"/>
      <point x="166" y="-136" type="curve" smooth="yes"/>
      <point x="166" y="-182"/>
      <point x="197" y="-208"/>
    </contour>
  </outline>
</glyph>
<glyph name="commaaccentcomb" format="2">
  <unicode hex="0326"/>
  <note>
commaaccent
</note>
  <anchor x="336" y="0" name="_bottom"/>
  <anchor x="336" y="-260" name="bottom"/>
  <outline>
    <contour>
      <point x="304" y="-172" type="curve"/>
      <point x="258" y="-254" type="line"/>
      <point x="258" y="-260" type="line"/>
      <point x="357" y="-260" type="line"/>
      <point x="383" y="-211" type="line" smooth="yes"/>
      <point x="394" y="-189"/>
      <point x="414" y="-151"/>
      <point x="414" y="-117" type="curve" smooth="yes"/>
      <point x="414" y="-69"/>
      <point x="379" y="-40"/>
      <point x="336" y="-40" type="curve" smooth="yes"/>
      <point x="293" y="-40"/>
      <point x="262" y="-69"/>
      <point x="262" y="-110" type="curve" smooth="yes"/>
      <point x="262" y="-146"/>
      <point x="285" y="-162"/>
    </contour>
  </outline>
</glyph>
<glyph name="cedillacomb" format="2">
  <unicode hex="0327"/>
  <note>
cedilla
</note>
  <anchor x="336" y="0" name="_bottom"/>
  <anchor x="336" y="-250" name="bottom"/>
  <outline>
    <contour>
      <point x="378" y="24" type="line"/>
      <point x="294" y="24" type="line"/>
      <point x="294" y="-92" type="line"/>
      <point x="358" y="-92"/>
      <point x="386" y="-108"/>
      <point x="386" y="-134" type="curve" smooth="yes"/>
      <point x="386" y="-156"/>
      <point x="374" y="-172"/>
      <point x="330" y="-172" type="curve" smooth="yes"/>
      <point x="302" y="-172"/>
      <point x="278" y="-168"/>
      <point x="254" y="-160" type="curve"/>
      <point x="250" y="-160" type="line"/>
      <point x="250" y="-238" type="line"/>
      <point x="274" y="-246"/>
      <point x="306" y="-250"/>
      <point x="342" y="-250" type="curve" smooth="yes"/>
      <point x="414" y="-250"/>
      <point x="486" y="-220"/>
      <point x="486" y="-140" type="curve" smooth="yes"/>
      <point x="486" y="-84"/>
      <point x="446" y="-40"/>
      <point x="378" y="-32" type="curve"/>
    </contour>
  </outline>
</glyph>
<glyph name="brevebelowcomb" format="2">
  <unicode hex="032E"/>
  <anchor x="336" y="0" name="_bottom"/>
  <anchor x="336" y="-220" name="bottom"/>
  <outline>
    <contour>
      <point x="336" y="-220" type="curve" smooth="yes"/>
      <point x="450" y="-220"/>
      <point x="490" y="-144"/>
      <point x="486" y="-60" type="curve"/>
      <point x="406" y="-60" type="line"/>
      <point x="406" y="-108"/>
      <point x="386" y="-132"/>
      <point x="336" y="-132" type="curve" smooth="yes"/>
      <point x="286" y="-132"/>
      <point x="266" y="-108"/>
      <point x="266" y="-60" type="curve"/>
      <point x="186" y="-60" type="line"/>
      <point x="182" y="-144"/>
      <point x="222" y="-220"/>
    </contour>
  </outline>
</glyph>
<glyph name="macronbelowcomb" format="2">
  <unicode hex="0331"/>
  <anchor x="336" y="0" name="_bottom"/>
  <anchor x="336" y="-183" name="bottom"/>
  <outline>
    <contour>
      <point x="178" y="-80" type="line"/>
      <point x="178" y="-183" type="line"/>
      <point x="494" y="-183" type="line"/>
      <point x="494" y="-80" type="line"/>
    </contour>
  </outline>
</glyph>
<glyph name="strokeshortcomb" format="2">
  <unicode hex="0335"/>
  <anchor x="336" y="274" name="_center"/>
  <outline>
    <contour>
      <point x="522" y="324" type="line"/>
      <point x="150" y="324" type="line"/>
      <point x="150" y="224" type="line"/>
      <point x="522" y="224" type="line"/>
    </contour>
  </outline>
</glyph>
<glyph name="slashshortcomb" format="2">
  <unicode hex="0337"/>
  <anchor x="336" y="370" name="_center"/>
  <outline>
    <contour>
      <point x="142" y="176" type="line"/>
      <point x="154" y="176" type="line"/>
      <point x="530" y="452" type="line"/>
      <point x="530" y="564" type="line"/>
      <point x="518" y="564" type="line"/>
      <point x="142" y="288" type="line"/>
    </contour>
  </outline>
</glyph>
<glyph name="Delta" format="2">
  <advance width="701"/>
  <unicode hex="0394"/>
  <unicode hex="03B4"/>
  <note>
uni0394
</note>
  <outline>
    <contour>
      <point x="262" y="720" type="line"/>
      <point x="12" y="0" type="line"/>
      <point x="689" y="0" type="line"/>
      <point x="439" y="720" type="line"/>
    </contour>
    <contour>
      <point x="226" y="147" type="line"/>
      <point x="350" y="511" type="line"/>
      <point x="475" y="147" type="line"/>
    </contour>
  </outline>
</glyph>
<glyph name="mu" format="2">
  <advance width="696"/>
  <unicode hex="03BC"/>
  <note>
uni03BC
</note>
  <anchor x="350" y="0" name="bottom"/>
  <anchor x="636" y="48" name="ogonek"/>
  <anchor x="350" y="548" name="top"/>
  <anchor x="521" y="548" name="topright"/>
  <outline>
    <contour>
      <point x="68" y="-232" type="line"/>
      <point x="288" y="-232" type="line"/>
      <point x="292" y="-224" type="line"/>
      <point x="283" y="-188"/>
      <point x="280" y="-108"/>
      <point x="280" y="-68" type="curve" smooth="yes"/>
      <point x="280" y="328" type="line"/>
      <point x="68" y="328" type="line"/>
    </contour>
    <component base="u" xOffset="4"/>
  </outline>
</glyph>
<glyph name="pi" format="2">
  <advance width="664"/>
  <unicode hex="03C0"/>
  <note>
pi
</note>
  <outline>
    <contour>
      <point x="400" y="0" type="line"/>
      <point x="612" y="0" type="line"/>
      <point x="612" y="548" type="line"/>
      <point x="392" y="548" type="line"/>
      <point x="388" y="540" type="line"/>
      <point x="397" y="504"/>
      <point x="400" y="424"/>
      <point x="400" y="384" type="curve" smooth="yes"/>
    </contour>
    <contour>
      <point x="64" y="0" type="line"/>
      <point x="276" y="0" type="line"/>
      <point x="276" y="548" type="line"/>
      <point x="56" y="548" type="line"/>
      <point x="52" y="540" type="line"/>
      <point x="61" y="504"/>
      <point x="64" y="424"/>
      <point x="64" y="384" type="curve" smooth="yes"/>
    </contour>
    <contour>
      <point x="152" y="376" type="line"/>
      <point x="476" y="376" type="line"/>
      <point x="476" y="548" type="line"/>
      <point x="152" y="548" type="line"/>
    </contour>
  </outline>
</glyph>
<glyph name="year-ar" format="2">
  <advance width="2344"/>
  <unicode hex="0601"/>
  <outline>
    <contour>
      <point x="730" y="0" type="curve"/>
      <point x="1870" y="0" type="line"/>
      <point x="2028" y="0"/>
      <point x="2096" y="-19"/>
      <point x="2174" y="-91" type="curve"/>
      <point x="2280" y="46" type="line"/>
      <point x="2164" y="156"/>
      <point x="2058" y="176"/>
      <point x="1918" y="176" type="curve"/>
      <point x="969" y="176" type="line"/>
      <point x="1055" y="90" type="line"/>
      <point x="1055" y="494" type="line"/>
      <point x="1043" y="494" type="line"/>
      <point x="843" y="474" type="line"/>
      <point x="843" y="264" type="line" smooth="yes"/>
      <point x="843" y="203"/>
      <point x="848" y="161"/>
      <point x="868" y="147" type="curve"/>
      <point x="937" y="176" type="line"/>
      <point x="750" y="176" type="line" smooth="yes"/>
      <point x="644" y="176"/>
      <point x="604" y="239"/>
      <point x="590" y="395" type="curve"/>
      <point x="443" y="483" type="line"/>
      <point x="329" y="464"/>
      <point x="167" y="406"/>
      <point x="40" y="331" type="curve"/>
      <point x="87" y="146" type="line"/>
      <point x="100" y="146" type="line"/>
      <point x="212" y="215"/>
      <point x="368" y="280"/>
      <point x="485" y="296" type="curve"/>
      <point x="434" y="375" type="line"/>
      <point x="434" y="71"/>
      <point x="587" y="0"/>
    </contour>
  </outline>
</glyph>
<glyph name="comma-ar" format="2">
  <advance width="392"/>
  <unicode hex="060C"/>
  <note>
uni060C
</note>
  <outline>
    <contour>
      <point x="67" y="112" type="curve" smooth="yes"/>
      <point x="67" y="44"/>
      <point x="119" y="-11"/>
      <point x="180" y="-11" type="curve" smooth="yes"/>
      <point x="242" y="-11"/>
      <point x="282" y="32"/>
      <point x="282" y="86" type="curve" smooth="yes"/>
      <point x="282" y="138"/>
      <point x="244" y="165"/>
      <point x="199" y="168" type="curve"/>
      <point x="209" y="219"/>
      <point x="244" y="248"/>
      <point x="244" y="248" type="curve"/>
      <point x="244" y="261" type="line"/>
      <point x="153" y="281" type="line"/>
      <point x="153" y="281"/>
      <point x="67" y="225"/>
    </contour>
  </outline>
</glyph>
<glyph name="tahabove-ar" format="2">
  <unicode hex="0615"/>
  <note>
uni0615
</note>
  <anchor x="208" y="274" name="_top"/>
  <anchor x="211" y="589" name="top"/>
  <outline>
    <contour>
      <point x="161" y="353" type="line"/>
      <point x="161" y="587" type="line"/>
      <point x="73" y="577" type="line"/>
      <point x="73" y="353" type="line"/>
      <point x="90" y="388" type="line"/>
      <point x="43" y="388" type="line"/>
      <point x="15" y="317" type="line"/>
      <point x="15" y="312" type="line"/>
      <point x="259" y="312" type="line" smooth="yes"/>
      <point x="355" y="312"/>
      <point x="384" y="358"/>
      <point x="384" y="408" type="curve" smooth="yes"/>
      <point x="384" y="450"/>
      <point x="355" y="486"/>
      <point x="335" y="507" type="curve"/>
      <point x="327" y="507" type="line"/>
      <point x="311" y="504"/>
      <point x="284" y="503"/>
      <point x="256" y="503" type="curve" smooth="yes"/>
      <point x="182" y="503" type="line"/>
      <point x="152" y="426" type="line"/>
      <point x="236" y="426" type="line" smooth="yes"/>
      <point x="259" y="426"/>
      <point x="272" y="427"/>
      <point x="289" y="430" type="curve"/>
      <point x="296" y="427"/>
      <point x="297" y="416"/>
      <point x="297" y="411" type="curve" smooth="yes"/>
      <point x="297" y="395"/>
      <point x="287" y="388"/>
      <point x="243" y="388" type="curve" smooth="yes"/>
      <point x="144" y="388" type="line"/>
    </contour>
  </outline>
</glyph>
<glyph name="hah-ar" format="2">
  <advance width="760"/>
  <unicode hex="062D"/>
  <note>
uni062D
</note>
  <anchor x="331" y="-256" name="bottom"/>
  <anchor x="556" y="436" name="top"/>
  <outline>
    <contour>
      <point x="356" y="0" type="curve" smooth="yes"/>
      <point x="667" y="0" type="line"/>
      <point x="739" y="187" type="line"/>
      <point x="658" y="218"/>
      <point x="510" y="325"/>
      <point x="223" y="600" type="curve"/>
      <point x="211" y="600" type="line"/>
      <point x="95" y="436" type="line"/>
      <point x="211" y="322"/>
      <point x="344" y="211"/>
      <point x="461" y="152" type="curve"/>
      <point x="504" y="176" type="line"/>
      <point x="375" y="176" type="line" smooth="yes"/>
      <point x="132" y="176"/>
      <point x="16" y="74"/>
      <point x="16" y="-53" type="curve" smooth="yes"/>
      <point x="16" y="-177"/>
      <point x="128" y="-256"/>
      <point x="316" y="-256" type="curve" smooth="yes"/>
      <point x="500" y="-256" type="line"/>
      <point x="560" y="-96" type="line"/>
      <point x="560" y="-84" type="line"/>
      <point x="322" y="-84" type="line" smooth="yes"/>
      <point x="249" y="-84"/>
      <point x="211" y="-75"/>
      <point x="194" y="-58" type="curve"/>
      <point x="194" y="-83" type="line"/>
      <point x="194" y="-45"/>
      <point x="225" y="0"/>
    </contour>
  </outline>
</glyph>
<glyph name="ain-ar" format="2">
  <advance width="556"/>
  <unicode hex="0639"/>
  <note>
uni0639
</note>
  <anchor x="250" y="-256" name="bottom"/>
  <anchor x="189" y="541" name="top"/>
  <outline>
    <contour>
      <point x="13" y="-53" type="curve" smooth="yes"/>
      <point x="13" y="-177"/>
      <point x="125" y="-256"/>
      <point x="313" y="-256" type="curve" smooth="yes"/>
      <point x="448" y="-256" type="line"/>
      <point x="508" y="-96" type="line"/>
      <point x="508" y="-84" type="line"/>
      <point x="319" y="-84" type="line" smooth="yes"/>
      <point x="246" y="-84"/>
      <point x="208" y="-75"/>
      <point x="191" y="-58" type="curve"/>
      <point x="191" y="-83" type="line"/>
      <point x="191" y="-45"/>
      <point x="222" y="0"/>
      <point x="353" y="0" type="curve" smooth="yes"/>
      <point x="460" y="0" type="line"/>
      <point x="524" y="164" type="line"/>
      <point x="524" y="176" type="line"/>
      <point x="350" y="176" type="line" smooth="yes"/>
      <point x="296" y="176"/>
      <point x="276" y="200"/>
      <point x="276" y="228" type="curve" smooth="yes"/>
      <point x="276" y="279"/>
      <point x="356" y="326"/>
      <point x="484" y="404" type="curve"/>
      <point x="436" y="584" type="line"/>
      <point x="424" y="584" type="line"/>
      <point x="141" y="436"/>
      <point x="88" y="350"/>
      <point x="88" y="260" type="curve" smooth="yes"/>
      <point x="88" y="188"/>
      <point x="133" y="123"/>
      <point x="204" y="104" type="curve"/>
      <point x="258" y="157" type="line"/>
      <point x="93" y="131"/>
      <point x="13" y="47"/>
    </contour>
  </outline>
</glyph>
<glyph name="kashida-ar" format="2">
  <advance width="230"/>
  <unicode hex="0640"/>
  <note>
uni0640
</note>
  <outline>
    <contour>
      <point x="230" y="176" type="line"/>
      <point x="0" y="176" type="line"/>
      <point x="-20" y="156" type="line"/>
      <point x="-20" y="0" type="line"/>
      <point x="210" y="0" type="line"/>
      <point x="230" y="20" type="line"/>
    </contour>
  </outline>
</glyph>
<glyph name="heh-ar" format="2">
  <advance width="592"/>
  <unicode hex="0647"/>
  <note>
uni0647
</note>
  <anchor x="280" y="-12" name="bottom"/>
  <anchor x="313" y="576" name="top"/>
  <outline>
    <contour>
      <point x="40" y="216" type="curve" smooth="yes"/>
      <point x="40" y="82"/>
      <point x="157" y="-12"/>
      <point x="280" y="-12" type="curve" smooth="yes"/>
      <point x="428" y="-12"/>
      <point x="552" y="103"/>
      <point x="552" y="246" type="curve" smooth="yes"/>
      <point x="552" y="368"/>
      <point x="453" y="512"/>
      <point x="325" y="576" type="curve"/>
      <point x="313" y="576" type="line"/>
      <point x="176" y="532"/>
      <point x="40" y="393"/>
    </contour>
    <contour>
      <point x="220" y="252" type="curve" smooth="yes"/>
      <point x="220" y="311"/>
      <point x="253" y="378"/>
      <point x="324" y="425" type="curve"/>
      <point x="248" y="425" type="line"/>
      <point x="301" y="383"/>
      <point x="391" y="255"/>
      <point x="384" y="149" type="curve"/>
      <point x="395" y="247" type="line"/>
      <point x="388" y="213"/>
      <point x="361" y="152"/>
      <point x="296" y="152" type="curve" smooth="yes"/>
      <point x="248" y="152"/>
      <point x="220" y="206"/>
    </contour>
  </outline>
</glyph>
<glyph name="fatha-ar" format="2">
  <unicode hex="064E"/>
  <note>
uni064E
</note>
  <anchor x="210" y="518" name="_top"/>
  <anchor x="200" y="720" name="top"/>
  <outline>
    <contour>
      <point x="73" y="596" type="line"/>
      <point x="85" y="596" type="line"/>
      <point x="340" y="679" type="line"/>
      <point x="340" y="750" type="line"/>
      <point x="328" y="750" type="line"/>
      <point x="73" y="667" type="line"/>
    </contour>
  </outline>
</glyph>
<glyph name="madda-ar" format="2">
  <unicode hex="0653"/>
  <note>
uni0653
</note>
  <anchor x="202" y="-40" name="_top"/>
  <anchor x="202" y="159" name="top"/>
  <outline>
    <contour>
      <point x="269" y="22" type="curve" smooth="yes"/>
      <point x="332" y="22"/>
      <point x="368" y="48"/>
      <point x="402" y="86" type="curve"/>
      <point x="344" y="158" type="line"/>
      <point x="332" y="158" type="line"/>
      <point x="285" y="124"/>
      <point x="252" y="118"/>
      <point x="217" y="118" type="curve"/>
      <point x="303" y="81" type="line"/>
      <point x="282" y="108"/>
      <point x="232" y="159"/>
      <point x="164" y="159" type="curve" smooth="yes"/>
      <point x="101" y="159"/>
      <point x="65" y="132"/>
      <point x="31" y="94" type="curve"/>
      <point x="89" y="23" type="line"/>
      <point x="101" y="23" type="line"/>
      <point x="144" y="57"/>
      <point x="173" y="59"/>
      <point x="211" y="63" type="curve"/>
      <point x="148" y="77" type="line"/>
      <point x="172" y="58"/>
      <point x="211" y="22"/>
    </contour>
  </outline>
</glyph>
<glyph name="three-ar" format="2">
  <advance width="845"/>
  <unicode hex="0663"/>
  <note>
uni0663
</note>
  <outline>
    <contour>
      <point x="560" y="732" type="curve" smooth="yes"/>
      <point x="560" y="760" type="line"/>
      <point x="548" y="760" type="line"/>
      <point x="387" y="743" type="line"/>
      <point x="387" y="693" type="line" smooth="yes"/>
      <point x="387" y="579"/>
      <point x="378" y="559"/>
      <point x="323" y="505" type="curve"/>
      <point x="444" y="544" type="line"/>
      <point x="414" y="544"/>
      <point x="384" y="544"/>
      <point x="354" y="544" type="curve" smooth="yes"/>
      <point x="319" y="544"/>
      <point x="292" y="572"/>
      <point x="292" y="621" type="curve" smooth="yes"/>
      <point x="292" y="652"/>
      <point x="292" y="717"/>
      <point x="300" y="752" type="curve"/>
      <point x="298" y="760" type="line"/>
      <point x="80" y="740" type="line"/>
      <point x="80" y="0" type="line"/>
      <point x="292" y="0" type="line"/>
      <point x="292" y="415" type="line"/>
      <point x="319" y="390"/>
      <point x="354" y="375"/>
      <point x="390" y="375" type="curve" smooth="yes"/>
      <point x="519" y="375"/>
      <point x="560" y="570"/>
    </contour>
    <contour>
      <point x="503" y="477" type="line"/>
      <point x="536" y="414"/>
      <point x="584" y="375"/>
      <point x="641" y="375" type="curve" smooth="yes"/>
      <point x="726" y="375"/>
      <point x="821" y="459"/>
      <point x="821" y="732" type="curve" smooth="yes"/>
      <point x="821" y="760" type="line"/>
      <point x="809" y="760" type="line"/>
      <point x="648" y="743" type="line"/>
      <point x="648" y="693" type="line" smooth="yes"/>
      <point x="648" y="579"/>
      <point x="639" y="559"/>
      <point x="584" y="505" type="curve"/>
      <point x="705" y="544" type="line"/>
      <point x="675" y="544"/>
      <point x="645" y="544"/>
      <point x="615" y="544" type="curve" smooth="yes"/>
      <point x="593" y="544"/>
      <point x="568" y="556"/>
      <point x="539" y="596" type="curve"/>
    </contour>
  </outline>
</glyph>
<glyph name="qafDotless-ar" format="2">
  <advance width="788"/>
  <unicode hex="066F"/>
  <note>
uni066F
</note>
  <anchor x="345" y="-260" name="bottom"/>
  <anchor x="426" y="549" name="top"/>
  <outline>
    <contour>
      <point x="345" y="-260" type="curve" smooth="yes"/>
      <point x="570" y="-260"/>
      <point x="736" y="-126"/>
      <point x="736" y="135" type="curve" smooth="yes"/>
      <point x="736" y="381"/>
      <point x="581" y="529"/>
      <point x="441" y="529" type="curve" smooth="yes"/>
      <point x="287" y="529"/>
      <point x="164" y="391"/>
      <point x="164" y="231" type="curve" smooth="yes"/>
      <point x="164" y="85"/>
      <point x="281" y="-1"/>
      <point x="456" y="-1" type="curve" smooth="yes"/>
      <point x="485" y="-1"/>
      <point x="514" y="2"/>
      <point x="543" y="9" type="curve"/>
      <point x="534" y="181" type="line"/>
      <point x="510" y="174"/>
      <point x="486" y="171"/>
      <point x="462" y="171" type="curve" smooth="yes"/>
      <point x="384" y="171"/>
      <point x="358" y="224"/>
      <point x="358" y="259" type="curve" smooth="yes"/>
      <point x="358" y="324"/>
      <point x="403" y="386"/>
      <point x="481" y="402" type="curve"/>
      <point x="387" y="409" type="line"/>
      <point x="483" y="352"/>
      <point x="529" y="251"/>
      <point x="529" y="127" type="curve" smooth="yes"/>
      <point x="529" y="-25"/>
      <point x="509" y="-69"/>
      <point x="491" y="-93" type="curve"/>
      <point x="542" y="-44" type="line"/>
      <point x="511" y="-80"/>
      <point x="465" y="-85"/>
      <point x="408" y="-85" type="curve"/>
      <point x="293" y="-79"/>
      <point x="207" y="-44"/>
      <point x="132" y="12" type="curve"/>
      <point x="120" y="12" type="line"/>
      <point x="52" y="-160" type="line"/>
      <point x="52" y="-160"/>
      <point x="172" y="-260"/>
    </contour>
  </outline>
</glyph>
<glyph name="endofayah-ar" format="2">
  <advance width="1140"/>
  <unicode hex="06DD"/>
  <outline>
    <contour>
      <point x="570" y="780" type="curve" smooth="yes"/>
      <point x="890" y="780"/>
      <point x="1130" y="561"/>
      <point x="1130" y="270" type="curve" smooth="yes"/>
      <point x="1130" y="-21"/>
      <point x="890" y="-240"/>
      <point x="570" y="-240" type="curve" smooth="yes"/>
      <point x="250" y="-240"/>
      <point x="10" y="-21"/>
      <point x="10" y="270" type="curve" smooth="yes"/>
      <point x="10" y="561"/>
      <point x="250" y="780"/>
    </contour>
    <contour>
      <point x="570" y="-64" type="curve" smooth="yes"/>
      <point x="789" y="-64"/>
      <point x="918" y="53"/>
      <point x="918" y="250" type="curve" smooth="yes"/>
      <point x="918" y="290" type="line" smooth="yes"/>
      <point x="918" y="487"/>
      <point x="789" y="604"/>
      <point x="570" y="604" type="curve" smooth="yes"/>
      <point x="351" y="604"/>
      <point x="222" y="487"/>
      <point x="222" y="290" type="curve" smooth="yes"/>
      <point x="222" y="250" type="line" smooth="yes"/>
      <point x="222" y="53"/>
      <point x="351" y="-64"/>
    </contour>
    <component base="dot-ar" xOffset="386" yOffset="-72"/>
    <component base="dot-ar" xOffset="386" yOffset="270"/>
  </outline>
</glyph>
<glyph name="emdash" format="2">
  <advance width="1000"/>
  <unicode hex="2014"/>
  <note>
emdash
</note>
  <outline>
    <contour>
      <point x="16" y="396" type="line"/>
      <point x="16" y="256" type="line"/>
      <point x="984" y="256" type="line"/>
      <point x="984" y="396" type="line"/>
    </contour>
  </outline>
</glyph>
<glyph name="quotesinglbase" format="2">
  <advance width="300"/>
  <unicode hex="201A"/>
  <note>
quotesinglbase
</note>
  <outline>
    <contour>
      <point x="101" y="6" type="curve"/>
      <point x="8" y="-153" type="line"/>
      <point x="8" y="-160" type="line"/>
      <point x="161" y="-160" type="line"/>
      <point x="215" y="-50" type="line" smooth="yes"/>
      <point x="232" y="-16"/>
      <point x="264" y="39"/>
      <point x="264" y="90" type="curve" smooth="yes"/>
      <point x="264" y="164"/>
      <point x="216" y="208"/>
      <point x="150" y="208" type="curve" smooth="yes"/>
      <point x="84" y="208"/>
      <point x="40" y="161"/>
      <point x="40" y="98" type="curve" smooth="yes"/>
      <point x="40" y="43"/>
      <point x="72" y="20"/>
    </contour>
  </outline>
</glyph>
<glyph name="quotedblleft" format="2">
  <advance width="580"/>
  <unicode hex="201C"/>
  <note>
quotedblleft
</note>
  <outline>
    <contour>
      <point x="430" y="360" type="curve" smooth="yes"/>
      <point x="496" y="360"/>
      <point x="540" y="407"/>
      <point x="540" y="470" type="curve" smooth="yes"/>
      <point x="540" y="525"/>
      <point x="508" y="548"/>
      <point x="479" y="562" type="curve"/>
      <point x="572" y="721" type="line"/>
      <point x="572" y="728" type="line"/>
      <point x="419" y="728" type="line"/>
      <point x="365" y="618" type="line" smooth="yes"/>
      <point x="348" y="584"/>
      <point x="316" y="529"/>
      <point x="316" y="478" type="curve" smooth="yes"/>
      <point x="316" y="404"/>
      <point x="364" y="360"/>
    </contour>
    <contour>
      <point x="150" y="360" type="curve" smooth="yes"/>
      <point x="216" y="360"/>
      <point x="260" y="407"/>
      <point x="260" y="470" type="curve" smooth="yes"/>
      <point x="260" y="525"/>
      <point x="228" y="548"/>
      <point x="199" y="562" type="curve"/>
      <point x="292" y="721" type="line"/>
      <point x="292" y="728" type="line"/>
      <point x="139" y="728" type="line"/>
      <point x="85" y="618" type="line" smooth="yes"/>
      <point x="68" y="584"/>
      <point x="36" y="529"/>
      <point x="36" y="478" type="curve" smooth="yes"/>
      <point x="36" y="404"/>
      <point x="84" y="360"/>
    </contour>
  </outline>
</glyph>
<glyph name="quotedblright" format="2">
  <advance width="580"/>
  <unicode hex="201D"/>
  <note>
quotedblright
</note>
  <outline>
    <contour>
      <point x="101" y="526" type="curve"/>
      <point x="8" y="367" type="line"/>
      <point x="8" y="360" type="line"/>
      <point x="161" y="360" type="line"/>
      <point x="215" y="470" type="line" smooth="yes"/>
      <point x="232" y="504"/>
      <point x="264" y="559"/>
      <point x="264" y="610" type="curve" smooth="yes"/>
      <point x="264" y="684"/>
      <point x="216" y="728"/>
      <point x="150" y="728" type="curve" smooth="yes"/>
      <point x="84" y="728"/>
      <point x="40" y="681"/>
      <point x="40" y="618" type="curve" smooth="yes"/>
      <point x="40" y="563"/>
      <point x="72" y="540"/>
    </contour>
    <contour>
      <point x="381" y="526" type="curve"/>
      <point x="288" y="367" type="line"/>
      <point x="288" y="360" type="line"/>
      <point x="441" y="360" type="line"/>
      <point x="495" y="470" type="line" smooth="yes"/>
      <point x="512" y="504"/>
      <point x="544" y="559"/>
      <point x="544" y="610" type="curve" smooth="yes"/>
      <point x="544" y="684"/>
      <point x="496" y="728"/>
      <point x="430" y="728" type="curve" smooth="yes"/>
      <point x="364" y="728"/>
      <point x="320" y="681"/>
      <point x="320" y="618" type="curve" smooth="yes"/>
      <point x="320" y="563"/>
      <point x="352" y="540"/>
    </contour>
  </outline>
</glyph>
<glyph name="quotedblbase" format="2">
  <advance width="580"/>
  <unicode hex="201E"/>
  <note>
quotedblbase
</note>
  <outline>
    <contour>
      <point x="101" y="6" type="curve"/>
      <point x="8" y="-153" type="line"/>
      <point x="8" y="-160" type="line"/>
      <point x="161" y="-160" type="line"/>
      <point x="215" y="-50" type="line" smooth="yes"/>
      <point x="232" y="-16"/>
      <point x="264" y="39"/>
      <point x="264" y="90" type="curve" smooth="yes"/>
      <point x="264" y="164"/>
      <point x="216" y="208"/>
      <point x="150" y="208" type="curve" smooth="yes"/>
      <point x="84" y="208"/>
      <point x="40" y="161"/>
      <point x="40" y="98" type="curve" smooth="yes"/>
      <point x="40" y="43"/>
      <point x="72" y="20"/>
    </contour>
    <contour>
      <point x="381" y="6" type="curve"/>
      <point x="288" y="-153" type="line"/>
      <point x="288" y="-160" type="line"/>
      <point x="441" y="-160" type="line"/>
      <point x="495" y="-50" type="line" smooth="yes"/>
      <point x="512" y="-16"/>
      <point x="544" y="39"/>
      <point x="544" y="90" type="curve" smooth="yes"/>
      <point x="544" y="164"/>
      <point x="496" y="208"/>
      <point x="430" y="208" type="curve" smooth="yes"/>
      <point x="364" y="208"/>
      <point x="320" y="161"/>
      <point x="320" y="98" type="curve" smooth="yes"/>
      <point x="320" y="43"/>
      <point x="352" y="20"/>
    </contour>
  </outline>
</glyph>
<glyph name="dagger" format="2">
  <advance width="616"/>
  <unicode hex="2020"/>
  <note>
dagger
</note>
  <outline>
    <contour>
      <point x="36" y="334" type="line"/>
      <point x="580" y="334" type="line"/>
      <point x="580" y="496" type="line"/>
      <point x="36" y="496" type="line"/>
    </contour>
    <contour>
      <point x="212" y="-248" type="line"/>
      <point x="404" y="-248" type="line"/>
      <point x="404" y="720" type="line"/>
      <point x="212" y="720" type="line"/>
    </contour>
  </outline>
</glyph>
<glyph name="daggerdbl" format="2">
  <advance width="616"/>
  <unicode hex="2021"/>
  <note>
daggerdbl
</note>
  <outline>
    <contour>
      <point x="36" y="346" type="line"/>
      <point x="580" y="346" type="line"/>
      <point x="580" y="508" type="line"/>
      <point x="36" y="508" type="line"/>
    </contour>
    <contour>
      <point x="212" y="-248" type="line"/>
      <point x="404" y="-248" type="line"/>
      <point x="404" y="720" type="line"/>
      <point x="212" y="720" type="line"/>
    </contour>
    <contour>
      <point x="36" y="0" type="line"/>
      <point x="580" y="0" type="line"/>
      <point x="580" y="162" type="line"/>
      <point x="36" y="162" type="line"/>
    </contour>
  </outline>
</glyph>
<glyph name="bullet" format="2">
  <advance width="504"/>
  <unicode hex="2022"/>
  <note>
bullet
</note>
  <outline>
    <contour>
      <point x="252" y="200" type="curve" smooth="yes"/>
      <point x="340" y="200"/>
      <point x="416" y="264"/>
      <point x="416" y="364" type="curve" smooth="yes"/>
      <point x="416" y="464"/>
      <point x="340" y="528"/>
      <point x="252" y="528" type="curve" smooth="yes"/>
      <point x="164" y="528"/>
      <point x="88" y="464"/>
      <point x="88" y="364" type="curve" smooth="yes"/>
      <point x="88" y="264"/>
      <point x="164" y="200"/>
    </contour>
  </outline>
</glyph>
<glyph name="ellipsis" format="2">
  <advance width="852"/>
  <unicode hex="2026"/>
  <note>
ellipsis
</note>
  <outline>
    <contour>
      <point x="142" y="-12" type="curve" smooth="yes"/>
      <point x="208" y="-12"/>
      <point x="252" y="32"/>
      <point x="252" y="98" type="curve" smooth="yes"/>
      <point x="252" y="164"/>
      <point x="208" y="208"/>
      <point x="142" y="208" type="curve" smooth="yes"/>
      <point x="76" y="208"/>
      <point x="32" y="164"/>
      <point x="32" y="98" type="curve" smooth="yes"/>
      <point x="32" y="32"/>
      <point x="76" y="-12"/>
    </contour>
    <contour>
      <point x="426" y="-12" type="curve" smooth="yes"/>
      <point x="492" y="-12"/>
      <point x="536" y="32"/>
      <point x="536" y="98" type="curve" smooth="yes"/>
      <point x="536" y="164"/>
      <point x="492" y="208"/>
      <point x="426" y="208" type="curve" smooth="yes"/>
      <point x="360" y="208"/>
      <point x="316" y="164"/>
      <point x="316" y="98" type="curve" smooth="yes"/>
      <point x="316" y="32"/>
      <point x="360" y="-12"/>
    </contour>
    <contour>
      <point x="710" y="-12" type="curve" smooth="yes"/>
      <point x="776" y="-12"/>
      <point x="820" y="32"/>
      <point x="820" y="98" type="curve" smooth="yes"/>
      <point x="820" y="164"/>
      <point x="776" y="208"/>
      <point x="710" y="208" type="curve" smooth="yes"/>
      <point x="644" y="208"/>
      <point x="600" y="164"/>
      <point x="600" y="98" type="curve" smooth="yes"/>
      <point x="600" y="32"/>
      <point x="644" y="-12"/>
    </contour>
  </outline>
</glyph>
<glyph name="minute" format="2">
  <advance width="240"/>
  <unicode hex="2032"/>
  <outline>
    <contour>
      <point x="40" y="720" type="line"/>
      <point x="48" y="460" type="line"/>
      <point x="192" y="460" type="line"/>
      <point x="200" y="720" type="line"/>
    </contour>
  </outline>
</glyph>
<glyph name="fraction" format="2">
  <advance width="128"/>
  <unicode hex="2044"/>
  <note>
fraction
</note>
  <outline>
    <contour>
      <point x="-204" y="0" type="line"/>
      <point x="-92" y="0" type="line"/>
      <point x="332" y="720" type="line"/>
      <point x="220" y="720" type="line"/>
    </contour>
  </outline>
</glyph>
<glyph name="zeroinferior" format="2">
  <advance width="398"/>
  <unicode hex="2080"/>
  <note>
uni2080
</note>
  <outline>
    <contour>
      <point x="199" y="-168" type="curve" smooth="yes"/>
      <point x="332" y="-168"/>
      <point x="381" y="-74"/>
      <point x="381" y="40" type="curve" smooth="yes"/>
      <point x="381" y="153"/>
      <point x="332" y="248"/>
      <point x="199" y="248" type="curve" smooth="yes"/>
      <point x="66" y="248"/>
      <point x="17" y="153"/>
      <point x="17" y="40" type="curve" smooth="yes"/>
      <point x="17" y="-74"/>
      <point x="66" y="-168"/>
    </contour>
    <contour>
      <point x="199" y="-59" type="curve" smooth="yes"/>
      <point x="170" y="-59"/>
      <point x="167" y="-8"/>
      <point x="167" y="40" type="curve" smooth="yes"/>
      <point x="167" y="87"/>
      <point x="170" y="139"/>
      <point x="199" y="139" type="curve" smooth="yes"/>
      <point x="228" y="139"/>
      <point x="231" y="87"/>
      <point x="231" y="40" type="curve" smooth="yes"/>
      <point x="231" y="-8"/>
      <point x="228" y="-59"/>
    </contour>
  </outline>
</glyph>
<glyph name="twoinferior" format="2">
  <advance width="397"/>
  <unicode hex="2082"/>
  <note>
uni2082
</note>
  <outline>
    <contour>
      <point x="33" y="-160" type="curve"/>
      <point x="353" y="-160" type="line"/>
      <point x="353" y="-46" type="line"/>
      <point x="186" y="-46" type="line"/>
      <point x="191" y="-40"/>
      <point x="197" y="-35"/>
      <point x="206" y="-32" type="curve"/>
      <point x="221" y="-28" type="line"/>
      <point x="317" y="5"/>
      <point x="355" y="38"/>
      <point x="355" y="104" type="curve" smooth="yes"/>
      <point x="355" y="182"/>
      <point x="300" y="246"/>
      <point x="173" y="246" type="curve" smooth="yes"/>
      <point x="127" y="246"/>
      <point x="74" y="238"/>
      <point x="48" y="225" type="curve"/>
      <point x="48" y="112" type="line"/>
      <point x="58" y="112" type="line"/>
      <point x="66" y="119"/>
      <point x="115" y="131"/>
      <point x="149" y="131" type="curve" smooth="yes"/>
      <point x="193" y="131"/>
      <point x="203" y="115"/>
      <point x="203" y="101" type="curve" smooth="yes"/>
      <point x="203" y="86"/>
      <point x="197" y="75"/>
      <point x="177" y="68" type="curve" smooth="yes"/>
      <point x="152" y="60" type="line" smooth="yes"/>
      <point x="61" y="29"/>
      <point x="26" y="-25"/>
      <point x="26" y="-97" type="curve" smooth="yes"/>
      <point x="26" y="-120"/>
      <point x="26" y="-146"/>
    </contour>
  </outline>
</glyph>
<glyph name="threeinferior" format="2">
  <advance width="397"/>
  <unicode hex="2083"/>
  <note>
uni2083
</note>
  <outline>
    <contour>
      <point x="155" y="-168" type="curve" smooth="yes"/>
      <point x="304" y="-168"/>
      <point x="370" y="-109"/>
      <point x="370" y="-29" type="curve" smooth="yes"/>
      <point x="370" y="27"/>
      <point x="327" y="72"/>
      <point x="249" y="80" type="curve"/>
      <point x="335" y="165" type="line" smooth="yes"/>
      <point x="351" y="181"/>
      <point x="353" y="190"/>
      <point x="353" y="212" type="curve" smooth="yes"/>
      <point x="353" y="219"/>
      <point x="351" y="229"/>
      <point x="348" y="235" type="curve"/>
      <point x="342" y="240" type="line"/>
      <point x="39" y="240" type="line"/>
      <point x="39" y="131" type="line"/>
      <point x="158" y="131" type="line"/>
      <point x="85" y="43" type="line"/>
      <point x="110" y="-4" type="line"/>
      <point x="173" y="-4" type="line" smooth="yes"/>
      <point x="208" y="-4"/>
      <point x="217" y="-17"/>
      <point x="217" y="-29" type="curve" smooth="yes"/>
      <point x="217" y="-64"/>
      <point x="182" y="-64"/>
      <point x="149" y="-64" type="curve" smooth="yes"/>
      <point x="98" y="-64"/>
      <point x="62" y="-46"/>
      <point x="51" y="-39" type="curve"/>
      <point x="43" y="-39" type="line"/>
      <point x="43" y="-152" type="line"/>
      <point x="63" y="-159"/>
      <point x="103" y="-168"/>
    </contour>
  </outline>
</glyph>
<glyph name="seveninferior" format="2">
  <advance width="397"/>
  <unicode hex="2087"/>
  <note>
uni2087
</note>
  <outline>
    <contour>
      <point x="40" y="240" type="line"/>
      <point x="40" y="124" type="line"/>
      <point x="218" y="124" type="line"/>
      <point x="78" y="-151" type="line"/>
      <point x="78" y="-160" type="line"/>
      <point x="237" y="-160" type="line"/>
      <point x="355" y="148" type="line"/>
      <point x="365" y="168"/>
      <point x="372" y="188"/>
      <point x="372" y="209" type="curve" smooth="yes"/>
      <point x="372" y="216"/>
      <point x="374" y="227"/>
      <point x="373" y="234" type="curve"/>
      <point x="363" y="240" type="line"/>
    </contour>
  </outline>
</glyph>
<glyph name="eightinferior" format="2">
  <advance width="398"/>
  <unicode hex="2088"/>
  <note>
uni2088
</note>
  <outline>
    <contour>
      <point x="196" y="-168" type="curve" smooth="yes"/>
      <point x="316" y="-168"/>
      <point x="378" y="-116"/>
      <point x="378" y="-40" type="curve" smooth="yes"/>
      <point x="378" y="-2"/>
      <point x="355" y="30"/>
      <point x="318" y="50" type="curve"/>
      <point x="356" y="73"/>
      <point x="374" y="105"/>
      <point x="374" y="139" type="curve" smooth="yes"/>
      <point x="374" y="213"/>
      <point x="306" y="248"/>
      <point x="207" y="248" type="curve" smooth="yes"/>
      <point x="78" y="248"/>
      <point x="27" y="191"/>
      <point x="27" y="120" type="curve" smooth="yes"/>
      <point x="27" y="84"/>
      <point x="42" y="51"/>
      <point x="72" y="29" type="curve"/>
      <point x="41" y="12"/>
      <point x="20" y="-20"/>
      <point x="20" y="-57" type="curve" smooth="yes"/>
      <point x="20" y="-124"/>
      <point x="72" y="-168"/>
    </contour>
    <contour>
      <point x="194" y="-67" type="curve" smooth="yes"/>
      <point x="171" y="-67"/>
      <point x="164" y="-52"/>
      <point x="164" y="-39" type="curve" smooth="yes"/>
      <point x="164" y="-26"/>
      <point x="168" y="-14"/>
      <point x="175" y="-5" type="curve"/>
      <point x="210" y="-14"/>
      <point x="225" y="-19"/>
      <point x="225" y="-40" type="curve" smooth="yes"/>
      <point x="225" y="-59"/>
      <point x="213" y="-67"/>
    </contour>
    <contour>
      <point x="215" y="85" type="curve"/>
      <point x="186" y="94"/>
      <point x="175" y="104"/>
      <point x="175" y="123" type="curve" smooth="yes"/>
      <point x="175" y="140"/>
      <point x="186" y="150"/>
      <point x="203" y="150" type="curve" smooth="yes"/>
      <point x="227" y="150"/>
      <point x="232" y="137"/>
      <point x="232" y="124" type="curve" smooth="yes"/>
      <point x="232" y="114"/>
      <point x="228" y="97"/>
    </contour>
  </outline>
</glyph>
<glyph name="franc" format="2">
  <advance width="588"/>
  <unicode hex="20A3"/>
  <outline>
    <contour>
      <point x="68" y="0" type="line"/>
      <point x="280" y="0" type="line"/>
      <point x="280" y="720" type="line"/>
      <point x="68" y="720" type="line"/>
    </contour>
    <contour>
      <point x="180" y="276" type="line"/>
      <point x="508" y="276" type="line"/>
      <point x="508" y="448" type="line"/>
      <point x="180" y="448" type="line"/>
    </contour>
    <contour>
      <point x="180" y="536" type="line"/>
      <point x="556" y="536" type="line"/>
      <point x="556" y="720" type="line"/>
      <point x="180" y="720" type="line"/>
    </contour>
    <contour>
      <point x="12" y="96" type="line"/>
      <point x="376" y="96" type="line"/>
      <point x="376" y="228" type="line"/>
      <point x="12" y="228" type="line"/>
    </contour>
  </outline>
</glyph>
<glyph name="naira" format="2">
  <advance width="784"/>
  <unicode hex="20A6"/>
  <outline>
    <contour>
      <point x="80" y="0" type="line"/>
      <point x="280" y="0" type="line"/>
      <point x="280" y="527" type="line"/>
      <point x="219" y="502" type="line"/>
      <point x="536" y="0" type="line"/>
      <point x="704" y="0" type="line"/>
      <point x="704" y="720" type="line"/>
      <point x="504" y="720" type="line"/>
      <point x="504" y="193" type="line"/>
      <point x="565" y="218" type="line"/>
      <point x="248" y="720" type="line"/>
      <point x="80" y="720" type="line"/>
    </contour>
    <contour>
      <point x="12" y="196" type="line"/>
      <point x="772" y="196" type="line"/>
      <point x="772" y="304" type="line"/>
      <point x="12" y="304" type="line"/>
    </contour>
    <contour>
      <point x="12" y="419" type="line"/>
      <point x="772" y="419" type="line"/>
      <point x="772" y="527" type="line"/>
      <point x="12" y="527" type="line"/>
    </contour>
  </outline>
</glyph>
<glyph name="dong" format="2">
  <advance width="684"/>
  <unicode hex="20AB"/>
  <outline>
    <contour>
      <point x="680" y="766" type="line"/>
      <point x="308" y="766" type="line"/>
      <point x="308" y="666" type="line"/>
      <point x="680" y="666" type="line"/>
    </contour>
    <contour>
      <point x="368" y="136" type="curve" smooth="yes"/>
      <point x="480" y="136"/>
      <point x="556" y="152"/>
      <point x="612" y="176" type="curve"/>
      <point x="616" y="184" type="line"/>
      <point x="608" y="220"/>
      <point x="608" y="292"/>
      <point x="608" y="332" type="curve" smooth="yes"/>
      <point x="608" y="826" type="line"/>
      <point x="396" y="826" type="line"/>
      <point x="392" y="818" type="line"/>
      <point x="399" y="789"/>
      <point x="404" y="692"/>
      <point x="404" y="635" type="curve"/>
      <point x="404" y="565" type="line"/>
      <point x="432" y="616" type="line"/>
      <point x="423" y="619"/>
      <point x="384" y="632"/>
      <point x="332" y="631" type="curve" smooth="yes"/>
      <point x="196" y="628"/>
      <point x="84" y="541"/>
      <point x="84" y="384" type="curve" smooth="yes"/>
      <point x="84" y="208"/>
      <point x="216" y="136"/>
    </contour>
    <contour>
      <point x="422" y="230" type="curve"/>
      <point x="432" y="280" type="line"/>
      <point x="420" y="276"/>
      <point x="404" y="272"/>
      <point x="379" y="272" type="curve" smooth="yes"/>
      <point x="319" y="272"/>
      <point x="288" y="314"/>
      <point x="288" y="390" type="curve" smooth="yes"/>
      <point x="288" y="458"/>
      <point x="325" y="496"/>
      <point x="372" y="496" type="curve" smooth="yes"/>
      <point x="396" y="496"/>
      <point x="412" y="490"/>
      <point x="432" y="484" type="curve"/>
      <point x="404" y="541" type="line"/>
      <point x="404" y="336" type="line" smooth="yes"/>
      <point x="404" y="287"/>
      <point x="404" y="254"/>
    </contour>
    <contour>
      <point x="612" y="92" type="line"/>
      <point x="118" y="92" type="line"/>
      <point x="118" y="-40" type="line"/>
      <point x="612" y="-40" type="line"/>
    </contour>
  </outline>
</glyph>
<glyph name="kip" format="2">
  <advance width="704"/>
  <unicode hex="20AD"/>
  <outline>
    <contour>
      <point x="80" y="0" type="line"/>
      <point x="292" y="0" type="line"/>
      <point x="292" y="720" type="line"/>
      <point x="80" y="720" type="line"/>
    </contour>
    <contour>
      <point x="12" y="244" type="line"/>
      <point x="680" y="244" type="line"/>
      <point x="680" y="400" type="line"/>
      <point x="12" y="400" type="line"/>
    </contour>
    <contour>
      <point x="477" y="215" type="line"/>
      <point x="672" y="708" type="line"/>
      <point x="672" y="720" type="line"/>
      <point x="464" y="720" type="line"/>
      <point x="328" y="308" type="line"/>
      <point x="467" y="0" type="line"/>
      <point x="685" y="0" type="line"/>
      <point x="685" y="12" type="line"/>
      <point x="480" y="368" type="line"/>
    </contour>
  </outline>
</glyph>
<glyph name="cedi" format="2">
  <advance width="648"/>
  <unicode hex="20B5"/>
  <anchor x="388" y="0" name="bottom"/>
  <anchor x="388" y="720" name="top"/>
  <outline>
    <contour>
      <point x="364" y="800" type="line"/>
      <point x="364" y="-112" type="line"/>
      <point x="480" y="-112" type="line"/>
      <point x="480" y="800" type="line"/>
    </contour>
    <component base="C"/>
  </outline>
</glyph>
<glyph name="rupeeIndian" format="2">
  <advance width="644"/>
  <unicode hex="20B9"/>
  <outline>
    <contour>
      <point x="288" y="0" type="line"/>
      <point x="546" y="0" type="line"/>
      <point x="546" y="12" type="line"/>
      <point x="301" y="222" type="line"/>
      <point x="173" y="164" type="line"/>
      <point x="232" y="164" type="line" smooth="yes"/>
      <point x="408" y="164"/>
      <point x="568" y="282"/>
      <point x="568" y="460" type="curve" smooth="yes"/>
      <point x="568" y="616"/>
      <point x="469" y="720"/>
      <point x="252" y="720" type="curve" smooth="yes"/>
      <point x="80" y="720" type="line"/>
      <point x="80" y="556" type="line"/>
      <point x="252" y="556" type="line" smooth="yes"/>
      <point x="326" y="556"/>
      <point x="356" y="528"/>
      <point x="356" y="452" type="curve" smooth="yes"/>
      <point x="356" y="384"/>
      <point x="312" y="332"/>
      <point x="216" y="332" type="curve" smooth="yes"/>
      <point x="100" y="332" type="line"/>
      <point x="68" y="208" type="line"/>
    </contour>
    <contour>
      <point x="80" y="390" type="line"/>
      <point x="632" y="390" type="line"/>
      <point x="632" y="514" type="line"/>
      <point x="80" y="514" type="line"/>
    </contour>
    <contour>
      <point x="102" y="592" type="line"/>
      <point x="632" y="592" type="line"/>
      <point x="632" y="720" type="line"/>
      <point x="102" y="720" type="line"/>
    </contour>
  </outline>
</glyph>
<glyph name="liraTurkish" format="2">
  <advance width="632"/>
  <unicode hex="20BA"/>
  <outline>
    <contour>
      <point x="264" y="-8" type="curve" smooth="yes"/>
      <point x="456" y="-8"/>
      <point x="571" y="54"/>
      <point x="594" y="232" type="curve" smooth="yes"/>
      <point x="604" y="308" type="line"/>
      <point x="604" y="324" type="line"/>
      <point x="424" y="324" type="line"/>
      <point x="416" y="248" type="line" smooth="yes"/>
      <point x="410" y="189"/>
      <point x="376" y="156"/>
      <point x="320" y="156" type="curve" smooth="yes"/>
      <point x="271" y="156"/>
      <point x="260" y="162"/>
      <point x="244" y="168" type="curve"/>
      <point x="264" y="119" type="line"/>
      <point x="270" y="136"/>
      <point x="280" y="175"/>
      <point x="280" y="220" type="curve" smooth="yes"/>
      <point x="280" y="720" type="line"/>
      <point x="80" y="720" type="line"/>
      <point x="80" y="184" type="line" smooth="yes"/>
      <point x="80" y="144"/>
      <point x="76" y="60"/>
      <point x="68" y="24" type="curve"/>
      <point x="72" y="12" type="line"/>
      <point x="127" y="0"/>
      <point x="189" y="-8"/>
    </contour>
    <contour>
      <point x="12" y="240" type="line"/>
      <point x="20" y="240" type="line"/>
      <point x="392" y="352" type="line"/>
      <point x="392" y="460" type="line"/>
      <point x="384" y="460" type="line"/>
      <point x="12" y="348" type="line"/>
    </contour>
    <contour>
      <point x="12" y="400" type="line"/>
      <point x="20" y="400" type="line"/>
      <point x="392" y="512" type="line"/>
      <point x="392" y="620" type="line"/>
      <point x="384" y="620" type="line"/>
      <point x="12" y="508" type="line"/>
    </contour>
  </outline>
</glyph>
<glyph name="manat" format="2">
  <advance width="696"/>
  <unicode hex="20BC"/>
  <outline>
    <contour>
      <point x="40" y="0" type="line"/>
      <point x="216" y="0" type="line"/>
      <point x="216" y="292" type="line" smooth="yes"/>
      <point x="216" y="432"/>
      <point x="252" y="508"/>
      <point x="348" y="508" type="curve" smooth="yes"/>
      <point x="444" y="508"/>
      <point x="480" y="432"/>
      <point x="480" y="292" type="curve" smooth="yes"/>
      <point x="480" y="0" type="line"/>
      <point x="656" y="0" type="line"/>
      <point x="656" y="260" type="line" smooth="yes"/>
      <point x="656" y="516"/>
      <point x="580" y="652"/>
      <point x="348" y="652" type="curve" smooth="yes"/>
      <point x="116" y="652"/>
      <point x="40" y="516"/>
      <point x="40" y="260" type="curve" smooth="yes"/>
    </contour>
    <contour>
      <point x="280" y="102" type="line"/>
      <point x="420" y="102" type="line"/>
      <point x="420" y="732" type="line"/>
      <point x="280" y="732" type="line"/>
    </contour>
  </outline>
</glyph>
<glyph name="ruble" format="2">
  <advance width="688"/>
  <unicode hex="20BD"/>
  <outline>
    <contour>
      <point x="12" y="220" type="line"/>
      <point x="348" y="220" type="line" smooth="yes"/>
      <point x="540" y="220"/>
      <point x="656" y="320"/>
      <point x="656" y="492" type="curve" smooth="yes"/>
      <point x="656" y="632"/>
      <point x="556" y="720"/>
      <point x="384" y="720" type="curve" smooth="yes"/>
      <point x="212" y="720" type="line"/>
      <point x="212" y="556" type="line"/>
      <point x="368" y="556" type="line" smooth="yes"/>
      <point x="424" y="556"/>
      <point x="452" y="528"/>
      <point x="452" y="478" type="curve" smooth="yes"/>
      <point x="452" y="416"/>
      <point x="420" y="380"/>
      <point x="348" y="380" type="curve" smooth="yes"/>
      <point x="12" y="380" type="line"/>
    </contour>
    <contour>
      <point x="100" y="0" type="line"/>
      <point x="312" y="0" type="line"/>
      <point x="312" y="720" type="line"/>
      <point x="100" y="720" type="line"/>
    </contour>
    <contour>
      <point x="12" y="68" type="line"/>
      <point x="484" y="68" type="line"/>
      <point x="484" y="188" type="line"/>
      <point x="12" y="188" type="line"/>
    </contour>
  </outline>
</glyph>
<glyph name="northEastArrow" format="2">
  <advance width="655"/>
  <unicode hex="2197"/>
  <note>
uni2197
</note>
  <outline>
    <contour>
      <point x="36" y="84" type="line"/>
      <point x="144" y="-24" type="line"/>
      <point x="378" y="217" type="line" smooth="yes"/>
      <point x="426" y="266"/>
      <point x="458" y="304"/>
      <point x="482" y="334" type="curve"/>
      <point x="481" y="312"/>
      <point x="482" y="291"/>
      <point x="483" y="276" type="curve" smooth="yes"/>
      <point x="492" y="160" type="line"/>
      <point x="619" y="169" type="line"/>
      <point x="602" y="395" type="line" smooth="yes"/>
      <point x="600" y="423"/>
      <point x="599" y="466"/>
      <point x="602" y="502" type="curve"/>
      <point x="562" y="542" type="line"/>
      <point x="526" y="539"/>
      <point x="483" y="540"/>
      <point x="455" y="542" type="curve" smooth="yes"/>
      <point x="229" y="559" type="line"/>
      <point x="220" y="432" type="line"/>
      <point x="336" y="423" type="line" smooth="yes"/>
      <point x="351" y="422"/>
      <point x="372" y="421"/>
      <point x="394" y="422" type="curve"/>
      <point x="364" y="398"/>
      <point x="325" y="365"/>
      <point x="277" y="318" type="curve" smooth="yes"/>
    </contour>
  </outline>
</glyph>
<glyph name="partialdiff" format="2">
  <advance width="616"/>
  <unicode hex="2202"/>
  <note>
partialdiff
</note>
  <outline>
    <contour>
      <point x="300" y="-12" type="curve" smooth="yes"/>
      <point x="521" y="-12"/>
      <point x="578" y="146"/>
      <point x="578" y="346" type="curve" smooth="yes"/>
      <point x="578" y="565"/>
      <point x="474" y="732"/>
      <point x="213" y="732" type="curve" smooth="yes"/>
      <point x="164" y="732"/>
      <point x="128" y="726"/>
      <point x="96" y="717" type="curve"/>
      <point x="96" y="581" type="line"/>
      <point x="106" y="581" type="line"/>
      <point x="130" y="590"/>
      <point x="162" y="600"/>
      <point x="216" y="600" type="curve" smooth="yes"/>
      <point x="348" y="600"/>
      <point x="420" y="520"/>
      <point x="420" y="385" type="curve" smooth="yes"/>
      <point x="420" y="204"/>
      <point x="406" y="114"/>
      <point x="298" y="114" type="curve" smooth="yes"/>
      <point x="221" y="114"/>
      <point x="192" y="168"/>
      <point x="192" y="234" type="curve" smooth="yes"/>
      <point x="192" y="304"/>
      <point x="224" y="350"/>
      <point x="305" y="350" type="curve" smooth="yes"/>
      <point x="366" y="350"/>
      <point x="404" y="324"/>
      <point x="432" y="288" type="curve"/>
      <point x="480" y="288" type="line"/>
      <point x="480" y="416" type="line"/>
      <point x="432" y="416" type="line"/>
      <point x="396" y="444"/>
      <point x="348" y="470"/>
      <point x="272" y="470" type="curve" smooth="yes"/>
      <point x="116" y="470"/>
      <point x="40" y="376"/>
      <point x="40" y="240" type="curve" smooth="yes"/>
      <point x="40" y="82"/>
      <point x="142" y="-12"/>
    </contour>
  </outline>
</glyph>
<glyph name="emptyset" format="2">
  <advance width="736"/>
  <unicode hex="2205"/>
  <outline>
    <contour>
      <point x="59" y="308" type="curve" smooth="yes"/>
      <point x="59" y="129"/>
      <point x="185" y="8"/>
      <point x="368" y="8" type="curve" smooth="yes"/>
      <point x="551" y="8"/>
      <point x="677" y="129"/>
      <point x="677" y="308" type="curve" smooth="yes"/>
      <point x="677" y="487"/>
      <point x="551" y="608"/>
      <point x="368" y="608" type="curve" smooth="yes"/>
      <point x="185" y="608"/>
      <point x="59" y="487"/>
    </contour>
    <contour>
      <point x="152" y="308" type="curve" smooth="yes"/>
      <point x="152" y="447"/>
      <point x="242" y="528"/>
      <point x="368" y="528" type="curve" smooth="yes"/>
      <point x="493" y="528"/>
      <point x="583" y="447"/>
      <point x="583" y="308" type="curve" smooth="yes"/>
      <point x="583" y="169"/>
      <point x="493" y="88"/>
      <point x="368" y="88" type="curve" smooth="yes"/>
      <point x="242" y="88"/>
      <point x="152" y="169"/>
    </contour>
    <contour>
      <point x="656" y="656" type="line"/>
      <point x="20" y="20" type="line"/>
      <point x="80" y="-40" type="line"/>
      <point x="716" y="596" type="line"/>
    </contour>
  </outline>
</glyph>
<glyph name="bulletoperator" format="2">
  <advance width="304"/>
  <unicode hex="2219"/>
  <note>
uni2219
</note>
  <outline>
    <contour>
      <point x="142" y="258" type="curve" smooth="yes"/>
      <point x="208" y="258"/>
      <point x="252" y="302"/>
      <point x="252" y="368" type="curve" smooth="yes"/>
      <point x="252" y="434"/>
      <point x="208" y="478"/>
      <point x="142" y="478" type="curve" smooth="yes"/>
      <point x="76" y="478"/>
      <point x="32" y="434"/>
      <point x="32" y="368" type="curve" smooth="yes"/>
      <point x="32" y="302"/>
      <point x="76" y="258"/>
    </contour>
  </outline>
</glyph>
<glyph name="integral" format="2">
  <advance width="485"/>
  <unicode hex="222B"/>
  <note>
integral
</note>
  <outline>
    <contour>
      <point x="16" y="-64" type="curve"/>
      <point x="16" y="-195" type="line"/>
      <point x="29" y="-203"/>
      <point x="67" y="-208"/>
      <point x="109" y="-208" type="curve" smooth="yes"/>
      <point x="257" y="-208"/>
      <point x="321" y="-119"/>
      <point x="321" y="33" type="curve" smooth="yes"/>
      <point x="321" y="491" type="line" smooth="yes"/>
      <point x="321" y="567"/>
      <point x="355" y="597"/>
      <point x="414" y="597" type="curve" smooth="yes"/>
      <point x="431" y="597"/>
      <point x="450" y="593"/>
      <point x="461" y="588" type="curve"/>
      <point x="461" y="719" type="line"/>
      <point x="448" y="727"/>
      <point x="410" y="732"/>
      <point x="367" y="732" type="curve" smooth="yes"/>
      <point x="219" y="732"/>
      <point x="155" y="643"/>
      <point x="155" y="491" type="curve" smooth="yes"/>
      <point x="155" y="33" type="line" smooth="yes"/>
      <point x="155" y="-43"/>
      <point x="122" y="-73"/>
      <point x="63" y="-73" type="curve" smooth="yes"/>
      <point x="46" y="-73"/>
      <point x="27" y="-69"/>
    </contour>
  </outline>
</glyph>
<glyph name="approxequal" format="2">
  <advance width="616"/>
  <unicode hex="2248"/>
  <note>
approxequal
</note>
  <outline>
    <contour>
      <point x="555" y="564" type="curve"/>
      <point x="432" y="564" type="line"/>
      <point x="432" y="516"/>
      <point x="428" y="478"/>
      <point x="398" y="478" type="curve" smooth="yes"/>
      <point x="369" y="478"/>
      <point x="353" y="502"/>
      <point x="328" y="525" type="curve" smooth="yes"/>
      <point x="306" y="545"/>
      <point x="276" y="564"/>
      <point x="223" y="564" type="curve" smooth="yes"/>
      <point x="114" y="564"/>
      <point x="63" y="478"/>
      <point x="63" y="348" type="curve"/>
      <point x="186" y="348" type="line"/>
      <point x="186" y="396"/>
      <point x="190" y="434"/>
      <point x="220" y="434" type="curve" smooth="yes"/>
      <point x="249" y="434"/>
      <point x="265" y="410"/>
      <point x="290" y="387" type="curve" smooth="yes"/>
      <point x="312" y="367"/>
      <point x="342" y="348"/>
      <point x="395" y="348" type="curve" smooth="yes"/>
      <point x="504" y="348"/>
      <point x="555" y="434"/>
    </contour>
    <contour>
      <point x="555" y="284" type="curve"/>
      <point x="432" y="284" type="line"/>
      <point x="432" y="236"/>
      <point x="428" y="198"/>
      <point x="398" y="198" type="curve" smooth="yes"/>
      <point x="369" y="198"/>
      <point x="353" y="222"/>
      <point x="328" y="245" type="curve" smooth="yes"/>
      <point x="306" y="265"/>
      <point x="276" y="284"/>
      <point x="223" y="284" type="curve" smooth="yes"/>
      <point x="114" y="284"/>
      <point x="63" y="198"/>
      <point x="63" y="68" type="curve"/>
      <point x="186" y="68" type="line"/>
      <point x="186" y="116"/>
      <point x="190" y="154"/>
      <point x="220" y="154" type="curve" smooth="yes"/>
      <point x="249" y="154"/>
      <point x="265" y="130"/>
      <point x="290" y="107" type="curve" smooth="yes"/>
      <point x="312" y="87"/>
      <point x="342" y="68"/>
      <point x="395" y="68" type="curve" smooth="yes"/>
      <point x="504" y="68"/>
      <point x="555" y="154"/>
    </contour>
  </outline>
</glyph>
<glyph name="notequal" format="2">
  <advance width="616"/>
  <unicode hex="2260"/>
  <note>
notequal
</note>
  <outline>
    <contour>
      <point x="92" y="32" type="line"/>
      <point x="192" y="32" type="line"/>
      <point x="524" y="600" type="line"/>
      <point x="424" y="600" type="line"/>
    </contour>
    <contour>
      <point x="64" y="140" type="line"/>
      <point x="552" y="140" type="line"/>
      <point x="552" y="268" type="line"/>
      <point x="64" y="268" type="line"/>
    </contour>
    <contour>
      <point x="64" y="364" type="line"/>
      <point x="552" y="364" type="line"/>
      <point x="552" y="492" type="line"/>
      <point x="64" y="492" type="line"/>
    </contour>
  </outline>
</glyph>
<glyph name="lessequal" format="2">
  <advance width="616"/>
  <unicode hex="2264"/>
  <note>
lessequal
</note>
  <outline>
    <contour>
      <point x="84" y="128" type="line"/>
      <point x="84" y="0" type="line"/>
      <point x="532" y="0" type="line"/>
      <point x="532" y="128" type="line"/>
    </contour>
    <contour>
      <point x="84" y="408" type="line"/>
      <point x="524" y="188" type="line"/>
      <point x="532" y="188" type="line"/>
      <point x="532" y="328" type="line"/>
      <point x="272" y="448" type="line"/>
      <point x="532" y="572" type="line"/>
      <point x="532" y="708" type="line"/>
      <point x="524" y="708" type="line"/>
      <point x="84" y="488" type="line"/>
    </contour>
  </outline>
</glyph>
<glyph name="rightBlackTriangle" format="2">
  <advance width="648"/>
  <unicode hex="25B6"/>
  <note>
uni25B6
</note>
  <outline>
    <contour>
      <point x="96" y="562" type="line"/>
      <point x="96" y="-30" type="line"/>
      <point x="628" y="266" type="line"/>
    </contour>
  </outline>
</glyph>
<glyph name="rightWhiteTriangle" format="2">
  <advance width="648"/>
  <unicode hex="25B7"/>
  <note>
uni25B7
</note>
  <outline>
    <contour>
      <point x="96" y="-30" type="line"/>
      <point x="628" y="266" type="line"/>
      <point x="96" y="562" type="line"/>
    </contour>
    <contour>
      <point x="236" y="184" type="line"/>
      <point x="236" y="348" type="line"/>
      <point x="386" y="266" type="line"/>
    </contour>
  </outline>
</glyph>
<glyph name="downBlackTriangle" format="2">
  <advance width="648"/>
  <unicode hex="25BC"/>
  <note>
uni25C0
</note>
  <outline>
    <contour>
      <point x="324" y="0" type="line"/>
      <point x="620" y="532" type="line"/>
      <point x="28" y="532" type="line"/>
    </contour>
  </outline>
</glyph>
<glyph name="downWhiteTriangle" format="2">
  <advance width="648"/>
  <unicode hex="25BD"/>
  <note>
uni25C1
</note>
  <outline>
    <contour>
      <point x="28" y="532" type="line"/>
      <point x="324" y="0" type="line"/>
      <point x="620" y="532" type="line"/>
    </contour>
    <contour>
      <point x="242" y="392" type="line"/>
      <point x="406" y="392" type="line"/>
      <point x="324" y="242" type="line"/>
    </contour>
  </outline>
</glyph>
<glyph name="leftWhiteTriangle" format="2">
  <advance width="648"/>
  <unicode hex="25C1"/>
  <note>
uni25C1
</note>
  <outline>
    <contour>
      <point x="552" y="-30" type="line"/>
      <point x="552" y="562" type="line"/>
      <point x="20" y="266" type="line"/>
    </contour>
    <contour>
      <point x="412" y="184" type="line"/>
      <point x="262" y="266" type="line"/>
      <point x="412" y="348" type="line"/>
    </contour>
  </outline>
</glyph>
<glyph name="lozenge" format="2">
  <advance width="674"/>
  <unicode hex="25CA"/>
  <note>
lozenge
</note>
  <outline>
    <contour>
      <point x="254" y="720" type="line"/>
      <point x="28" y="300" type="line"/>
      <point x="254" y="-120" type="line"/>
      <point x="420" y="-120" type="line"/>
      <point x="646" y="300" type="line"/>
      <point x="420" y="720" type="line"/>
    </contour>
    <contour>
      <point x="337" y="558" type="line"/>
      <point x="476" y="300" type="line"/>
      <point x="337" y="42" type="line"/>
      <point x="199" y="300" type="line"/>
    </contour>
  </outline>
</glyph>
<glyph name="whiteCircle" format="2">
  <advance width="682"/>
  <unicode hex="25CB"/>
  <note>
uni25CB
</note>
  <outline>
    <contour>
      <point x="48" y="272" type="curve" smooth="yes"/>
      <point x="48" y="101"/>
      <point x="165" y="-12"/>
      <point x="341" y="-12" type="curve" smooth="yes"/>
      <point x="517" y="-12"/>
      <point x="634" y="101"/>
      <point x="634" y="272" type="curve" smooth="yes"/>
      <point x="634" y="443"/>
      <point x="517" y="556"/>
      <point x="341" y="556" type="curve" smooth="yes"/>
      <point x="165" y="556"/>
      <point x="48" y="443"/>
    </contour>
    <contour>
      <point x="196" y="272" type="curve" smooth="yes"/>
      <point x="196" y="366"/>
      <point x="249" y="424"/>
      <point x="342" y="424" type="curve" smooth="yes"/>
      <point x="435" y="424"/>
      <point x="488" y="366"/>
      <point x="488" y="272" type="curve" smooth="yes"/>
      <point x="488" y="178"/>
      <point x="435" y="120"/>
      <point x="342" y="120" type="curve" smooth="yes"/>
      <point x="249" y="120"/>
      <point x="196" y="178"/>
    </contour>
  </outline>
</glyph>
<glyph name="mediumWhiteSquare" format="2">
  <advance width="748"/>
  <unicode hex="25FB"/>
  <note>
uni25FB
</note>
  <outline>
    <contour>
      <point x="96" y="536" type="line"/>
      <point x="96" y="0" type="line"/>
      <point x="652" y="0" type="line"/>
      <point x="652" y="536" type="line"/>
    </contour>
    <contour>
      <point x="492" y="136" type="line"/>
      <point x="256" y="136" type="line"/>
      <point x="256" y="400" type="line"/>
      <point x="492" y="400" type="line"/>
    </contour>
  </outline>
</glyph>
<glyph name="mediumBlackSquare" format="2">
  <advance width="748"/>
  <unicode hex="25FC"/>
  <note>
uni25FC
</note>
  <outline>
    <contour>
      <point x="96" y="536" type="line"/>
      <point x="96" y="0" type="line"/>
      <point x="652" y="0" type="line"/>
      <point x="652" y="536" type="line"/>
    </contour>
  </outline>
</glyph>
<glyph name="fi" format="2">
  <advance width="814"/>
  <unicode hex="FB01"/>
  <note>
fi
</note>
  <anchor x="435" y="1" name="caret_1"/>
  <outline>
    <contour>
      <point x="532" y="0" type="line"/>
      <point x="744" y="0" type="line"/>
      <point x="744" y="548" type="line"/>
      <point x="532" y="548" type="line"/>
    </contour>
    <contour>
      <point x="640" y="620" type="curve" smooth="yes"/>
      <point x="704" y="620"/>
      <point x="748" y="656"/>
      <point x="748" y="724" type="curve" smooth="yes"/>
      <point x="748" y="792"/>
      <point x="704" y="828"/>
      <point x="640" y="828" type="curve" smooth="yes"/>
      <point x="576" y="828"/>
      <point x="532" y="792"/>
      <point x="532" y="724" type="curve" smooth="yes"/>
      <point x="532" y="656"/>
      <point x="576" y="620"/>
    </contour>
    <component base="_part.f.liga"/>
  </outline>
</glyph>
<glyph name="__twodotsvertical" format="2">
  <advance width="400"/>
  <outline>
    <contour>
      <point x="210" y="436" type="curve" smooth="yes"/>
      <point x="260" y="436"/>
      <point x="300" y="468"/>
      <point x="300" y="526" type="curve" smooth="yes"/>
      <point x="300" y="584"/>
      <point x="260" y="616"/>
      <point x="210" y="616" type="curve" smooth="yes"/>
      <point x="160" y="616"/>
      <point x="120" y="584"/>
      <point x="120" y="526" type="curve" smooth="yes"/>
      <point x="120" y="468"/>
      <point x="160" y="436"/>
    </contour>
    <contour>
      <point x="209" y="227" type="curve" smooth="yes"/>
      <point x="259" y="227"/>
      <point x="299" y="259"/>
      <point x="299" y="317" type="curve" smooth="yes"/>
      <point x="299" y="375"/>
      <point x="259" y="407"/>
      <point x="209" y="407" type="curve" smooth="yes"/>
      <point x="159" y="407"/>
      <point x="119" y="375"/>
      <point x="119" y="317" type="curve" smooth="yes"/>
      <point x="119" y="259"/>
      <point x="159" y="227"/>
    </contour>
  </outline>
</glyph>
<glyph name="_alefMaksura_hah-ar.2.init" format="2">
  <advance width="846"/>
  <anchor x="285" y="0" name="bottom"/>
  <anchor x="809" y="565" name="bottom_1"/>
  <anchor x="388" y="489" name="top"/>
  <anchor x="680" y="731" name="top_1"/>
  <outline>
    <contour>
      <point x="747" y="176" type="line" smooth="yes"/>
      <point x="635" y="176"/>
      <point x="357" y="440"/>
      <point x="188" y="600" type="curve"/>
      <point x="176" y="600" type="line"/>
      <point x="60" y="436" type="line"/>
      <point x="176" y="322"/>
      <point x="308" y="211"/>
      <point x="424" y="152" type="curve"/>
      <point x="467" y="176" type="line"/>
      <point x="0" y="176" type="line"/>
      <point x="-20" y="156" type="line"/>
      <point x="-20" y="-1" type="line"/>
      <point x="772" y="0" type="line"/>
      <point x="836" y="164" type="line"/>
      <point x="836" y="176" type="line"/>
    </contour>
    <contour>
      <point x="367" y="317" type="line"/>
      <point x="407" y="306"/>
      <point x="444" y="299"/>
      <point x="480" y="299" type="curve" smooth="yes"/>
      <point x="670" y="299"/>
      <point x="788" y="388"/>
      <point x="788" y="588" type="curve" smooth="yes"/>
      <point x="788" y="700" type="line"/>
      <point x="776" y="700" type="line"/>
      <point x="576" y="680" type="line"/>
      <point x="576" y="544" type="line" smooth="yes"/>
      <point x="576" y="487"/>
      <point x="573" y="454"/>
      <point x="544" y="435" type="curve"/>
      <point x="610" y="501" type="line"/>
      <point x="578" y="466"/>
      <point x="518" y="449"/>
      <point x="456" y="448" type="curve" smooth="yes"/>
      <point x="397" y="447"/>
      <point x="336" y="460"/>
      <point x="293" y="483" type="curve"/>
    </contour>
  </outline>
</glyph>
<glyph name="_part.f.short" format="2">
  <advance width="464"/>
  <outline>
    <contour>
      <point x="100" y="0" type="line"/>
      <point x="312" y="0" type="line"/>
      <point x="312" y="544" type="line" smooth="yes"/>
      <point x="312" y="612"/>
      <point x="344" y="624"/>
      <point x="392" y="624" type="curve" smooth="yes"/>
      <point x="408" y="624"/>
      <point x="424" y="621"/>
      <point x="436" y="616" type="curve"/>
      <point x="448" y="616" type="line"/>
      <point x="448" y="768" type="line"/>
      <point x="428" y="772"/>
      <point x="408" y="776"/>
      <point x="368" y="776" type="curve" smooth="yes"/>
      <point x="212" y="776"/>
      <point x="100" y="708"/>
      <point x="100" y="536" type="curve" smooth="yes"/>
    </contour>
    <contour>
      <point x="8" y="388" type="line"/>
      <point x="432" y="388" type="line"/>
      <point x="432" y="548" type="line"/>
      <point x="8" y="548" type="line"/>
    </contour>
  </outline>
</glyph>
<glyph name="_v-ar" format="2">
  <advance width="250"/>
  <outline>
    <contour>
      <point x="84" y="332" type="line"/>
      <point x="-28" y="332" type="line"/>
      <point x="-28" y="328" type="line"/>
      <point x="60" y="176" type="line"/>
      <point x="188" y="176" type="line"/>
      <point x="284" y="328" type="line"/>
      <point x="284" y="332" type="line"/>
      <point x="176" y="332" type="line"/>
      <point x="127" y="255" type="line"/>
    </contour>
  </outline>
</glyph>
<glyph name="_vinverted-ar" format="2">
  <advance width="250"/>
  <outline>
    <contour>
      <point x="172" y="176" type="line"/>
      <point x="284" y="176" type="line"/>
      <point x="284" y="180" type="line"/>
      <point x="196" y="332" type="line"/>
      <point x="68" y="332" type="line"/>
      <point x="-28" y="180" type="line"/>
      <point x="-28" y="176" type="line"/>
      <point x="80" y="176" type="line"/>
      <point x="129" y="253" type="line"/>
    </contour>
  </outline>
</glyph>
<glyph name="a.inferior" format="2">
  <advance width="463"/>
  <note>
a.inferior
</note>
  <outline>
    <contour>
      <point x="238" y="-169" type="curve" smooth="yes"/>
      <point x="311" y="-169"/>
      <point x="375" y="-158"/>
      <point x="421" y="-147" type="curve"/>
      <point x="424" y="-141" type="line"/>
      <point x="417" y="-115"/>
      <point x="415" y="-57"/>
      <point x="415" y="-24" type="curve" smooth="yes"/>
      <point x="415" y="68" type="line" smooth="yes"/>
      <point x="415" y="212"/>
      <point x="328" y="252"/>
      <point x="193" y="252" type="curve" smooth="yes"/>
      <point x="139" y="252"/>
      <point x="95" y="246"/>
      <point x="60" y="239" type="curve"/>
      <point x="60" y="117" type="line"/>
      <point x="70" y="117" type="line"/>
      <point x="93" y="127"/>
      <point x="130" y="133"/>
      <point x="175" y="133" type="curve" smooth="yes"/>
      <point x="227" y="133"/>
      <point x="255" y="123"/>
      <point x="255" y="82" type="curve"/>
      <point x="242" y="83"/>
      <point x="224" y="85"/>
      <point x="205" y="85" type="curve" smooth="yes"/>
      <point x="106" y="85"/>
      <point x="29" y="51"/>
      <point x="29" y="-41" type="curve" smooth="yes"/>
      <point x="29" y="-138"/>
      <point x="101" y="-169"/>
    </contour>
    <contour>
      <point x="227" y="-67" type="curve" smooth="yes"/>
      <point x="197" y="-67"/>
      <point x="179" y="-60"/>
      <point x="179" y="-37" type="curve" smooth="yes"/>
      <point x="179" y="-15"/>
      <point x="193" y="-4"/>
      <point x="229" y="-4" type="curve" smooth="yes"/>
      <point x="242" y="-4"/>
      <point x="250" y="-4"/>
      <point x="255" y="-5" type="curve"/>
      <point x="256" y="-29"/>
      <point x="260" y="-49"/>
      <point x="264" y="-63" type="curve"/>
      <point x="253" y="-66"/>
      <point x="239" y="-67"/>
    </contour>
  </outline>
</glyph>
<glyph name="a.sc" format="2">
  <advance width="678"/>
  <note>
a.sc
</note>
  <anchor x="339" y="0" name="bottom"/>
  <anchor x="604" y="0" name="ogonek"/>
  <anchor x="368" y="572" name="top"/>
  <outline>
    <contour>
      <point x="28" y="0" type="line"/>
      <point x="236" y="0" type="line"/>
      <point x="300" y="360" type="line" smooth="yes"/>
      <point x="307" y="399"/>
      <point x="332" y="420"/>
      <point x="380" y="420" type="curve" smooth="yes"/>
      <point x="395" y="420"/>
      <point x="456" y="420"/>
      <point x="503" y="362" type="curve"/>
      <point x="417" y="457" type="line"/>
      <point x="400" y="442"/>
      <point x="396" y="405"/>
      <point x="396" y="364" type="curve" smooth="yes"/>
      <point x="396" y="0" type="line"/>
      <point x="604" y="0" type="line"/>
      <point x="604" y="412" type="line" smooth="yes"/>
      <point x="604" y="472"/>
      <point x="608" y="524"/>
      <point x="614" y="552" type="curve"/>
      <point x="612" y="560" type="line"/>
      <point x="565" y="570"/>
      <point x="491" y="580"/>
      <point x="436" y="580" type="curve" smooth="yes"/>
      <point x="273" y="580"/>
      <point x="132" y="565"/>
      <point x="96" y="368" type="curve" smooth="yes"/>
    </contour>
    <contour>
      <point x="155" y="108" type="line"/>
      <point x="496" y="108" type="line"/>
      <point x="496" y="268" type="line"/>
      <point x="155" y="268" type="line"/>
    </contour>
  </outline>
</glyph>
<glyph name="ae.sc" format="2">
  <advance width="872"/>
  <note>
ae.sc
</note>
  <anchor x="436" y="0" name="bottom"/>
  <anchor x="506" y="572" name="top"/>
  <anchor x="604" y="0" name="ogonek"/>
  <outline>
    <contour>
      <point x="506" y="572" type="line"/>
      <point x="506" y="0" type="line"/>
      <point x="828" y="0" type="line"/>
      <point x="828" y="160" type="line"/>
      <point x="574" y="160" type="line"/>
      <point x="574" y="208" type="line"/>
      <point x="780" y="208" type="line"/>
      <point x="780" y="356" type="line"/>
      <point x="574" y="356" type="line"/>
      <point x="574" y="412" type="line"/>
      <point x="824" y="412" type="line"/>
      <point x="824" y="572" type="line"/>
    </contour>
    <component base="a.sc"/>
  </outline>
</glyph>
<glyph name="ampersand.sc" format="2">
  <advance width="624"/>
  <note>
ampersand.sc
</note>
  <outline>
    <contour>
      <point x="40" y="156" type="curve" smooth="yes"/>
      <point x="40" y="32"/>
      <point x="144" y="-12"/>
      <point x="328" y="-12" type="curve" smooth="yes"/>
      <point x="408" y="-12"/>
      <point x="492" y="4"/>
      <point x="548" y="24" type="curve"/>
      <point x="552" y="32" type="line"/>
      <point x="544" y="60"/>
      <point x="540" y="128"/>
      <point x="540" y="160" type="curve" smooth="yes"/>
      <point x="540" y="220" type="line"/>
      <point x="596" y="220" type="line"/>
      <point x="596" y="352" type="line"/>
      <point x="320" y="352" type="line" smooth="yes"/>
      <point x="272" y="352"/>
      <point x="240" y="360"/>
      <point x="240" y="390" type="curve" smooth="yes"/>
      <point x="240" y="420"/>
      <point x="264" y="432"/>
      <point x="332" y="432" type="curve" smooth="yes"/>
      <point x="404" y="432"/>
      <point x="472" y="420"/>
      <point x="512" y="404" type="curve"/>
      <point x="524" y="404" type="line"/>
      <point x="524" y="556" type="line"/>
      <point x="484" y="571"/>
      <point x="422" y="584"/>
      <point x="344" y="584" type="curve" smooth="yes"/>
      <point x="112" y="584"/>
      <point x="36" y="510"/>
      <point x="36" y="398" type="curve" smooth="yes"/>
      <point x="36" y="319"/>
      <point x="94" y="269"/>
      <point x="166" y="242" type="curve"/>
      <point x="173" y="289" type="line"/>
      <point x="95" y="273"/>
      <point x="40" y="233"/>
    </contour>
    <contour>
      <point x="320" y="128" type="curve" smooth="yes"/>
      <point x="268" y="128"/>
      <point x="240" y="144"/>
      <point x="240" y="176" type="curve" smooth="yes"/>
      <point x="240" y="205"/>
      <point x="258" y="218"/>
      <point x="291" y="220" type="curve"/>
      <point x="360" y="220" type="line"/>
      <point x="360" y="204" type="line" smooth="yes"/>
      <point x="360" y="142"/>
      <point x="373" y="127"/>
      <point x="382" y="103" type="curve"/>
      <point x="387" y="150" type="line"/>
      <point x="392" y="142"/>
      <point x="363" y="128"/>
    </contour>
  </outline>
</glyph>
<glyph name="approxequal.sc" format="2">
  <advance width="568"/>
  <note>
approxequal.sc
</note>
  <outline>
    <contour>
      <point x="60" y="64" type="curve"/>
      <point x="176" y="64" type="line"/>
      <point x="176" y="107"/>
      <point x="187" y="136"/>
      <point x="216" y="136" type="curve" smooth="yes"/>
      <point x="252" y="136"/>
      <point x="288" y="64"/>
      <point x="372" y="64" type="curve" smooth="yes"/>
      <point x="462" y="64"/>
      <point x="508" y="138"/>
      <point x="508" y="260" type="curve"/>
      <point x="392" y="260" type="line"/>
      <point x="392" y="217"/>
      <point x="381" y="188"/>
      <point x="352" y="188" type="curve" smooth="yes"/>
      <point x="316" y="188"/>
      <point x="280" y="260"/>
      <point x="196" y="260" type="curve" smooth="yes"/>
      <point x="106" y="260"/>
      <point x="60" y="186"/>
    </contour>
    <contour>
      <point x="60" y="316" type="curve"/>
      <point x="176" y="316" type="line"/>
      <point x="176" y="359"/>
      <point x="187" y="388"/>
      <point x="216" y="388" type="curve" smooth="yes"/>
      <point x="252" y="388"/>
      <point x="288" y="316"/>
      <point x="372" y="316" type="curve" smooth="yes"/>
      <point x="462" y="316"/>
      <point x="508" y="390"/>
      <point x="508" y="512" type="curve"/>
      <point x="392" y="512" type="line"/>
      <point x="392" y="469"/>
      <point x="381" y="440"/>
      <point x="352" y="440" type="curve" smooth="yes"/>
      <point x="316" y="440"/>
      <point x="280" y="512"/>
      <point x="196" y="512" type="curve" smooth="yes"/>
      <point x="106" y="512"/>
      <point x="60" y="438"/>
    </contour>
  </outline>
</glyph>
<glyph name="asciitilde.sc" format="2">
  <advance width="568"/>
  <note>
asciitilde.sc
</note>
  <outline>
    <contour>
      <point x="60" y="196" type="curve"/>
      <point x="176" y="196" type="line"/>
      <point x="176" y="239"/>
      <point x="187" y="268"/>
      <point x="216" y="268" type="curve" smooth="yes"/>
      <point x="252" y="268"/>
      <point x="288" y="196"/>
      <point x="372" y="196" type="curve" smooth="yes"/>
      <point x="462" y="196"/>
      <point x="508" y="270"/>
      <point x="508" y="392" type="curve"/>
      <point x="392" y="392" type="line"/>
      <point x="392" y="349"/>
      <point x="381" y="320"/>
      <point x="352" y="320" type="curve" smooth="yes"/>
      <point x="316" y="320"/>
      <point x="280" y="392"/>
      <point x="196" y="392" type="curve" smooth="yes"/>
      <point x="106" y="392"/>
      <point x="60" y="318"/>
    </contour>
  </outline>
</glyph>
<glyph name="b.inferior" format="2">
  <advance width="514"/>
  <note>
b.inferior
</note>
  <outline>
    <contour>
      <point x="49" y="-146" type="curve"/>
      <point x="52" y="-152" type="line"/>
      <point x="90" y="-160"/>
      <point x="155" y="-169"/>
      <point x="202" y="-169" type="curve" smooth="yes"/>
      <point x="368" y="-169"/>
      <point x="487" y="-116"/>
      <point x="487" y="41" type="curve" smooth="yes"/>
      <point x="487" y="167"/>
      <point x="420" y="246"/>
      <point x="295" y="246" type="curve" smooth="yes"/>
      <point x="268" y="246"/>
      <point x="243" y="241"/>
      <point x="222" y="233" type="curve"/>
      <point x="222" y="395" type="line"/>
      <point x="49" y="395" type="line"/>
      <point x="46" y="389" type="line"/>
      <point x="53" y="363"/>
      <point x="55" y="255"/>
      <point x="55" y="226" type="curve" smooth="yes"/>
      <point x="55" y="-34" type="line" smooth="yes"/>
      <point x="55" y="-63"/>
      <point x="55" y="-120"/>
    </contour>
    <contour>
      <point x="222" y="-16" type="curve" smooth="yes"/>
      <point x="222" y="126" type="line"/>
      <point x="228" y="127"/>
      <point x="234" y="128"/>
      <point x="242" y="128" type="curve" smooth="yes"/>
      <point x="293" y="128"/>
      <point x="317" y="92"/>
      <point x="317" y="39" type="curve" smooth="yes"/>
      <point x="317" y="-11"/>
      <point x="296" y="-54"/>
      <point x="239" y="-54" type="curve" smooth="yes"/>
      <point x="234" y="-54"/>
      <point x="227" y="-54"/>
      <point x="221" y="-53" type="curve"/>
      <point x="222" y="-42"/>
      <point x="222" y="-30"/>
    </contour>
  </outline>
</glyph>
<glyph name="backslash.sc" format="2">
  <advance width="504"/>
  <note>
backslash.sc
</note>
  <outline>
    <contour>
      <point x="484" y="0" type="line"/>
      <point x="200" y="572" type="line"/>
      <point x="20" y="572" type="line"/>
      <point x="304" y="0" type="line"/>
    </contour>
  </outline>
</glyph>
<glyph name="behDotless-ar.init" format="2">
  <advance width="380"/>
  <note>
uni066E.init
</note>
  <anchor x="164" y="0" name="bottom"/>
  <anchor x="132" y="0" name="ring"/>
  <anchor x="194" y="584" name="top"/>
  <outline>
    <contour>
      <point x="-20" y="0" type="line"/>
      <point x="140" y="0" type="line" smooth="yes"/>
      <point x="224" y="0"/>
      <point x="276" y="8"/>
      <point x="316" y="24" type="curve"/>
      <point x="316" y="32" type="line"/>
      <point x="308" y="68"/>
      <point x="308" y="152"/>
      <point x="308" y="192" type="curve" smooth="yes"/>
      <point x="308" y="548" type="line"/>
      <point x="296" y="548" type="line"/>
      <point x="96" y="528" type="line"/>
      <point x="96" y="268" type="line" smooth="yes"/>
      <point x="96" y="207"/>
      <point x="101" y="161"/>
      <point x="121" y="147" type="curve"/>
      <point x="190" y="176" type="line"/>
      <point x="0" y="176" type="line"/>
      <point x="-20" y="156" type="line"/>
    </contour>
  </outline>
</glyph>
<glyph name="behDotless-ar.medi" format="2">
  <advance width="432"/>
  <note>
uni066E.medi
</note>
  <anchor x="323" y="0" name="*entry"/>
  <anchor x="204" y="0" name="bottom"/>
  <anchor x="193" y="0" name="ring"/>
  <anchor x="204" y="584" name="top"/>
  <outline>
    <contour>
      <point x="0" y="176" type="line"/>
      <point x="-20" y="156" type="line"/>
      <point x="-20" y="0" type="line"/>
      <point x="412" y="0" type="line"/>
      <point x="432" y="20" type="line"/>
      <point x="432" y="176" type="line"/>
      <point x="226" y="176" type="line"/>
      <point x="312" y="90" type="line"/>
      <point x="312" y="548" type="line"/>
      <point x="300" y="548" type="line"/>
      <point x="100" y="528" type="line"/>
      <point x="100" y="264" type="line" smooth="yes"/>
      <point x="100" y="203"/>
      <point x="105" y="161"/>
      <point x="125" y="147" type="curve"/>
      <point x="194" y="176" type="line"/>
    </contour>
  </outline>
</glyph>
<glyph name="braceright.sc" format="2">
  <advance width="456"/>
  <note>
braceright.sc
</note>
  <outline>
    <contour>
      <point x="248" y="268" type="curve"/>
      <point x="248" y="264" type="line"/>
      <point x="181" y="260"/>
      <point x="156" y="217"/>
      <point x="156" y="160" type="curve" smooth="yes"/>
      <point x="156" y="116" type="line" smooth="yes"/>
      <point x="156" y="77"/>
      <point x="139" y="64"/>
      <point x="100" y="64" type="curve" smooth="yes"/>
      <point x="28" y="64" type="line"/>
      <point x="28" y="-72" type="line"/>
      <point x="136" y="-72" type="line" smooth="yes"/>
      <point x="254" y="-72"/>
      <point x="336" y="-38"/>
      <point x="336" y="92" type="curve" smooth="yes"/>
      <point x="336" y="136" type="line" smooth="yes"/>
      <point x="336" y="167"/>
      <point x="351" y="196"/>
      <point x="392" y="196" type="curve" smooth="yes"/>
      <point x="436" y="196" type="line"/>
      <point x="436" y="336" type="line"/>
      <point x="392" y="336" type="line" smooth="yes"/>
      <point x="351" y="336"/>
      <point x="336" y="365"/>
      <point x="336" y="396" type="curve" smooth="yes"/>
      <point x="336" y="440" type="line" smooth="yes"/>
      <point x="336" y="570"/>
      <point x="254" y="604"/>
      <point x="136" y="604" type="curve" smooth="yes"/>
      <point x="28" y="604" type="line"/>
      <point x="28" y="468" type="line"/>
      <point x="100" y="468" type="line" smooth="yes"/>
      <point x="139" y="468"/>
      <point x="156" y="455"/>
      <point x="156" y="416" type="curve" smooth="yes"/>
      <point x="156" y="372" type="line" smooth="yes"/>
      <point x="156" y="315"/>
      <point x="181" y="272"/>
    </contour>
  </outline>
</glyph>
<glyph name="c.sc" format="2">
  <advance width="568"/>
  <note>
c.sc
</note>
  <anchor x="321" y="0" name="bottom"/>
  <anchor x="354" y="572" name="top"/>
  <outline>
    <contour>
      <point x="32" y="284" type="curve" smooth="yes"/>
      <point x="32" y="104"/>
      <point x="147" y="-12"/>
      <point x="396" y="-12" type="curve" smooth="yes"/>
      <point x="454" y="-12"/>
      <point x="507" y="0"/>
      <point x="528" y="8" type="curve"/>
      <point x="528" y="168" type="line"/>
      <point x="516" y="168" type="line"/>
      <point x="495" y="159"/>
      <point x="458" y="148"/>
      <point x="416" y="148" type="curve" smooth="yes"/>
      <point x="283" y="148"/>
      <point x="244" y="212"/>
      <point x="244" y="284" type="curve" smooth="yes"/>
      <point x="244" y="355"/>
      <point x="283" y="424"/>
      <point x="416" y="424" type="curve" smooth="yes"/>
      <point x="458" y="424"/>
      <point x="495" y="417"/>
      <point x="516" y="408" type="curve"/>
      <point x="528" y="408" type="line"/>
      <point x="528" y="568" type="line"/>
      <point x="507" y="576"/>
      <point x="454" y="584"/>
      <point x="396" y="584" type="curve" smooth="yes"/>
      <point x="147" y="584"/>
      <point x="32" y="466"/>
    </contour>
  </outline>
</glyph>
<glyph name="cent.inferior" format="2">
  <advance width="397"/>
  <note>
cent.inferior
</note>
  <outline>
    <contour>
      <point x="52" y="47" type="curve" smooth="yes"/>
      <point x="52" y="-43"/>
      <point x="98" y="-85"/>
      <point x="160" y="-103" type="curve"/>
      <point x="160" y="-196" type="line"/>
      <point x="279" y="-196" type="line"/>
      <point x="279" y="-112" type="line"/>
      <point x="295" y="-110"/>
      <point x="310" y="-106"/>
      <point x="322" y="-101" type="curve"/>
      <point x="322" y="2" type="line"/>
      <point x="314" y="2" type="line"/>
      <point x="299" y="-4"/>
      <point x="291" y="-9"/>
      <point x="263" y="-9" type="curve" smooth="yes"/>
      <point x="232" y="-9"/>
      <point x="203" y="7"/>
      <point x="203" y="47" type="curve" smooth="yes"/>
      <point x="203" y="86"/>
      <point x="232" y="102"/>
      <point x="263" y="102" type="curve" smooth="yes"/>
      <point x="291" y="102"/>
      <point x="299" y="98"/>
      <point x="314" y="91" type="curve"/>
      <point x="322" y="91" type="line"/>
      <point x="322" y="195" type="line"/>
      <point x="310" y="199"/>
      <point x="295" y="202"/>
      <point x="279" y="204" type="curve"/>
      <point x="279" y="284" type="line"/>
      <point x="160" y="284" type="line"/>
      <point x="160" y="195" type="line"/>
      <point x="98" y="178"/>
      <point x="52" y="136"/>
    </contour>
  </outline>
</glyph>
<glyph name="cent.sc" format="2">
  <advance width="568"/>
  <note>
cent.sc
</note>
  <outline>
    <contour>
      <point x="344" y="68" type="curve" smooth="yes"/>
      <point x="413" y="68"/>
      <point x="443" y="79"/>
      <point x="460" y="84" type="curve"/>
      <point x="460" y="224" type="line"/>
      <point x="448" y="224" type="line"/>
      <point x="427" y="214"/>
      <point x="413" y="208"/>
      <point x="372" y="208" type="curve" smooth="yes"/>
      <point x="322" y="208"/>
      <point x="276" y="234"/>
      <point x="276" y="296" type="curve" smooth="yes"/>
      <point x="276" y="358"/>
      <point x="322" y="384"/>
      <point x="372" y="384" type="curve" smooth="yes"/>
      <point x="413" y="384"/>
      <point x="427" y="378"/>
      <point x="448" y="368" type="curve"/>
      <point x="460" y="368" type="line"/>
      <point x="460" y="508" type="line"/>
      <point x="443" y="513"/>
      <point x="413" y="524"/>
      <point x="344" y="524" type="curve" smooth="yes"/>
      <point x="156" y="524"/>
      <point x="76" y="432"/>
      <point x="76" y="296" type="curve" smooth="yes"/>
      <point x="76" y="160"/>
      <point x="156" y="68"/>
    </contour>
    <contour>
      <point x="236" y="-52" type="line"/>
      <point x="396" y="-52" type="line"/>
      <point x="396" y="128" type="line"/>
      <point x="236" y="128" type="line"/>
    </contour>
    <contour>
      <point x="236" y="456" type="line"/>
      <point x="396" y="456" type="line"/>
      <point x="396" y="636" type="line"/>
      <point x="236" y="636" type="line"/>
    </contour>
  </outline>
</glyph>
<glyph name="currency.sc" format="2">
  <advance width="568"/>
  <note>
currency.sc
</note>
  <outline>
    <contour>
      <point x="58" y="127" type="line"/>
      <point x="123" y="62" type="line"/>
      <point x="174" y="114" type="line"/>
      <point x="204" y="97"/>
      <point x="239" y="88"/>
      <point x="280" y="88" type="curve" smooth="yes"/>
      <point x="323" y="88"/>
      <point x="360" y="98"/>
      <point x="390" y="117" type="curve"/>
      <point x="445" y="62" type="line"/>
      <point x="509" y="127" type="line"/>
      <point x="453" y="182" type="line"/>
      <point x="469" y="212"/>
      <point x="479" y="249"/>
      <point x="479" y="288" type="curve" smooth="yes"/>
      <point x="479" y="327"/>
      <point x="469" y="362"/>
      <point x="453" y="392" type="curve"/>
      <point x="509" y="449" type="line"/>
      <point x="445" y="513" type="line"/>
      <point x="390" y="459" type="line"/>
      <point x="360" y="476"/>
      <point x="323" y="487"/>
      <point x="280" y="487" type="curve" smooth="yes"/>
      <point x="239" y="487"/>
      <point x="204" y="477"/>
      <point x="174" y="461" type="curve"/>
      <point x="123" y="513" type="line"/>
      <point x="58" y="449" type="line"/>
      <point x="109" y="397" type="line"/>
      <point x="90" y="366"/>
      <point x="81" y="329"/>
      <point x="81" y="288" type="curve" smooth="yes"/>
      <point x="81" y="247"/>
      <point x="90" y="209"/>
      <point x="109" y="177" type="curve"/>
    </contour>
    <contour>
      <point x="280" y="182" type="curve" smooth="yes"/>
      <point x="221" y="182"/>
      <point x="186" y="225"/>
      <point x="186" y="288" type="curve" smooth="yes"/>
      <point x="186" y="350"/>
      <point x="221" y="393"/>
      <point x="280" y="393" type="curve" smooth="yes"/>
      <point x="338" y="393"/>
      <point x="374" y="350"/>
      <point x="374" y="288" type="curve" smooth="yes"/>
      <point x="374" y="225"/>
      <point x="338" y="182"/>
    </contour>
  </outline>
</glyph>
<glyph name="daggerdbl.sc" format="2">
  <advance width="544"/>
  <note>
daggerdbl.sc
</note>
  <outline>
    <contour>
      <point x="368" y="-196" type="line"/>
      <point x="368" y="572" type="line"/>
      <point x="176" y="572" type="line"/>
      <point x="176" y="-196" type="line"/>
    </contour>
    <contour>
      <point x="32" y="268" type="line"/>
      <point x="512" y="268" type="line"/>
      <point x="512" y="412" type="line"/>
      <point x="32" y="412" type="line"/>
    </contour>
    <contour>
      <point x="32" y="0" type="line"/>
      <point x="512" y="0" type="line"/>
      <point x="512" y="144" type="line"/>
      <point x="32" y="144" type="line"/>
    </contour>
  </outline>
</glyph>
<glyph name="dal-ar.con" format="2">
  <advance width="600"/>
  <anchor x="480" y="0" name="*entry"/>
  <anchor x="356" y="0" name="bottom"/>
  <anchor x="326" y="0" name="ring"/>
  <anchor x="396" y="508" name="top"/>
  <outline>
    <contour>
      <point x="32" y="12" type="line"/>
      <point x="32" y="0" type="line"/>
      <point x="424" y="0" type="line" smooth="yes"/>
      <point x="485" y="0"/>
      <point x="534" y="8"/>
      <point x="573" y="22" type="curve"/>
      <point x="602" y="89" type="line"/>
      <point x="680" y="137"/>
      <point x="708" y="199"/>
      <point x="708" y="264" type="curve" smooth="yes"/>
      <point x="708" y="345"/>
      <point x="645" y="430"/>
      <point x="596" y="476" type="curve"/>
      <point x="584" y="476" type="line"/>
      <point x="544" y="468"/>
      <point x="476" y="464"/>
      <point x="408" y="464" type="curve" smooth="yes"/>
      <point x="376" y="464" type="line" smooth="yes"/>
      <point x="310" y="464"/>
      <point x="238" y="466"/>
      <point x="184" y="484" type="curve"/>
      <point x="172" y="484" type="line"/>
      <point x="120" y="320" type="line"/>
      <point x="181" y="292"/>
      <point x="273" y="288"/>
      <point x="324" y="288" type="curve" smooth="yes"/>
      <point x="364" y="288" type="line" smooth="yes"/>
      <point x="419" y="288"/>
      <point x="468" y="294"/>
      <point x="562" y="316" type="curve"/>
      <point x="479" y="316" type="line"/>
      <point x="489" y="302"/>
      <point x="508" y="277"/>
      <point x="508" y="242" type="curve" smooth="yes"/>
      <point x="508" y="199"/>
      <point x="483" y="176"/>
      <point x="384" y="176" type="curve" smooth="yes"/>
      <point x="96" y="176" type="line"/>
    </contour>
  </outline>
</glyph>
<glyph name="divide.sc" format="2">
  <advance width="568"/>
  <note>
divide.sc
</note>
  <outline>
    <contour>
      <point x="284" y="396" type="curve" smooth="yes"/>
      <point x="325" y="396"/>
      <point x="356" y="422"/>
      <point x="356" y="468" type="curve" smooth="yes"/>
      <point x="356" y="512"/>
      <point x="325" y="540"/>
      <point x="284" y="540" type="curve" smooth="yes"/>
      <point x="243" y="540"/>
      <point x="212" y="512"/>
      <point x="212" y="468" type="curve" smooth="yes"/>
      <point x="212" y="422"/>
      <point x="243" y="396"/>
    </contour>
    <contour>
      <point x="60" y="352" type="line"/>
      <point x="60" y="224" type="line"/>
      <point x="508" y="224" type="line"/>
      <point x="508" y="352" type="line"/>
    </contour>
    <contour>
      <point x="212" y="116" type="curve" smooth="yes"/>
      <point x="212" y="70"/>
      <point x="243" y="44"/>
      <point x="284" y="44" type="curve" smooth="yes"/>
      <point x="325" y="44"/>
      <point x="356" y="70"/>
      <point x="356" y="116" type="curve" smooth="yes"/>
      <point x="356" y="160"/>
      <point x="325" y="188"/>
      <point x="284" y="188" type="curve" smooth="yes"/>
      <point x="243" y="188"/>
      <point x="212" y="160"/>
    </contour>
  </outline>
</glyph>
